<?xml version="1.0" standalone="no"?>
<!DOCTYPE svg PUBLIC "-//W3C//DTD SVG 1.1//EN" "http://www.w3.org/Graphics/SVG/1.1/DTD/svg11.dtd" >
<svg xmlns="http://www.w3.org/2000/svg">
<metadata></metadata>
<defs>
<font id="diablo_iii_cyrillicregular" horiz-adv-x="1478" >
<font-face units-per-em="2048" ascent="1638" descent="-410" />
<missing-glyph horiz-adv-x="835" />
<glyph horiz-adv-x="2048" />
<glyph horiz-adv-x="2048" />
<glyph unicode="&#xd;" horiz-adv-x="0" />
<glyph unicode=" "  horiz-adv-x="835" />
<glyph unicode="&#x09;" horiz-adv-x="835" />
<glyph unicode="&#xa0;" horiz-adv-x="835" />
<glyph unicode="!" horiz-adv-x="835" d="M229 92l148 148l147 -148l-147 -147zM272 1157l105 105l104 -105l-71 -780l-33 -33l-33 33z" />
<glyph unicode="&#x22;" horiz-adv-x="1093" d="M197 1130l131 132l131 -132l-131 -327zM635 1130l131 132l129 -132l-129 -327z" />
<glyph unicode="#" horiz-adv-x="1060" d="M150 553v94h149l29 191h-131v94h145l39 264h102l-39 -264h230l39 264h100l-39 -264h137v-94h-149l-31 -191h131v-94h-143l-39 -264h-102l36 264h-227l-41 -264h-100l39 264h-135zM401 647h230l26 191h-229z" />
<glyph unicode="$" horiz-adv-x="1220" d="M233 244l168 73l13 -20q-43 -27 -43 -55q0 -35 47 -82q61 -57 139 -66v492l-70 39q-116 62 -165 137q-39 59 -39 151q0 117 82 199q79 79 192 96v99h109v-101q186 -27 272 -194l-139 -125l-17 26q33 29 33 58q0 37 -44 73t-105 48v-416l116 -62q197 -105 197 -301 q0 -128 -90 -221q-91 -91 -223 -112v-115h-109v110q-148 9 -244 119q-65 74 -80 150zM408 913q0 -101 149 -180v357q-149 -30 -149 -177zM666 96q86 20 136 79.5t50 139.5q0 63 -47 113q-33 36 -129 94l-10 6v-432z" />
<glyph unicode="%" horiz-adv-x="1673" d="M131 872q0 136 94 230t230 94q133 0 227 -94t94 -230q0 -133 -94 -227t-227 -94q-136 0 -230 94t-94 227zM231 872q0 -71 39 -124l310 309q-53 39 -125 39q-92 0 -158 -66t-66 -158zM336 684q50 -33 119 -33q92 0 156.5 64.5t64.5 156.5q0 69 -33 119zM418 0l729 1196 h108l-729 -1196h-108zM897 324q0 133 94 227t228 94q133 0 227 -94q96 -96 96 -227q0 -134 -96 -230q-94 -94 -227 -94q-134 0 -228 94t-94 230zM995 324q0 -65 41 -127l310 309q-53 39 -127 39q-93 0 -158.5 -64.5t-65.5 -156.5zM1102 133q44 -33 117 -33q92 0 157.5 66 t65.5 158q0 63 -33 116z" />
<glyph unicode="&#x26;" horiz-adv-x="1523" d="M240 356q0 216 186 332q-109 92 -109 234q0 124 91 215q93 90 219 90q125 0 215 -90t90 -215q0 -142 -111 -234q66 -37 158 -151l96 -119l60 53q47 44 47 70q0 17 -25 53l-6 10l12 27l13 -13l61 -77l68 -78q5 -5 26 -28.5t39 -41.5l12 -14l-26 -8l-10 10q-36 31 -60 31 q-25 0 -67 -39l-62 -54l166 -196q76 -91 145 -100q10 -3 19 0l8 -27h-16q-7 0 -45.5 2t-55.5 2q-22 0 -108 -6l-203 239l-182 -163q-113 -101 -258 -101q-162 0 -275 113q-112 112 -112 274zM367 356q0 -109 75 -184q76 -76 185 -76q100 0 188 82l166 154l-182 213 q-60 69 -172 69q-110 0 -185 -75t-75 -183zM444 922q0 -75 54 -128t129 -53q73 0 126.5 53.5t53.5 127.5q0 73 -54 126.5t-126 53.5q-75 0 -129 -53t-54 -127z" />
<glyph unicode="'" horiz-adv-x="655" d="M197 1130l131 132l131 -132l-131 -327z" />
<glyph unicode="(" horiz-adv-x="983" d="M393 -25v1227l326 246l49 -59l-260 -246v-1106l260 -246l-49 -61z" />
<glyph unicode=")" horiz-adv-x="983" d="M215 -209l260 246v1106l-260 246l49 59l326 -246v-1227l-326 -245z" />
<glyph unicode="*" horiz-adv-x="933" d="M168 715l33 131l55 -15l98 58l-98 57l-55 -14l-33 129l129 37l14 -58l103 -57v115l-41 41l94 94l92 -94l-41 -41v-113l98 55l21 58l129 -37l-35 -129l-55 14l-103 -57l103 -58l55 15l35 -131l-129 -35l-21 55l-98 58v-115l41 -41l-92 -94l-94 94l41 41v115l-103 -58 l-14 -55z" />
<glyph unicode="+" horiz-adv-x="704" d="M43 274v19q0 14 2 53t2 45v101q0 7 -2 46.5t-2 51.5v18l29 -10v-16q5 -45 24 -60.5t74 -15.5h119v117q0 58 -15.5 76.5t-60.5 23.5h-14l-13 29h19q13 0 53 -3.5t43 -3.5h102q7 0 47 3.5t52 3.5h16l-8 -29h-16q-46 -5 -61 -23.5t-15 -76.5v-117h117q58 0 76.5 15t23.5 61 v16l29 10v-18q0 -12 -3.5 -51.5t-3.5 -46.5v-101q0 -6 3.5 -45t3.5 -53v-19l-29 13v14q-5 46 -23.5 61t-76.5 15h-117v-117q0 -56 15.5 -75.5t60.5 -24.5h16l8 -29h-16q-12 0 -52 3t-47 3h-102q-3 0 -43 -3t-53 -3h-19l13 29h14q44 5 60 24.5t16 75.5v117h-119 q-55 0 -74 -15.5t-24 -60.5v-14z" />
<glyph unicode="," horiz-adv-x="655" d="M160 -109l108 111l-90 90l150 148l145 -148l-258 -258z" />
<glyph unicode="-" horiz-adv-x="657" d="M55 281v18q0 14 2 52t2 44v103q0 7 -2 46.5t-2 51.5v18l29 -12v-14q5 -45 23.5 -60.5t74.5 -15.5h291q58 0 76.5 15t23.5 61v14l29 12v-18q0 -12 -3 -51.5t-3 -46.5v-103q0 -6 3 -44t3 -52v-18l-29 12v12q-5 46 -23.5 62t-76.5 16h-291q-55 0 -74 -16t-24 -62v-12z" />
<glyph unicode="." horiz-adv-x="655" d="M180 92l148 148l147 -148l-147 -147z" />
<glyph unicode="/" horiz-adv-x="716" d="M-78 -281l787 1610l73 23l29 -74l-782 -1606l-78 -26z" />
<glyph unicode="0" horiz-adv-x="1341" d="M43 598q0 260 184 444q185 185 445 185q262 0 444 -185q184 -181 184 -444q0 -260 -184 -444q-182 -185 -444 -185q-260 0 -445 185q-184 184 -184 444zM170 598q0 -176 106 -309l705 706q-137 107 -309 107q-208 0 -355 -150q-147 -147 -147 -354zM362 201 q137 -107 310 -107q206 0 354 148q150 150 150 356q0 174 -109 307z" />
<glyph unicode="1" horiz-adv-x="423" d="M43 -4l10 27h15q45 5 60 24.5t15 75.5v950q0 56 -15 76t-60 25h-15l-10 26h16q15 0 54.5 -2t44.5 -2h108q7 0 47 2t52 2h18l-12 -26h-15q-45 -5 -61 -25t-16 -76v-950q0 -56 16 -75.5t61 -24.5h15l12 -27h-18q-12 0 -52 2t-47 2h-108q-5 0 -44.5 -2t-54.5 -2h-16z" />
<glyph unicode="2" horiz-adv-x="940" d="M43 0l586 606q119 125 119 234q0 107 -74 184q-73 76 -180 76q-109 0 -185 -76t-76 -184q0 -43 70 -49h14l15 -29h-21q-9 0 -49.5 2t-48.5 2h-102q-1 16 -3 41.5t-2 32.5q0 157 115 272t273 115q159 0 274 -115t115 -272q0 -90 -33 -152q-37 -76 -131 -174l-377 -387h426 q56 0 75.5 16.5t24.5 61.5v14l29 12v-18q0 -12 -2 -51.5t-2 -46.5v-119q-110 4 -125 4h-725z" />
<glyph unicode="3" horiz-adv-x="907" d="M43 356q0 39 2 74h105q7 0 46.5 2t51.5 2h18l-12 -28h-14q-70 -6 -70 -50q0 -108 76 -184t182 -76q109 0 182 76q76 76 76 184q0 100 -65 174q-82 88 -222 88q-64 0 -147 -22l356 473h-401q-56 0 -76 -16.5t-25 -61.5v-14l-26 -12v18q0 14 2 53t2 45v119q106 -4 123 -4 h659l-352 -463q131 -30 215 -137q88 -104 88 -240q0 -159 -115 -274q-113 -113 -274 -113q-159 0 -272 113t-113 274z" />
<glyph unicode="4" horiz-adv-x="983" d="M43 297l670 958v-831h100q55 0 74 16t24 62v14l29 12v-18q0 -12 -1 -51.5t-1 -46.5v-103q0 -6 1 -45t1 -53v-18l-29 12v14q-5 46 -24 62t-74 16h-100v-174q0 -56 15 -75.5t60 -24.5h17l8 -27h-14q-13 0 -53 2t-48 2h-100q-6 0 -45.5 -2t-52.5 -2h-21l13 27h16 q45 5 61.5 24.5t16.5 75.5v174h-543zM274 424h312v442z" />
<glyph unicode="5" horiz-adv-x="858" d="M43 356q0 39 2 74h105q7 0 46.5 2t51.5 2h18l-12 -28h-14q-70 -6 -70 -50q0 -108 76 -184t182 -76q109 0 182 76q76 76 76 184q0 107 -76 183q-72 75 -182 75q-143 0 -215 -63l-125 27l90 618h449q17 0 123 4v-119q0 -6 2 -45t2 -53v-18l-29 12v14q-5 45 -24.5 61.5 t-73.5 16.5h-340l-54 -383q76 55 195 55q162 0 274 -112q115 -115 115 -273q0 -159 -115 -274q-113 -113 -274 -113q-159 0 -272 113t-113 274z" />
<glyph unicode="6" horiz-adv-x="858" d="M43 356q0 81 37 162q8 20 76 135l333 547h127q15 0 53.5 3t45.5 3h18l-12 -28q-8 3 -14 0q-45 -5 -68 -17q-32 -16 -74 -84l-211 -342q35 6 74 6q162 0 274 -112q115 -115 115 -273q0 -159 -115 -274q-113 -113 -274 -113q-159 0 -272 113t-113 274zM170 356 q0 -108 76 -184t182 -76q109 0 182 76q76 76 76 184q0 107 -76 183q-72 75 -182 75q-107 0 -182 -75q-76 -76 -76 -183z" />
<glyph unicode="7" horiz-adv-x="921" d="M43 965v18q0 14 1 53t1 45v119q110 -4 125 -4h711l-488 -1202q-89 6 -112 6q-15 0 -59.5 -2t-51.5 -2h-16l10 27q6 -3 12 0q97 12 131 100l381 946h-518q-55 0 -74 -16t-24 -62v-14z" />
<glyph unicode="8" horiz-adv-x="856" d="M43 356q0 216 186 332q-108 92 -108 234q0 125 90 215t217 90q125 0 215 -90t90 -215q0 -142 -108 -234q188 -114 188 -332q0 -161 -113 -274t-272 -113t-272 113t-113 274zM170 356q0 -108 76 -184t182 -76t182 76t76 184q0 107 -76 183q-75 75 -182 75t-182 -75 q-76 -76 -76 -183zM248 922q0 -75 52.5 -128t127.5 -53q74 0 127 53t53 128q0 74 -53 127t-127 53q-75 0 -127.5 -53t-52.5 -127z" />
<glyph unicode="9" horiz-adv-x="858" d="M43 840q0 159 113 272q115 115 272 115q159 0 274 -115t115 -272q0 -82 -37 -160q-15 -34 -78 -137l-331 -547h-127q-15 0 -53.5 -3t-45.5 -3h-18l10 28q9 -3 17 0q42 5 65 17q32 16 74 84l213 342q-38 -6 -78 -6q-160 0 -272 112q-113 113 -113 273zM170 840 q0 -107 76 -183q75 -75 182 -75q110 0 182 75q76 76 76 183q0 106 -76 182q-75 78 -182 78q-106 0 -182 -76t-76 -184z" />
<glyph unicode=":" horiz-adv-x="655" d="M180 92l148 148l147 -148l-147 -147zM180 715l148 147l147 -147l-147 -148z" />
<glyph unicode=";" horiz-adv-x="655" d="M160 -109l108 111l-90 90l150 148l145 -148l-258 -258zM178 715l150 147l145 -147l-145 -148z" />
<glyph unicode="&#x3c;" horiz-adv-x="1093" d="M160 1114l145 148l150 -148l-90 -90l108 -111l-55 -57zM598 1114l150 148l147 -148l-90 -90l106 -111l-57 -57z" />
<glyph unicode="=" horiz-adv-x="651" d="M43 180v19q0 14 1 53t1 45v100h557v-100q0 -6 3 -45t3 -53v-19l-28 13v14q-5 46 -24 61t-77 15h-309q-58 0 -76.5 -15t-23.5 -61v-14zM43 725v18l27 -10v-16q5 -46 23.5 -61t76.5 -15h309q58 0 77 15t24 61v16l28 10v-18q0 -12 -3 -51.5t-3 -46.5v-101h-557v101 q0 7 -1 46.5t-1 51.5z" />
<glyph unicode="&#x3e;" horiz-adv-x="1093" d="M160 913l108 111l-90 90l150 148l145 -148l-258 -258zM598 913l111 111l-93 90l150 148l145 -148l-256 -258z" />
<glyph unicode="?" horiz-adv-x="1310" d="M229 840q0 159 113 272q115 115 274 115q158 0 273 -115t115 -272q0 -191 -164 -320l-219 -172v-49l-70 -72l-72 72v80l271 233q120 105 120 228q0 108 -73 184t-181 76t-184 -76t-76 -184q0 -43 70 -49h14l13 -29h-19q-12 0 -51.5 2t-46.5 2h-103q-4 70 -4 74zM436 59 l115 115l115 -115l-115 -114z" />
<glyph unicode="@" horiz-adv-x="1660" d="M229 598q0 261 185 446q186 186 444 183q242 -3 408 -158q166 -150 166 -375q0 -184 -117 -307q-108 -117 -246 -117q-37 0 -74 13q-65 -27 -137 -27q-143 0 -244 98q-98 101 -98 244q0 144 98 242q100 100 244 100q86 0 148 -33l98 39v-586q97 6 162 99q67 91 67 219 q0 196 -137 315q-140 122 -338 119q-211 -3 -362 -154q-152 -152 -152 -360q0 -210 152 -362t362 -152q209 0 354 127l95 2q18 0 43 2q20 2 55 2h18l-12 -29h-14q-63 -6 -115 -55q-182 -164 -424 -164q-259 0 -444 185t-185 444zM635 598q0 -92 65.5 -157.5t157.5 -65.5 q83 0 139 47v352q-56 47 -139 47q-92 0 -157.5 -65.5t-65.5 -157.5z" />
<glyph unicode="A" horiz-adv-x="1447" d="M43 33l20 20l15 -8q24 -8 43 -8q40 0 67 67l537 1158l532 -1158q30 -67 70 -67q19 0 43 8l12 8l25 -20l-16 -8q-32 -11 -95 -37l-90 -43q-60 -33 -88 -47l-14 -9l-2 33l12 6q45 26 45 58q0 19 -16 65l-90 203h-658l-90 -203q-16 -46 -16 -65q0 -32 45 -58l12 -6l-2 -33 l-14 9q-4 2 -35 19t-53 28l-90 43q-23 7 -95 37zM444 365h557l-276 626z" />
<glyph unicode="B" horiz-adv-x="854" d="M43 -4l10 27h15q45 5 61 24.5t16 75.5v950q0 56 -16 76t-61 25h-15l-10 26h16q14 0 53.5 -2t45.5 -2h114q37 0 64 2h61q154 0 247 -75t93 -203q0 -161 -121 -232q89 -44 138 -121q57 -86 57 -202q0 -155 -106 -261q-104 -104 -263 -104h-284q-6 0 -45.5 -2t-53.5 -2h-16z M272 121h162q107 0 176 69q72 72 72 175q0 101 -71.5 172t-176.5 71h-162v-487zM272 721h156q78 0 129 53t51 129t-51 129t-129 53h-156v-364z" />
<glyph unicode="C" horiz-adv-x="1069" d="M43 598q0 260 184 444q185 185 445 185q198 0 350 -107v-96q0 -2 2 -37t2 -53v-16h-31q-12 67 -63 106q-130 74 -260 74q-204 0 -355 -148q-147 -144 -147 -352q0 -205 147 -352q151 -148 355 -148q135 0 274 86q43 49 51 103h25v-17q0 -15 -3 -50t-3 -40l6 -104 q-155 -107 -350 -107q-260 0 -445 185q-184 184 -184 444z" />
<glyph unicode="D" horiz-adv-x="1157" d="M43 -4l10 27h15q45 5 61 24.5t16 75.5v950q0 56 -16 76t-61 25h-15l-10 26h16q14 0 53.5 -2t45.5 -2h123q47 0 94 2q49 2 127 2q255 0 432 -174q180 -171 180 -424q0 -255 -178 -430q-174 -174 -434 -174h-119q-49 2 -80 2h-145q-6 0 -45.5 -2t-53.5 -2h-16zM276 115h232 q200 0 338 141q139 142 139 340q0 200 -139 342q-137 143 -338 143h-232v-966z" />
<glyph unicode="E" horiz-adv-x="829" d="M43 469v18q0 14 1 53.5t1 45.5v100q0 7 -1 46.5t-1 51.5v19l27 -12v-15q6 -44 20 -59.5t55 -16.5v496h512q59 0 78.5 16t24.5 62v14l26 10v-16q0 -12 -3 -51.5t-3 -46.5v-103q0 -6 3 -45t3 -53v-18l-26 12v14q-5 46 -24.5 62t-78.5 16h-385v-369h377q58 0 76.5 15 t24.5 61v15l26 12v-19q0 -12 -2 -51.5t-2 -46.5v-100q0 -6 2 -45.5t2 -53.5v-18l-26 10v17q-6 46 -24.5 60.5t-76.5 14.5h-377v-444h385q59 0 78.5 16t24.5 62v14l26 12v-18q0 -12 -3 -51.5t-3 -46.5v-103q0 -6 3 -45.5t3 -52.5v-16l-26 10v14q-5 46 -24.5 62t-78.5 16h-397 l-115 -115v686q-41 -1 -55 -16.5t-20 -58.5v-17z" />
<glyph unicode="F" horiz-adv-x="829" d="M43 469v18q0 14 1 53.5t1 45.5v100q0 7 -1 46.5t-1 51.5v19l27 -12v-15q6 -44 20 -59.5t55 -16.5v496h512q59 0 78.5 16t24.5 62v14l26 10v-16q0 -12 -3 -51.5t-3 -46.5v-103q0 -6 3 -45t3 -53v-18l-26 12v14q-5 46 -24.5 62t-78.5 16h-385v-369h377q58 0 76.5 15 t24.5 61v15l26 12v-19q0 -12 -2 -51.5t-2 -46.5v-100q0 -6 2 -45.5t2 -53.5v-18l-26 10v17q-6 46 -24.5 60.5t-76.5 14.5h-377v-882l-127 -127v1009q-41 -1 -55 -16.5t-20 -58.5v-17z" />
<glyph unicode="G" horiz-adv-x="1085" d="M43 598q0 260 184 444q185 185 445 185q198 0 350 -107v-96q0 -2 2 -37t2 -53v-16h-31q-12 67 -63 106q-130 74 -260 74q-204 0 -355 -148q-147 -144 -147 -352q0 -205 147 -352q151 -148 355 -148q121 0 246 70v356h-113q-56 0 -75.5 -16.5t-24.5 -61.5v-14l-27 -10v16 q0 14 2 53.5t2 45.5v24l-4 88h366v-555q-192 -125 -372 -125q-260 0 -445 185q-184 184 -184 444z" />
<glyph unicode="H" horiz-adv-x="1056" d="M43 -4l10 27h15q45 5 61 24.5t16 75.5v950q0 56 -16 76t-61 25h-15l-10 26h16q14 0 53.5 -2t45.5 -2h100q8 0 48 2t52 2h19l-12 -26h-17q-45 -5 -60.5 -25t-15.5 -76v-397h512v397q0 56 -16 76t-61 25h-17l-8 26h16q14 0 53.5 -2t45.5 -2h100q8 0 48 2t52 2h19l-12 -26 h-17q-45 -5 -60.5 -25t-15.5 -76v-950q0 -56 15.5 -75.5t60.5 -24.5h17l12 -27h-19q-12 0 -52 2t-48 2h-100q-6 0 -45.5 -2t-53.5 -2h-16l8 27h17q45 5 61 24.5t16 75.5v440h-512v-440q0 -56 15.5 -75.5t60.5 -24.5h17l12 -27h-19q-12 0 -52 2t-48 2h-100q-6 0 -45.5 -2 t-53.5 -2h-16z" />
<glyph unicode="I" horiz-adv-x="423" d="M43 -4l10 27h17q44 5 58.5 24t14.5 76v950q0 57 -14.5 76.5t-58.5 24.5h-17l-10 26h16q15 0 54.5 -2t46.5 -2h106q8 0 48 2t53 2h16l-10 -26h-17q-45 -5 -60 -25t-15 -76v-950q0 -56 15 -75.5t60 -24.5h17l10 -27h-16q-13 0 -53 2t-48 2h-106q-7 0 -46.5 -2t-54.5 -2h-16 z" />
<glyph unicode="J" horiz-adv-x="417" d="M43 1200h14q15 0 54.5 -2t46.5 -2h100q8 0 48.5 2t49.5 2h21l-12 -26h-17q-45 -5 -61.5 -25t-16.5 -76v-1302l-127 -213v1515q0 56 -15 76t-60 25h-17z" />
<glyph unicode="K" horiz-adv-x="1079" d="M43 -4l10 27h15q45 5 61 24.5t16 75.5v950q0 56 -16 76t-61 25h-15l-10 26h16q14 0 53.5 -2t45.5 -2h100q8 0 48 2t52 2h19l-12 -26h-17q-45 -5 -60.5 -25t-15.5 -76v-282l308 276q47 44 47 70q0 21 -27 55l-8 8l12 29l14 -12q35 -45 64 -78l57 -68q21 -18 70 -67l12 -17 l-28 -8l-11 10q-31 31 -55 31q-23 0 -70 -41l-342 -309l545 -547q63 -63 90 -80q28 -17 62 -20q6 -3 12 0l14 -27h-18q-7 0 -45.5 2t-52.5 2q-29 0 -111 -6l-539 536v-407q0 -56 15.5 -75.5t60.5 -24.5h17l12 -27h-19q-12 0 -52 2t-48 2h-100q-6 0 -45.5 -2t-53.5 -2h-16z " />
<glyph unicode="L" horiz-adv-x="862" d="M43 1200h16q14 0 53.5 -2t45.5 -2h100q8 0 48 2t52 2h19l-12 -26h-17q-45 -5 -60.5 -25t-15.5 -76v-946h422q56 0 76 16.5t25 61.5v14l26 12v-18q0 -12 -3 -51.5t-3 -46.5v-103q0 -6 3 -45.5t3 -52.5v-16l-26 10v14q-5 45 -25 61.5t-76 16.5h-436l-113 -115v1188 q0 56 -16 76t-61 25h-15z" />
<glyph unicode="M" horiz-adv-x="1476" d="M43 -4l12 27h15q45 5 61 24.5t16 75.5v950q0 56 -16 76t-61 25h-15l-12 26h18q14 0 53.5 -2t45.5 -2h516q-1 46 -18 62.5t-60 21.5h-14l-11 27h19q14 0 53.5 -2t42.5 -2h103q7 0 46.5 2t51.5 2h18l-12 -27h-14q-43 -5 -59 -21.5t-17 -62.5h516q7 0 46.5 2t51.5 2h17 l-11 -26h-16q-44 -5 -60 -25t-16 -76v-950q0 -56 16 -75.5t60 -24.5h16l11 -27h-17q-12 0 -51.5 2t-46.5 2h-102q-6 0 -45.5 -2t-53.5 -2h-18l10 27h16q45 5 61.5 24.5t16.5 75.5v946h-401v-946q0 -56 15.5 -75.5t60.5 -24.5h14l12 -27h-18q-12 0 -51.5 2t-46.5 2h-103 q-3 0 -42.5 -2t-53.5 -2h-19l11 27h14q45 5 61.5 24.5t16.5 75.5v946h-402v-946q0 -57 15.5 -76t62.5 -24h15l12 -27h-19q-13 0 -52.5 2t-47.5 2h-100q-6 0 -45.5 -2t-53.5 -2h-18z" />
<glyph unicode="N" horiz-adv-x="1236" d="M43 -4l10 27h15q45 5 61 24.5t16 75.5v950q0 56 -16 76t-61 25h-15l-10 26h16q14 0 53.5 -2t45.5 -2h100q8 0 48 2t52 2h19l-12 -26h-17q-45 -5 -60.5 -25t-15.5 -76v-16l693 -733v749q0 56 -16.5 76t-61.5 25h-15l-12 26h19q13 0 52.5 -2t45.5 -2h102q7 0 46 2t53 2h16 l-10 -26h-15q-45 -5 -61 -25t-16 -76v-950q0 -56 16 -75.5t61 -24.5h15l10 -27h-16q-14 0 -53 2t-46 2h-102q-6 0 -45.5 -2t-52.5 -2h-19l12 27h15q45 5 61.5 24.5t16.5 75.5v12l-693 737v-749q0 -56 15.5 -75.5t60.5 -24.5h17l12 -27h-19q-12 0 -52 2t-48 2h-100 q-6 0 -45.5 -2t-53.5 -2h-16z" />
<glyph unicode="O" horiz-adv-x="1341" d="M43 598q0 260 184 444q185 185 445 185q262 0 444 -185q184 -181 184 -444q0 -260 -184 -444q-182 -185 -444 -185q-260 0 -445 185q-184 184 -184 444zM170 543q21 -173 147 -299q125 -125 299 -146v445h-446zM170 653h446v445q-174 -21 -299 -146q-126 -123 -147 -299z M725 98q174 21 299 146q126 126 147 299h-446v-445zM725 653h446q-21 178 -145 299q-122 125 -301 146v-445z" />
<glyph unicode="P" horiz-adv-x="854" d="M43 -4l10 27h15q45 5 61 24.5t16 75.5v950q0 56 -16 76t-61 25h-15l-10 26h16q14 0 53.5 -2t45.5 -2h280q149 0 260 -102q113 -101 113 -252q0 -154 -111 -262q-109 -109 -262 -109h-166v-348q0 -56 15.5 -75.5t60.5 -24.5h17l12 -27h-19q-12 0 -52 2t-48 2h-100 q-6 0 -45.5 -2t-53.5 -2h-16zM272 586h156q109 0 180.5 73.5t71.5 180.5q0 105 -71 174t-181 69h-156v-497z" />
<glyph unicode="Q" horiz-adv-x="1341" d="M43 598q0 260 184 444q185 185 445 185q262 0 444 -185q184 -181 184 -444q0 -243 -163 -424q-164 -179 -402 -203v-104q0 -55 16 -74.5t60 -25.5h16l13 -27h-19q-12 0 -51.5 2t-46.5 2h-102q-6 0 -45.5 -2t-53.5 -2h-16l8 27h16q46 6 62 25.5t16 74.5v104 q-239 24 -403 203q-162 180 -162 424zM170 598q0 -191 125 -334q127 -142 313 -166v291q0 55 -16 74t-62 24h-16l-8 29h16q14 0 53.5 -2t45.5 -2h102q7 0 46.5 2t51.5 2h19l-13 -29h-16q-44 -5 -60 -24t-16 -74v-291q187 24 314 166q127 145 127 334q0 207 -150 354 q-147 150 -354 150q-208 0 -355 -150q-147 -147 -147 -354z" />
<glyph unicode="R" horiz-adv-x="1189" d="M43 -4l10 27h15q45 5 61 24.5t16 75.5v950q0 56 -16 76t-61 25h-15l-10 26h16q14 0 53.5 -2t45.5 -2h280q145 0 248 -92q102 -88 102 -234q0 -107 -65 -198t-172 -127l424 -422q67 -67 88 -80q28 -17 61 -20q6 -3 15 0l10 -27h-16q-11 0 -48.5 2t-50.5 2q-27 0 -112 -6 l-537 534h-113v-405q0 -56 15.5 -75.5t60.5 -24.5h17l12 -27h-19q-12 0 -52 2t-48 2h-100q-6 0 -45.5 -2t-53.5 -2h-16zM272 643h156q103 0 168.5 63.5t65.5 161.5q0 94 -63.5 154.5t-170.5 60.5h-156v-440z" />
<glyph unicode="S" horiz-adv-x="829" d="M43 244l168 73l10 -20q-43 -27 -43 -55q0 -39 60 -90q68 -62 168 -62q111 0 183.5 65t72.5 160q0 112 -179 207l-186 103q-120 65 -168 137q-39 59 -39 151q0 129 96 213q101 84 230 84q228 0 332 -198l-142 -125l-14 26q33 29 33 58q0 43 -62 84q-59 41 -137 41 q-102 0 -160 -58q-51 -48 -51 -125q0 -97 156 -180l221 -119q196 -108 196 -301q0 -151 -116 -245q-115 -95 -275 -95q-163 0 -270 113q-69 75 -84 158z" />
<glyph unicode="T" horiz-adv-x="1286" d="M43 965v18q0 14 2 53t2 45v103q0 7 -2 46.5t-2 51.5v16l29 -10v-14q5 -46 24 -62t74 -16h948q55 0 75 16t26 62v14l26 10v-16q0 -12 -2 -51.5t-2 -46.5v-103q0 -6 2 -45t2 -53v-18l-26 12v14q-6 46 -26 62t-75 16h-409v-946q0 -56 15 -75.5t60 -24.5h17l10 -27h-18 q-12 0 -52 2t-47 2h-100q-6 0 -45.5 -2t-52.5 -2h-19l12 27h15q45 5 60.5 24.5t15.5 75.5v946h-410q-55 0 -74 -16t-24 -62v-14z" />
<glyph unicode="U" horiz-adv-x="1548" d="M43 1200h14q14 0 53.5 -2t45.5 -2h100q8 0 48.5 2t49.5 2h19l-13 -26h-14q-45 -5 -60.5 -25t-15.5 -76v-475q0 -205 148 -356q148 -148 354 -148q208 0 356 148q148 151 148 356v475q0 56 -16.5 76t-61.5 25h-14l-13 26h19q14 0 54.5 -2t43.5 -2h101q7 0 46.5 2t51.5 2 h18l-12 -26h-14q-45 -5 -61.5 -25t-16.5 -76v-475q0 -260 -184 -444q-182 -185 -445 -185q-259 0 -444 185t-185 444v475q0 56 -16 76t-61 25h-15z" />
<glyph unicode="V" horiz-adv-x="1550" d="M43 1200h16q15 0 54.5 -2t46.5 -2h98q8 0 48.5 2t49.5 2h21l-10 -26h-19q-49 -6 -49 -33q0 -21 27 -68l448 -864l453 864q22 49 22 66q0 29 -49 35h-14l-12 26h20q13 0 51.5 -2t44.5 -2h103q7 0 45.5 2t52.5 2h16l-12 -26h-12q-42 -4 -64.5 -24t-52.5 -77l-592 -1134 l-590 1134q-27 56 -49.5 76.5t-64.5 24.5h-17z" />
<glyph unicode="W" horiz-adv-x="2082" d="M43 1200h18q14 0 53.5 -2t45.5 -2h102q7 0 45.5 2t52.5 2h19l-12 -26h-15q-49 -6 -49 -33q0 -20 25 -68l448 -864l195 375l-254 489q-50 92 -119 101h-12l-11 26h17q14 0 53 -2t45 -2h103q7 0 46.5 2t51.5 2h18l-14 -26h-12q-49 -6 -49 -33q0 -21 24 -68l184 -356 l187 356q22 46 22 66q0 29 -49 35h-14l-12 26h18q14 0 52.5 -2t45.5 -2h103q7 0 46.5 2t51.5 2h16l-10 -26h-14q-66 -9 -119 -101l-256 -489l197 -375l452 864q23 51 23 66q0 29 -49 35h-15l-12 26h18q14 0 53.5 -2t45.5 -2h102q7 0 45.5 2t52.5 2h19l-12 -26h-15 q-67 -9 -117 -101l-591 -1134l-265 507l-266 -507l-590 1134q-50 92 -116 101h-15z" />
<glyph unicode="X" horiz-adv-x="1433" d="M43 160l29 10l8 -10q34 -27 55 -27q27 0 70 43l422 422l-422 422q-43 43 -70 43q-21 0 -55 -27l-8 -10l-29 10l12 15l72 65l74 72q21 21 65 72l13 14l12 -29l-10 -10q-27 -35 -27 -55q0 -27 43 -70l422 -420l420 420q43 43 43 72q0 16 -29 53q-4 8 -8 10l12 29l12 -14 q5 -6 28 -30t38 -42l74 -72q48 -42 71 -65l13 -15l-27 -10l-10 10q-34 27 -56 27q-26 0 -69 -43l-422 -422l422 -422q43 -43 69 -43q22 0 56 27q3 7 10 10l27 -10l-13 -15q-6 -5 -29.5 -27.5t-41.5 -37.5l-74 -72q-35 -40 -66 -71l-12 -15l-12 29q7 7 8 10q29 37 29 53 q0 29 -43 72l-420 420l-422 -420q-43 -43 -43 -70q0 -21 27 -55q3 -7 10 -10l-12 -29l-13 15q-37 44 -65 71l-74 72l-72 65z" />
<glyph unicode="Y" horiz-adv-x="1433" d="M43 1036l12 15q7 7 37.5 33.5t34.5 31.5l74 72q7 7 63 72l12 14l15 -29l-12 -10q-25 -36 -25 -55q0 -27 43 -70l422 -420l420 420q43 43 43 72q0 16 -29 53l-6 10l8 29l14 -14l68 -72l70 -72q48 -42 71 -65l13 -15l-25 -10l-10 10q-34 27 -58 27t-67 -43l-451 -451v-446 q0 -56 16.5 -75.5t61.5 -24.5h14l13 -27h-19q-9 0 -49.5 2t-48.5 2h-102q-5 0 -44.5 -2t-54.5 -2h-16l10 27h14q45 5 61.5 24.5t16.5 75.5v446l-448 451q-43 43 -72 43q-17 0 -51 -27l-10 -10z" />
<glyph unicode="Z" horiz-adv-x="1005" d="M43 965v18q0 14 1 53t1 45v103q0 7 -1 46.5t-1 51.5v16l27 -10v-14q5 -46 23.5 -62t76.5 -16h780l-667 -1069h551q56 0 75.5 16.5t24.5 61.5v14l29 12v-18q0 -12 -3.5 -51.5t-3.5 -46.5v-103q0 -6 3.5 -45.5t3.5 -52.5v-16l-29 10v14q-5 45 -24.5 61.5t-75.5 16.5h-787 l670 1069h-547q-58 0 -76.5 -16t-23.5 -62v-14z" />
<glyph unicode="[" horiz-adv-x="983" d="M393 -221v1620h375v-60h-260v-1499h260v-61h-375z" />
<glyph unicode="\" horiz-adv-x="92" />
<glyph unicode="]" horiz-adv-x="983" d="M215 -160h260v1499h-260v60h375v-1620h-375v61z" />
<glyph unicode="^" horiz-adv-x="978" d="M266 987l183 191h69l182 -191h-90l-127 90l-127 -90h-90z" />
<glyph unicode="_" horiz-adv-x="894" d="M-8 -287h909v-67h-909v67z" />
<glyph unicode="`" horiz-adv-x="655" d="M121 1178h174l182 -191h-92z" />
<glyph unicode="a" horiz-adv-x="1107" d="M43 -2l14 14l13 -6q18 -6 30 -6q31 0 54 51l401 869l399 -869q23 -51 54 -51q9 0 30 6l11 6l18 -14l-12 -6q-10 -3 -72 -29l-68 -33q-40 -23 -63 -34l-12 -7l-2 25q1 1 10 4q35 21 35 43q0 15 -17 49l-84 193h-454l-86 -193q-17 -34 -17 -49q0 -22 35 -43q1 -1 4.5 -2 t5.5 -2l-2 -25l-12 7q-7 4 -17 9.5t-24.5 12.5t-24.5 12l-65 33q-46 17 -72 29zM365 285h383l-193 432z" />
<glyph unicode="b" horiz-adv-x="661" d="M43 -4l6 20h10q35 2 48.5 18t13.5 58v713q0 42 -13 57t-49 17h-10l-6 20h10q13 0 42.5 -1t31.5 -1h180q116 0 185 -56t69 -153q0 -119 -90 -172q64 -30 102 -92q48 -70 48 -152q0 -114 -80 -194q-78 -78 -199 -78h-215q-2 0 -31.5 -2t-42.5 -2h-10zM213 90h125 q77 0 129.5 53t52.5 129t-52.5 129.5t-129.5 53.5h-125v-365zM213 541h121q55 0 94 39.5t39 95.5q0 57 -39 97t-94 40h-121v-272z" />
<glyph unicode="c" horiz-adv-x="823" d="M43 440q0 197 137 334q139 139 332 139q151 0 264 -79v-74q0 -2 2 -27.5t2 -40.5v-12h-22q-9 52 -47 80q-101 55 -199 55q-154 0 -264 -110q-111 -108 -111 -265q0 -153 111 -264q110 -110 264 -110q100 0 209 65q31 35 39 76h16v-12q0 -10 -3 -37t-3 -31l6 -78 q-115 -80 -264 -80q-195 0 -332 137t-137 334z" />
<glyph unicode="d" horiz-adv-x="888" d="M43 -4l6 20h10q35 2 48.5 18t13.5 58v713q0 42 -13 57t-49 17h-10l-6 20h10q13 0 42.5 -1t31.5 -1h92q11 0 74 1t92 1q194 0 328 -131q135 -129 135 -317q0 -191 -133 -324q-132 -129 -330 -129h-86q-37 2 -59 2h-113q-2 0 -31.5 -2t-42.5 -2h-10zM217 86h172 q152 0 256 104q107 107 107 256t-107 256q-106 109 -256 109h-172v-725z" />
<glyph unicode="e" horiz-adv-x="643" d="M43 356v15q0 9 1 39t1 34v74q0 7 -1 36.5t-1 37.5v14l18 -8v-12q6 -33 17.5 -44.5t42.5 -11.5v371h385q43 0 57 12t19 48v10l18 8v-12q0 -9 -1 -39.5t-1 -34.5v-78q0 -4 1 -34t1 -40v-14l-18 10v11q-5 36 -19 47.5t-57 11.5h-291v-277h285q41 0 53.5 11t17.5 45v12l23 8 v-14q0 -8 -1 -37.5t-1 -36.5v-74q0 -4 1 -34t1 -39v-15l-23 9v12q-5 34 -17.5 44.5t-53.5 10.5h-285v-332h291q43 0 57 12t19 46v10l18 10v-14q0 -8 -1 -37.5t-1 -36.5v-76q0 -4 1 -34t1 -39v-13l-18 6v13q-5 34 -19 45.5t-57 11.5h-299l-86 -86v514q-31 0 -42.5 -11.5 t-17.5 -43.5v-12z" />
<glyph unicode="f" horiz-adv-x="643" d="M43 354v15q0 8 1 37t1 36v72q0 8 -1 38t-1 38v12l18 -6v-12q6 -33 17.5 -44.5t42.5 -11.5v369h385q43 0 57 12t19 49v11l18 8v-12q0 -9 -1 -40t-1 -34v-80q0 -3 1 -32.5t1 -39.5v-14l-18 10v10q-5 36 -19 48t-57 12h-291v-277h285q41 0 53.5 11t17.5 45v12l23 6v-12 q0 -8 -1 -38t-1 -38v-72q0 -7 1 -36t1 -37v-15l-23 8v13q-5 33 -17 43t-54 10h-285v-715l-94 -153v868q-31 0 -42.5 -10.5t-17.5 -42.5v-13z" />
<glyph unicode="g" horiz-adv-x="835" d="M43 440q0 197 137 334q139 139 332 139q151 0 264 -79v-74q0 -2 2 -27.5t2 -40.5v-12h-22q-9 52 -47 80q-101 55 -199 55q-154 0 -264 -110q-111 -108 -111 -265q0 -153 111 -264q110 -110 264 -110q89 0 184 53v266h-84q-41 0 -54.5 -11.5t-18.5 -45.5v-11l-21 -8v13 q0 10 1 39.5t1 33.5v19l-2 65h277v-416q-146 -94 -283 -94q-195 0 -332 137t-137 334z" />
<glyph unicode="h" horiz-adv-x="813" d="M43 -4l6 20h10q35 2 48.5 18t13.5 58v713q0 42 -13 57t-49 17h-10l-6 20h10q13 0 42.5 -1t31.5 -1h80q3 0 33.5 1t40.5 1h12l-8 -20h-13q-33 -2 -46 -17t-13 -57v-299h385v299q0 42 -12 57t-45 17h-13l-8 20h15q10 0 38.5 -1t32.5 -1h78q4 0 35.5 1t40.5 1h10l-6 -20h-10 q-36 -2 -49 -17t-13 -57v-713q0 -42 13.5 -58t48.5 -18h10l6 -20h-10q-9 0 -40.5 2t-35.5 2h-78q-4 0 -32.5 -2t-38.5 -2h-15l8 20h13q33 2 45 18t12 58v330h-385v-330q0 -42 13 -58t46 -18h13l8 -20h-12q-10 0 -40.5 2t-33.5 2h-80q-2 0 -31.5 -2t-42.5 -2h-10z" />
<glyph unicode="i" horiz-adv-x="339" d="M43 -4l8 20h10q33 2 46.5 18t13.5 58v713q0 42 -13.5 57t-46.5 17h-10l-8 20h12q13 0 42.5 -1t31.5 -1h84q3 0 33.5 1t40.5 1h12l-8 -20h-10q-36 -2 -49 -17t-13 -57v-713q0 -42 13.5 -58t48.5 -18h10l8 -20h-12q-10 0 -40.5 2t-33.5 2h-84q-2 0 -31.5 -2t-42.5 -2h-12z " />
<glyph unicode="j" horiz-adv-x="333" d="M43 899h10q13 0 42.5 -1t31.5 -1h80q3 0 33.5 1t40.5 1h12l-8 -20h-13q-33 -2 -46 -17t-13 -57v-1088l-92 -159v1247q0 42 -13 57t-49 17h-10z" />
<glyph unicode="k" horiz-adv-x="831" d="M43 -4l6 20h10q36 2 49 17t13 57v713q0 42 -13.5 58t-48.5 18h-10l-6 20h10q13 0 42.5 -2t31.5 -2h80q3 0 33.5 2t40.5 2h12l-8 -20h-13q-33 -2 -46 -18t-13 -58v-211l231 207q35 35 35 53q0 12 -16 41l-8 6l10 21l8 -9l47 -59l43 -49q24 -20 55 -51l9 -13l-23 -6l-6 8 q-26 23 -43 23q-15 0 -51 -31l-256 -231l407 -412q53 -50 69 -61.5t44 -12.5q3 -3 10 0l13 -20h-17q-3 0 -32 1t-42 1q-5 0 -15.5 -0.5t-30 -1.5t-36.5 -2l-405 403v-307q0 -42 13 -57t46 -17h13l8 -20h-12q-10 0 -40.5 1t-33.5 1h-80q-2 0 -31.5 -1t-42.5 -1h-10z" />
<glyph unicode="l" horiz-adv-x="667" d="M43 903h10q13 0 42.5 -2t31.5 -2h80q3 0 33.5 2t40.5 2h12l-8 -20h-13q-34 -5 -46.5 -20t-12.5 -56v-709h317q42 0 57 12.5t17 45.5v10l23 10v-14q0 -8 -1 -37.5t-1 -36.5v-76q0 -4 1 -34t1 -39v-13l-23 6v13q-2 33 -17 45t-57 12h-323l-86 -86v891q0 42 -13 56.5 t-49 19.5h-10z" />
<glyph unicode="m" horiz-adv-x="1128" d="M43 -4l8 20h10q33 2 46.5 18t13.5 58v713q0 42 -13.5 57t-46.5 17h-10l-8 20h12q13 0 42.5 -1t31.5 -1h387q-1 35 -12.5 47t-42.5 14h-12l-11 21h17q10 0 38.5 -1t32.5 -1h76q4 0 35.5 1t40.5 1h12l-8 -21h-10q-33 -2 -46 -14t-14 -47h387q8 0 37.5 1t36.5 1h12l-8 -20 h-10q-32 -2 -43.5 -16.5t-11.5 -57.5v-713q0 -43 11.5 -59t43.5 -17h10l8 -20h-12q-7 0 -36.5 2t-37.5 2h-73q-4 0 -35 -2t-39 -2h-14l8 20h10q35 1 46 16.5t11 59.5v709h-301v-709q0 -43 12.5 -59t47.5 -17h10l8 -20h-12q-9 0 -40.5 2t-35.5 2h-76q-4 0 -32.5 -2t-38.5 -2 h-17l11 20h12q34 1 44.5 16.5t10.5 59.5v709h-301v-709q0 -42 13 -58t44 -18h15l8 -20h-14q-10 0 -40 2t-34 2h-78q-2 0 -31.5 -2t-42.5 -2h-12z" />
<glyph unicode="n" horiz-adv-x="1036" d="M86 -4l8 20h10q35 1 47.5 17t12.5 59v713q0 43 -12.5 57.5t-47.5 16.5h-10l-8 20h12q10 0 40 -1t34 -1h78q4 0 34.5 1t39.5 1h12l-8 -20h-11q-35 -2 -47 -16.5t-12 -57.5v-12l520 -551v563q0 43 -12 57.5t-47 16.5h-10l-9 20h13q10 0 39.5 -1t33.5 -1h78q4 0 34.5 1 t39.5 1h12l-8 -20h-10q-35 -2 -47.5 -16.5t-12.5 -57.5v-713q0 -43 12.5 -59t47.5 -17h10l8 -20h-12q-9 0 -39.5 2t-34.5 2h-78q-4 0 -33.5 -2t-39.5 -2h-13l9 20h10q35 1 47 17t12 59v8l-520 553v-561q0 -43 12 -59t47 -17h11l8 -20h-12q-9 0 -39.5 2t-34.5 2h-78 q-4 0 -34 -2t-40 -2h-12z" />
<glyph unicode="o" horiz-adv-x="1028" d="M43 440q0 197 137 334q139 139 332 139q197 0 336 -139q137 -137 137 -334t-137 -334t-336 -137q-195 0 -332 137t-137 334zM137 399q18 -128 111 -225q96 -93 223 -108v333h-334zM137 483h334v332q-128 -13 -221.5 -107t-112.5 -225zM555 66q127 15 223 108 q96 96 111 225h-334v-333zM555 483h334q-13 130 -108 224t-226 108v-332z" />
<glyph unicode="p" horiz-adv-x="622" d="M43 -4l6 20h10q35 2 48.5 18t13.5 58v713q0 42 -13 57t-49 17h-10l-6 20h10q13 0 42.5 -1t31.5 -1h213q113 0 197 -78t84 -188q0 -113 -84 -197q-82 -82 -197 -82h-127v-260q0 -42 13 -58t46 -18h13l8 -20h-12q-10 0 -40.5 2t-33.5 2h-80q-2 0 -31.5 -2t-42.5 -2h-10z M213 438h121q81 0 132.5 55t51.5 136q0 79 -51.5 130.5t-132.5 51.5h-121v-373z" />
<glyph unicode="q" horiz-adv-x="1028" d="M43 436q0 197 137 334q139 139 332 139q197 0 336 -139q137 -137 137 -334q0 -182 -123 -317q-125 -134 -301 -152v-78q0 -41 13 -55.5t47 -19.5h10l8 -21h-12q-10 0 -40 2t-34 2h-78q-3 0 -33.5 -2t-40.5 -2h-12l6 21h15q32 5 44.5 19.5t12.5 55.5v78q-178 18 -303 152 q-121 136 -121 317zM137 436q0 -143 94 -250q93 -106 236 -125v220q0 41 -12 54.5t-45 18.5h-15l-6 21h12q10 0 40.5 -1t33.5 -1h78q4 0 34 1t40 1h12l-8 -21h-10q-34 -5 -47 -18.5t-13 -54.5v-220q143 19 236 125q96 110 96 250q0 156 -113 266q-110 113 -268 113 q-154 0 -264 -113q-111 -111 -111 -266z" />
<glyph unicode="r" horiz-adv-x="913" d="M43 -4l6 20h10q36 2 49 17t13 57v713q0 42 -13.5 58t-48.5 18h-10l-6 20h10q13 0 42.5 -2t31.5 -2h213q112 0 186 -68t74 -176q0 -81 -48 -149t-128 -94l315 -318q55 -51 71 -62t44 -12q3 -3 8 0l8 -20h-12q-3 0 -32 1t-42 1q-5 0 -16 -0.5t-31 -1.5t-37 -2l-401 401h-86 v-305q0 -42 13 -57t46 -17h13l8 -20h-12q-10 0 -40.5 1t-33.5 1h-80q-2 0 -31.5 -1t-42.5 -1h-10zM213 481h121q75 0 124.5 48t49.5 120q0 70 -48 116t-126 46h-121v-330z" />
<glyph unicode="s" horiz-adv-x="643" d="M43 176l127 55l6 -14q-33 -20 -33 -43q0 -31 43 -68q54 -45 127 -45q85 0 140 49t55 119q0 85 -133 156l-144 78q-87 49 -122 102q-29 50 -29 113q0 97 71 160t173 63q172 0 245 -149l-102 -93l-12 19q22 25 22 43q0 35 -45 64.5t-100 29.5q-79 0 -119 -43 q-41 -38 -41 -94q0 -74 117 -135l166 -88q145 -80 145 -226q0 -113 -86 -184q-87 -72 -205 -72q-122 0 -200 84q-57 61 -66 119z" />
<glyph unicode="t" horiz-adv-x="985" d="M43 322v14q0 10 1 40t1 34v75q0 7 -1 36.5t-1 37.5v14l23 -8v-12q2 -33 15.5 -45t55.5 -12h307v309q0 43 -11 58t-46 16h-8l-10 20h14q9 0 39.5 -1t34.5 -1h73q7 0 37 1t37 1h14l-8 -20h-12q-35 -1 -45 -15.5t-10 -58.5v-309h307q41 0 55.5 11.5t20.5 45.5v12l16 8v-14 q0 -8 -1 -37.5t-1 -36.5v-75q0 -4 1 -34t1 -40v-14l-16 10v10q-6 34 -20.5 45.5t-55.5 11.5h-307v-307q0 -44 10.5 -59.5t44.5 -16.5h12l8 -20h-14q-7 0 -37 2t-37 2h-73q-4 0 -34.5 -2t-39.5 -2h-14l10 20h8q35 1 46 16.5t11 59.5v307h-307q-42 0 -55.5 -12t-15.5 -45v-10z " />
<glyph unicode="u" horiz-adv-x="1181" d="M43 893h10q13 0 42.5 -2t31.5 -2h78q4 0 34 2t40 2h14l-10 -21h-13q-33 -2 -45 -17.5t-12 -57.5v-357q0 -152 111 -266q111 -111 268 -111q155 0 266 111q111 114 111 266v357q0 42 -13.5 57.5t-46.5 17.5h-10l-8 21h12q13 0 43 -2t33 -2h76q4 0 33 2t38 2h15l-8 -21h-13 q-35 -1 -46 -16.5t-11 -58.5v-357q0 -195 -139 -334q-137 -137 -332 -137q-197 0 -334 137t-137 334v357q0 42 -13 57.5t-49 17.5h-10z" />
<glyph unicode="v" horiz-adv-x="1183" d="M43 899h12q13 0 42.5 -1t31.5 -1h78q3 0 33 1t39 1h14l-6 -20h-15q-36 -3 -36 -25q0 -16 20 -49l338 -649l338 649q16 37 16 49q0 22 -37 25h-12l-6 20h12q9 0 40.5 -1t35.5 -1h74q7 0 35 1t36 1h17l-8 -20h-15q-30 -1 -46 -16t-40 -58l-440 -852l-444 852q-24 43 -41 58 t-48 16h-10z" />
<glyph unicode="w" horiz-adv-x="1583" d="M43 899h14q10 0 40 -1t34 -1h76q7 0 36.5 1t37.5 1h14l-8 -20h-13q-36 -3 -36 -25q0 -14 18 -49l338 -649l145 280l-190 369q-38 68 -88 74h-10l-9 20h13q10 0 39.5 -1t33.5 -1h78q4 0 34.5 1t39.5 1h12l-10 -20h-8q-37 -3 -37 -25q0 -14 18 -49l138 -268l139 268 q18 30 18 49q0 22 -37 25h-12l-8 20h14q9 0 39.5 -1t34.5 -1h76q7 0 36 1t37 1h13l-8 -20h-11q-50 -6 -88 -74l-190 -369l145 -280l340 649q17 39 17 49q0 22 -37 25h-11l-10 20h15q10 0 39.5 -1t33.5 -1h76q7 0 36.5 1t37.5 1h14l-8 -20h-12q-48 -6 -86 -74l-445 -852 l-198 381l-199 -381l-442 852q-38 68 -89 74h-10z" />
<glyph unicode="x" horiz-adv-x="1095" d="M43 100l23 9q0 -3 6 -9q20 -20 41 -20q18 0 51 33l315 317l-315 315q-33 33 -51 33q-21 0 -41 -20l-6 -8l-23 8l8 10l58 49l53 55l49 54l6 10l10 -21l-8 -8q-18 -24 -18 -41q0 -18 30 -53l320 -315l311 315q33 33 33 53q0 17 -18 41q-7 7 -9 8l11 21l10 -10 q13 -18 49 -54l53 -55q24 -17 56 -49l8 -10l-21 -8l-8 8q-26 20 -41 20q-18 0 -51 -33l-316 -315l316 -317q33 -33 51 -33q15 0 41 20l3 4q3 4 5 5l21 -9l-8 -10l-56 -49l-53 -53l-49 -56l-10 -10l-11 23q3 0 9 6q18 24 18 41q0 20 -33 53l-311 315l-320 -315 q-30 -35 -30 -51q0 -19 18 -43l8 -6l-10 -23l-6 10l-49 56l-53 53q-21 15 -58 49z" />
<glyph unicode="y" horiz-adv-x="1026" d="M43 807l10 8l62 41l67 47q49 37 60 43l10 8l4 -22l-8 -6q-27 -21 -28.5 -40t22.5 -55l272 -387l270 387q26 36 24.5 55t-28.5 40l-8 6l2 22l12 -8q7 -4 19.5 -13.5t26 -20t14.5 -11.5l67 -47l62 -41l10 -6l-18 -12l-9 6q-30 19 -48 14t-44 -41l-522 -745 q-24 -37 -23.5 -56.5t27.5 -42.5l10 -4l-6 -22l-10 8l-57 45l-68 47l-61 39l-13 8l21 10l8 -6q29 -18 47 -11.5t43 42.5l191 270l-293 418q-24 36 -43 41.5t-45 -12.5l-11 -6z" />
<glyph unicode="z" horiz-adv-x="776" d="M43 723v14q0 9 1 39.5t1 34.5v76q0 7 -1 36.5t-1 37.5v12l23 -8v-11q2 -33 15.5 -45t55.5 -12h588l-502 -803h414q43 0 59 12.5t17 47.5v10l20 8v-12q0 -9 -3 -39.5t-3 -34.5v-78q0 -4 3 -34.5t3 -39.5v-12l-20 8v11q-1 35 -17 47t-59 12h-592l506 801h-414 q-41 0 -55 -12.5t-16 -45.5v-12z" />
<glyph unicode="{" horiz-adv-x="1032" d="M213 596l227 229v574h375v-60h-260v-530l-213 -213l213 -213v-543h260v-61h-375v588z" />
<glyph unicode="|" horiz-adv-x="630" d="M266 -373v1803l45 45l45 -45v-1803l-45 -47z" />
<glyph unicode="}" horiz-adv-x="1032" d="M215 -160h260v543l213 213l-213 213v530h-260v60h375v-574l229 -229l-229 -229v-588h-375v61z" />
<glyph unicode="~" horiz-adv-x="978" d="M266 535q0 62 43.5 105.5t104.5 43.5q70 0 118 -57q28 -31 60 -31q31 0 53.5 23.5t22.5 54.5h73q0 -62 -44 -106t-105 -44q-73 0 -121 60q-20 26 -57 26q-31 0 -53.5 -22t-22.5 -53h-72z" />
<glyph unicode="&#xa2;" horiz-adv-x="1146" d="M229 561q0 174 123 297q125 125 299 125q37 0 47 -2l60 215h96l-66 -233q55 -20 113 -58l-4 -125q0 -3 2 -25t2 -32v-10h-27q-21 92 -118 127l-162 -574q44 -8 74 -8q173 0 200 145h29v-10q0 -22 -2 -45v-41l6 -94q-113 -76 -250 -76q-38 0 -90 10l-61 -217h-97l70 246 q-111 54 -177.5 158t-66.5 227zM371 561q0 -173 139 -256l158 557q-121 0 -209 -88t-88 -213z" />
<glyph unicode="&#xa3;" horiz-adv-x="1179" d="M297 -86q0 13 1 52.5t1 45.5v103q0 7 -1 46.5t-1 51.5v18l27 -12v-14q6 -43 20 -58.5t55 -19.5v444q-41 -1 -55 -16.5t-20 -58.5v-17l-27 -10v18q0 14 1 53.5t1 45.5v100q0 7 -1 46.5t-1 51.5v19l27 -12v-15q6 -44 20 -59.5t55 -16.5v160q0 162 117 270q111 97 238 97 q141 0 272 -107v-96q0 -2 3 -37t3 -53v-16h-33q-12 67 -69 118q-74 62 -176 62q-81 0 -156 -72q-72 -72 -72 -166v-160h164q58 0 76.5 15t24.5 61v15l26 12v-19q0 -12 -2 -51.5t-2 -46.5v-100q0 -6 2 -45.5t2 -53.5v-18l-26 10v17q-6 46 -24.5 60.5t-76.5 14.5h-164v-444 h385q59 0 78.5 16t24.5 62v14l26 12v-18q0 -12 -3 -51.5t-3 -46.5v-103q0 -6 3 -45.5t3 -52.5v-16l-26 10v14q-5 46 -24.5 62t-78.5 16h-487q-55 0 -74.5 -16t-25.5 -62v-14l-27 -10v16z" />
<glyph unicode="&#xa5;" horiz-adv-x="1605" d="M121 1036l12 15q9 9 39.5 35t34.5 30l72 72q7 7 63 72l12 14l15 -29l-13 -10q-24 -35 -24 -55q0 -27 43 -70l422 -420l420 420q43 43 43 72q0 18 -27 53l-8 10l10 29l12 -14q41 -41 68 -72l69 -72q56 -49 72 -65l12 -15l-24 -10l-10 10q-34 27 -58 27t-67 -43l-451 -451 v-51h266v-98h-266v-98h266v-99h-266v-100q0 -55 17 -75t63 -25h12l13 -27h-19q-10 0 -50 2t-46 2h-105q-5 0 -44 -2t-54 -2h-16l10 27h14q45 5 61.5 24.5t16.5 75.5v100h-262v99h262v98h-262v98h262v51l-448 451q-43 43 -70 43q-19 0 -53 -27l-10 -10z" />
<glyph unicode="&#xa8;" horiz-adv-x="563" d="M43 1495l88 90l92 -90l-92 -90zM342 1495l88 90l92 -90l-92 -90z" />
<glyph unicode="&#xa9;" horiz-adv-x="1716" d="M229 598q0 259 185 444t444 185q263 0 445 -185q184 -181 184 -444q0 -260 -184 -444q-182 -185 -445 -185q-259 0 -444 185t-185 444zM313 598q0 -220 160 -385q165 -160 385 -160q225 0 385 160q162 162 162 385q0 225 -162 383q-158 162 -385 162q-223 0 -385 -162 q-160 -160 -160 -383zM537 598q0 151 106 254q106 106 254 106q90 0 188 -61v-66l1 -5q1 -6 2 -17t2 -25v-22h-27q-6 43 -31 59q-62 39 -135 39q-108 0 -186 -78q-76 -76 -76 -184t76 -184t186 -76q70 0 141 45q19 19 25 57h22v-22q0 -17 -2 -29v-20l2 -64 q-100 -65 -188 -65q-147 0 -254 104q-106 106 -106 254z" />
<glyph unicode="&#xab;" horiz-adv-x="1146" d="M246 598l225 229q43 43 43 72q0 19 -27 53l-10 11l15 26l12 -10q4 -5 30.5 -36.5t32.5 -37.5l64 -61l-246 -246l246 -244l-64 -61q-6 -6 -32.5 -37.5t-30.5 -36.5l-12 -12l-15 26l10 13q27 34 27 53q0 29 -43 72zM504 598l227 229q43 43 43 70q0 21 -24 55q-9 3 -13 11 l13 26l12 -10q21 -27 65 -74l54 -53l71 -66l15 -12l-29 -12l-8 12q-39 25 -60 25q-26 0 -67 -41l-160 -160l160 -158q43 -43 67 -43q26 0 60 27q4 8 8 12l29 -14l-15 -10l-71 -68l-54 -51l-65 -74l-12 -12l-13 26l13 13q24 35 24 55q0 27 -43 70z" />
<glyph unicode="&#xad;" horiz-adv-x="657" d="M55 281v18q0 14 2 52t2 44v103q0 7 -2 46.5t-2 51.5v18l29 -12v-14q5 -45 23.5 -60.5t74.5 -15.5h291q58 0 76.5 15t23.5 61v14l29 12v-18q0 -12 -3 -51.5t-3 -46.5v-103q0 -6 3 -44t3 -52v-18l-29 12v12q-5 46 -23.5 62t-76.5 16h-291q-55 0 -74 -16t-24 -62v-12z" />
<glyph unicode="&#xae;" horiz-adv-x="1716" d="M229 598q0 259 185 444t444 185q263 0 445 -185q184 -181 184 -444q0 -260 -184 -444q-182 -185 -445 -185q-259 0 -444 185t-185 444zM313 598q0 -220 160 -385q165 -160 385 -160q225 0 385 160q162 162 162 385q0 225 -162 383q-158 162 -385 162q-223 0 -385 -162 q-160 -160 -160 -383zM614 950h29h29q14 -2 26 -2h154q89 0 148 -54t59 -138q0 -132 -121 -185l236 -233q54 -50 92 -59l12 -19h-29q-5 0 -25 2t-28 2q-3 0 -13 -0.5t-29.5 -1.5t-39.5 -2l-297 295h-43v-227q0 -38 31 -41h18l13 -27h-29q-5 0 -27 2t-26 2h-56q-3 0 -25 -2 t-30 -2h-27l17 27h14q31 3 31 41v555q0 40 -31 43h-14zM774 643h74q50 0 82.5 32.5t32.5 80.5q0 104 -115 104h-74v-217z" />
<glyph unicode="&#xb4;" horiz-adv-x="978" d="M348 987l182 191h175l-267 -191h-90z" />
<glyph unicode="&#xb8;" horiz-adv-x="681" d="M186 -340q36 -4 50 -4q50 0 85 33.5t35 77.5q0 29 -24 51t-56 22q-16 0 -26 -2l110 178h62l-51 -79q125 -34 125 -146q0 -74 -60.5 -127t-154.5 -53q-37 0 -95 6v43z" />
<glyph unicode="&#xbb;" horiz-adv-x="1146" d="M180 422l29 14q6 -6 8 -12q35 -27 57 -27q27 0 70 43l158 158l-158 160q-41 41 -70 41q-18 0 -57 -25q-4 -8 -8 -12l-29 12l13 12l73 66l51 53l68 74l12 10l11 -26l-11 -11q-26 -33 -26 -55q0 -27 43 -70l229 -229l-229 -227q-43 -43 -43 -70q0 -22 26 -55q8 -4 11 -13 l-11 -26l-12 12l-68 74l-51 51q-48 48 -73 68zM516 354l244 244l-244 246l62 61q3 3 29 33.5t36 40.5l12 10l13 -26l-11 -11q-26 -33 -26 -53q0 -29 43 -72l227 -229l-227 -227q-43 -43 -43 -72q0 -20 26 -53l11 -13l-13 -26l-12 12l-65 74z" />
<glyph unicode="&#x2c6;" horiz-adv-x="681" d="M59 1055l191 329h182l191 -329h-31l-273 213l-229 -213h-31z" />
<glyph unicode="&#x2da;" horiz-adv-x="681" d="M150 1233q0 80 55.5 135t136.5 55q80 0 135 -55.5t55 -134.5q0 -80 -55.5 -136.5t-134.5 -56.5t-135.5 56.5t-56.5 136.5zM219 1233q0 -50 36 -86.5t87 -36.5q49 0 85 36.5t36 86.5q0 51 -35.5 87t-85.5 36q-51 0 -87 -36t-36 -87z" />
<glyph unicode="&#x2dc;" horiz-adv-x="681" d="M23 1098q4 131 54.5 194.5t133.5 63.5q37 0 74 -13q44 -17 127 -73q83 -53 123 -53q36 0 59.5 30t36.5 109h31q0 -127 -55 -194.5t-136 -67.5q-79 0 -197 80q-57 40 -80.5 50.5t-46.5 10.5q-41 0 -65 -37q-11 -19 -29 -100h-30z" />
<glyph unicode="&#x400;" horiz-adv-x="1251" d="M43 469v18q0 14 1 53.5t1 45.5v100q0 7 -1 46.5t-1 51.5v19l27 -12v-15q6 -44 20 -59.5t55 -16.5v496h512q59 0 78.5 16t24.5 62v14l26 10v-16q0 -12 -3 -51.5t-3 -46.5v-103q0 -6 3 -45t3 -53v-18l-26 12v14q-5 46 -24.5 62t-78.5 16h-385v-369h377q58 0 76.5 15 t24.5 61v15l26 12v-19q0 -12 -2 -51.5t-2 -46.5v-100q0 -6 2 -45.5t2 -53.5v-18l-26 10v17q-6 46 -24.5 60.5t-76.5 14.5h-377v-444h385q59 0 78.5 16t24.5 62v14l26 12v-18q0 -12 -3 -51.5t-3 -46.5v-103q0 -6 3 -45.5t3 -52.5v-16l-26 10v14q-5 46 -24.5 62t-78.5 16h-397 l-115 -115v686q-41 -1 -55 -16.5t-20 -58.5v-17zM156 1585h174l182 -190h-92z" />
<glyph unicode="&#x401;" horiz-adv-x="1251" d="M43 469v18q0 14 1 53.5t1 45.5v100q0 7 -1 46.5t-1 51.5v19l27 -12v-15q6 -44 20 -59.5t55 -16.5v496h512q59 0 78.5 16t24.5 62v14l26 10v-16q0 -12 -3 -51.5t-3 -46.5v-103q0 -6 3 -45t3 -53v-18l-26 12v14q-5 46 -24.5 62t-78.5 16h-385v-369h377q58 0 76.5 15 t24.5 61v15l26 12v-19q0 -12 -2 -51.5t-2 -46.5v-100q0 -6 2 -45.5t2 -53.5v-18l-26 10v17q-6 46 -24.5 60.5t-76.5 14.5h-377v-444h385q59 0 78.5 16t24.5 62v14l26 12v-18q0 -12 -3 -51.5t-3 -46.5v-103q0 -6 3 -45.5t3 -52.5v-16l-26 10v14q-5 46 -24.5 62t-78.5 16h-397 l-115 -115v686q-41 -1 -55 -16.5t-20 -58.5v-17zM205 1382l88 91l92 -91l-92 -90zM504 1382l88 91l92 -91l-92 -90z" />
<glyph unicode="&#x402;" horiz-adv-x="1540" d="M55 1059l11 297h1030l10 -297h-37q-9 77 -45 129q-35 50 -84 65q-52 19 -166 19h-104v-539q188 209 399 209q185 0 289 -143q106 -138 106 -357q0 -203 -100 -329q-99 -129 -248 -129q-81 0 -158 47l23 30q61 -22 106 -22q150 0 150 338q0 230 -64 330t-188 100 q-184 0 -315 -186v-369q0 -123 16 -152q20 -30 52 -44.5t116 -18.5v-37h-573v37q94 3 129 20q37 16 53 49q14 28 14 146v1020h-100q-167 0 -219 -55q-52 -52 -70 -158h-33z" />
<glyph unicode="&#x403;" horiz-adv-x="1183" d="M39 -438v1634h512q58 0 76.5 16t23.5 62v14l29 10v-16q0 -12 -3 -51.5t-3 -46.5v-103q0 -6 3 -45t3 -53v-18l-29 12v14q-5 46 -23.5 62t-76.5 16h-385v-1380zM231 1434l183 190h174l-266 -190h-91z" />
<glyph unicode="&#x404;" horiz-adv-x="1069" d="M43 598q0 260 184 444q185 185 445 185q198 0 350 -107v-96q0 -2 2 -37t2 -53v-16h-31q-12 67 -63 106q-130 74 -260 74q-204 0 -353 -146q-124 -124 -145 -286h309q56 0 76 16t25 61v15l26 10v-16q0 -12 -2 -52t-2 -47v-108q0 -6 2 -45.5t2 -53.5v-18l-26 12v15 q-5 45 -25 60t-76 15h-309q20 -159 145 -284q148 -148 353 -148q135 0 274 86q43 49 51 103h25v-17q0 -15 -3 -50t-3 -40l6 -104q-155 -107 -350 -107q-260 0 -445 185q-184 184 -184 444z" />
<glyph unicode="&#x405;" horiz-adv-x="1138" d="M129 244l168 73l10 -20q-43 -27 -43 -55q0 -39 60 -90q68 -62 168 -62q111 0 183.5 65t72.5 160q0 112 -179 207l-186 103q-120 65 -168 137q-39 59 -39 151q0 129 96 213q101 84 230 84q228 0 332 -198l-142 -125l-14 26q33 29 33 58q0 43 -62 84q-59 41 -137 41 q-102 0 -160 -58q-51 -48 -51 -125q0 -97 156 -180l221 -119q196 -108 196 -301q0 -151 -116 -245q-115 -95 -275 -95q-163 0 -270 113q-69 75 -84 158z" />
<glyph unicode="&#x406;" horiz-adv-x="681" d="M51 -4l10 27h17q45 5 59.5 24t14.5 76v950q0 57 -15 76.5t-59 24.5h-17l-10 26h17q15 0 54 -2t46 -2h106q8 0 48 2t53 2h16l-10 -26h-16q-45 -5 -60.5 -25t-15.5 -76v-950q0 -56 15.5 -75.5t60.5 -24.5h16l10 -27h-16q-13 0 -53 2t-48 2h-106q-7 0 -46 -2t-54 -2h-17z " />
<glyph unicode="&#x407;" horiz-adv-x="681" d="M184 1401l88 90l93 -90l-93 -90zM250 -4l10 27h16q45 5 59.5 24t14.5 76v950q0 57 -15 76.5t-59 24.5h-16l-10 26h16q15 0 54.5 -2t46.5 -2h106q8 0 47.5 2t52.5 2h17l-10 -26h-17q-45 -5 -60.5 -25t-15.5 -76v-950q0 -56 15.5 -75.5t60.5 -24.5h17l10 -27h-17 q-13 0 -52.5 2t-47.5 2h-106q-7 0 -46.5 -2t-54.5 -2h-16zM483 1401l88 90l93 -90l-93 -90z" />
<glyph unicode="&#x408;" horiz-adv-x="796" d="M43 1200h14q15 0 54.5 -2t46.5 -2h100q8 0 48.5 2t49.5 2h21l-12 -26h-17q-45 -5 -61.5 -25t-16.5 -76v-1302l-127 -213v1515q0 56 -15 76t-60 25h-17z" />
<glyph unicode="&#x409;" horiz-adv-x="1785" d="M12 104q0 37 27 65t63 28q28 0 70 -31q44 -33 82 -33q89 0 141 143q56 145 56 549v285q0 133 -35 168q-35 38 -160 41v37h1051v-37q-79 0 -125 -19q-42 -15 -58 -51q-14 -32 -14 -145v-377h80q202 0 305 -35q99 -35 160 -122t61 -193q0 -112 -67 -203q-65 -89 -174 -133 q-109 -41 -318 -41h-430v37q87 3 125 18q37 16 53 49q15 30 15 148v1030h-381v-381q0 -573 -99 -745t-272 -172q-72 0 -114 35t-42 85zM1110 76q47 -8 86 -8q127 0 209 82q84 84 84 212q0 134 -86.5 212.5t-247.5 78.5h-45v-577z" />
<glyph unicode="&#x40a;" horiz-adv-x="1785" d="M39 0v37h41q56 0 92 20q40 21 49 52q12 35 12 131v876q0 96 -12 131q-25 72 -151 72h-31v37h582v-37h-31q-75 0 -105 -21q-28 -17 -45 -47q-14 -25 -14 -135v-389h494v377q0 110 -15 145q-25 67 -176 70v37h578v-37q-49 -3 -78 -7t-53.5 -14t-35.5 -22t-19 -38.5 t-9.5 -55t-1.5 -78.5v-377h80q205 0 305 -35t161.5 -122t61.5 -193q0 -122 -76 -213q-75 -91 -180 -127q-107 -37 -305 -37h-430v37q87 3 125 18q37 16 53 49q15 30 15 148v401h-494v-413q0 -123 31.5 -163t132.5 -40h31v-37h-582zM1110 76q49 -8 86 -8q127 0 209 82 q86 83 86 212q0 133 -87.5 212t-248.5 79h-45v-577z" />
<glyph unicode="&#x40b;" horiz-adv-x="1517" d="M53 1059l10 297h1033l8 -297h-35q-9 77 -45 129q-35 50 -84 65q-52 19 -168 19h-104v-543q183 213 376 213q107 0 175 -51q76 -54 90 -127q18 -76 18 -297v-215q0 -118 14 -146q14 -31 48.5 -47t103.5 -22v-37h-524v37q113 9 139 45q29 44 29 170v215q0 133 -13 203 q-11 66 -53 102.5t-108 36.5q-142 0 -295 -191v-366q0 -123 16 -152q20 -30 53.5 -44.5t114.5 -18.5v-37h-571v37q91 3 129 20t51 49q14 28 14 146v1020h-98q-167 0 -219 -55q-52 -52 -70 -158h-35z" />
<glyph unicode="&#x40c;" horiz-adv-x="1366" d="M39 -4l10 27h14q45 5 61.5 24.5t16.5 75.5v950q0 56 -16.5 76t-61.5 25h-14l-10 26h16q14 0 53.5 -2t45.5 -2h100q8 0 48 2t52 2h19l-13 -26h-16q-45 -5 -60.5 -25t-15.5 -76v-282l307 276q48 45 48 70q0 21 -27 55l-8 8l12 29l14 -12l64 -78l57 -68q21 -18 70 -67 l12 -17l-29 -8l-10 10q-31 31 -55 31q-23 0 -70 -41l-342 -309l545 -547q63 -63 90 -80q28 -17 62 -20q6 -3 14 0l12 -27h-18q-7 0 -45.5 2t-52.5 2q-26 0 -111 -6l-539 536v-407q0 -56 15.5 -75.5t60.5 -24.5h16l13 -27h-19q-12 0 -52 2t-48 2h-100q-6 0 -45.5 -2t-53.5 -2 h-16zM498 1395l182 190h174l-266 -190h-90z" />
<glyph unicode="&#x40d;" d="M39 -4l10 27h14q45 5 61.5 24.5t16.5 75.5v950q0 56 -16.5 76t-61.5 25h-14l-10 26h16q14 0 53.5 -2t45.5 -2h100q8 0 48 2t52 2h19l-13 -26h-16q-45 -5 -60.5 -25t-15.5 -76v-749l693 737v12q0 56 -16.5 76t-61.5 25h-15l-12 26h18q14 0 53.5 -2t45.5 -2h102q7 0 46 2 t53 2h18l-12 -26h-15q-45 -5 -61.5 -25t-16.5 -76v-950q0 -56 16.5 -75.5t61.5 -24.5h15l12 -27h-18q-14 0 -53 2t-46 2h-102q-6 0 -45.5 -2t-53.5 -2h-18l12 27h15q45 5 61.5 24.5t16.5 75.5v749l-693 -733v-16q0 -56 15.5 -75.5t60.5 -24.5h16l13 -27h-19q-12 0 -52 2 t-48 2h-100q-6 0 -45.5 -2t-53.5 -2h-16zM293 1585h174l182 -190h-92z" />
<glyph unicode="&#x40e;" horiz-adv-x="1449" d="M27 1319v37h548v-37q-145 -6 -145 -78q0 -48 109 -237l295 -521l217 521q67 162 67 219q0 78 -127 96v37h426v-37q-151 -18 -227 -205l-260 -614q-106 -246 -164 -338q-122 -193 -293 -193q-69 0 -116.5 30.5t-47.5 80.5q0 37 26 61.5t68 24.5t101 -35q39 -20 57 -20 q79 0 178 163l-491 865q-54 93 -100 130.5t-121 49.5zM362 1716q0 36 23 62t55 26q33 0 57 -26t66 -111q58 -125 185 -125q123 0 184 125q43 87 65.5 112t59.5 25q29 0 51 -26.5t22 -61.5q0 -96 -97.5 -156.5t-284.5 -60.5q-192 0 -289 60.5t-97 156.5z" />
<glyph unicode="&#x40f;" d="M37 0v37q126 3 162 39q34 37 34 170v864q0 134 -34 168q-35 38 -162 41v37h584v-37q-125 -3 -160 -41q-35 -35 -35 -168v-864q0 -107 4 -135q3 -15 10.5 -22t34 -11t82.5 -4h354q118 0 131 16q13 20 13 156v864q0 133 -35 168q-35 38 -162 41v37h584v-37 q-124 -3 -162 -41q-35 -35 -35 -168v-864q0 -132 35 -170q39 -36 162 -39v-37h-357q-79 0 -137.5 -21t-93.5 -55t-56.5 -86.5t-30 -105.5t-9.5 -121h-37q-1 211 -84 300t-264 89h-336z" />
<glyph unicode="&#x410;" horiz-adv-x="1458" d="M41 33l20 20l15 -8q24 -8 43 -8q40 0 67 67l537 1158l532 -1158q30 -67 70 -67q19 0 43 8l12 8l25 -20l-16 -8q-32 -11 -95 -37l-90 -43q-60 -33 -88 -47l-14 -9l-2 33l12 6q45 26 45 58q0 19 -16 65l-90 203h-658l-90 -203q-16 -46 -16 -65q0 -32 45 -58l12 -6l-2 -33 l-14 9q-4 2 -35 19t-53 28l-90 43q-23 7 -95 37zM442 365h557l-276 626z" />
<glyph unicode="&#x411;" horiz-adv-x="864" d="M41 -4l10 27h15q45 5 61 24.5t16 75.5v950q0 56 -16 76t-61 25h-15l-10 26h16q14 0 53.5 -2t45.5 -2h522q48 0 64.5 14t21.5 52v12l22 8v-12q0 -10 -2 -44t-2 -40v-92q0 -4 2 -38t2 -44v-17l-22 11v12q-5 39 -21 51t-65 12h-408v-360q206 21 344 -33q89 -44 138 -121 q59 -89 59 -202q0 -155 -106 -261q-107 -104 -265 -104h-284q-6 0 -45.5 -2t-53.5 -2h-16zM270 121h162q107 0 176 69q72 72 72 175q0 101 -71.5 172t-176.5 71h-162v-487z" />
<glyph unicode="&#x412;" horiz-adv-x="864" d="M41 -4l10 27h15q45 5 61 24.5t16 75.5v950q0 56 -16 76t-61 25h-15l-10 26h16q14 0 53.5 -2t45.5 -2h114q37 0 64 2h61q154 0 247 -75t93 -203q0 -161 -121 -232q89 -44 138 -121q57 -86 57 -202q0 -154 -107 -261q-104 -104 -262 -104h-284q-6 0 -45.5 -2t-53.5 -2h-16z M270 121h162q107 0 176 69q72 72 72 175q0 101 -71.5 172t-176.5 71h-162v-487zM270 721h156q78 0 129 53t51 129t-51 129t-129 53h-156v-364z" />
<glyph unicode="&#x413;" horiz-adv-x="735" d="M41 -438v1634h512q58 0 76.5 16t23.5 62v14l29 10v-16q0 -12 -3 -51.5t-3 -46.5v-103q0 -6 3 -45t3 -53v-18l-29 12v14q-5 46 -23.5 62t-76.5 16h-385v-1380z" />
<glyph unicode="&#x414;" horiz-adv-x="1492" d="M41 -84q0 14 1 53t1 45v109q0 7 -1 46.5t-1 51.5v17l27 -11v-14q5 -45 24.5 -61.5t75.5 -16.5h51l518 1127l520 -1127h91q23 0 41 18.5t22 59.5v14l27 11v-17q0 -12 -2 -51.5t-2 -46.5v-109q0 -6 2 -45t2 -53v-18l-27 12v14q-5 45 -24.5 60.5t-75.5 15.5h-1143 q-56 0 -75.5 -15.5t-24.5 -60.5v-14l-27 -12v18zM362 135h760l-381 856z" />
<glyph unicode="&#x415;" horiz-adv-x="839" d="M41 469v18q0 14 1 53.5t1 45.5v100q0 7 -1 46.5t-1 51.5v19l27 -12v-15q6 -44 20 -59.5t55 -16.5v496h512q59 0 78.5 16t24.5 62v14l26 10v-16q0 -12 -3 -51.5t-3 -46.5v-103q0 -6 3 -45t3 -53v-18l-26 12v14q-5 46 -24.5 62t-78.5 16h-385v-369h377q58 0 76.5 15 t24.5 61v15l26 12v-19q0 -12 -2 -51.5t-2 -46.5v-100q0 -6 2 -45.5t2 -53.5v-18l-26 10v17q-6 46 -24.5 60.5t-76.5 14.5h-377v-444h385q59 0 78.5 16t24.5 62v14l26 12v-18q0 -12 -3 -51.5t-3 -46.5v-103q0 -6 3 -45.5t3 -52.5v-16l-26 10v14q-5 46 -24.5 62t-78.5 16h-397 l-115 -115v686q-41 -1 -55 -16.5t-20 -58.5v-17z" />
<glyph unicode="&#x416;" horiz-adv-x="1617" d="M41 121l27 10l10 -10q30 -33 56.5 -32.5t68.5 36.5l491 414l-491 411q-42 36 -67.5 37.5t-57.5 -29.5l-10 -12l-27 8l10 15l68 71l69 84q37 51 60 78l10 12l14 -24l-10 -10q-25 -38 -19.5 -63t48.5 -62l448 -377v395q0 56 -16 76t-61 25h-15l-10 26h16q14 0 53.5 -2 t45.5 -2h102q7 0 46.5 2t51.5 2h19l-13 -26h-14q-45 -5 -61.5 -25t-16.5 -76v-391l445 373q43 36 48.5 61.5t-20.5 63.5l-10 10l14 24l11 -12q42 -48 59 -78l70 -84l67 -71l13 -15l-29 -8l-10 12q-30 31 -56.5 29.5t-68.5 -37.5l-492 -411l492 -414q42 -36 68.5 -36.5 t58.5 32.5l8 10l29 -10l-13 -12l-65 -72l-70 -84q-4 -4 -15.5 -19.5t-25 -34t-18.5 -24.5l-13 -14l-14 26l10 13q27 37 21.5 60t-49.5 60l-445 375v-624l-127 -213v839l-448 -377q-43 -37 -49 -60t20 -60l10 -13l-14 -26l-10 14q-7 8 -20.5 24.5t-26.5 34t-15 19.5l-69 84 l-68 72z" />
<glyph unicode="&#x417;" horiz-adv-x="831" d="M41 987q28 42 43 60q39 51 82 79q97 72 223 72q160 0 275 -115q112 -112 112 -272q0 -122 -74 -225v-4q74 -103 74 -226q0 -162 -112 -274q-113 -113 -275 -113q-188 0 -303 146q0 4 -4 8l-21 29l-16 24l80 64q8 5 38 31t38 32l14 10l8 -28l-10 -9q-45 -42 -33 -73 q3 -7 10 -10l17 -21q76 -76 182 -76t182 76t76 184q-9 129 -90 201q-153 12 -204.5 24t0 23t204.5 21q93 72 90 186q0 106 -76 182q-78 78 -182 78q-69 0 -125 -33l-12 -8q-27 -17 -45 -35l-31 -34q-13 -31 33 -74l10 -8l-8 -29l-14 10q-8 6 -38.5 32.5t-37.5 31.5z" />
<glyph unicode="&#x418;" horiz-adv-x="1247" d="M41 -4l10 27h15q45 5 61 24.5t16 75.5v950q0 56 -16 76t-61 25h-15l-10 26h16q14 0 53.5 -2t45.5 -2h100q8 0 48 2t52 2h19l-13 -26h-16q-45 -5 -60.5 -25t-15.5 -76v-749l693 737v12q0 56 -16.5 76t-61.5 25h-15l-12 26h19q14 0 53 -2t45 -2h102q7 0 46 2t53 2h18 l-12 -26h-15q-45 -5 -61 -25t-16 -76v-950q0 -56 16 -75.5t61 -24.5h15l12 -27h-18q-14 0 -53 2t-46 2h-102q-6 0 -45 -2t-53 -2h-19l12 27h15q45 5 61.5 24.5t16.5 75.5v749l-693 -733v-16q0 -56 15.5 -75.5t60.5 -24.5h16l13 -27h-19q-12 0 -52 2t-48 2h-100 q-6 0 -45.5 -2t-53.5 -2h-16z" />
<glyph unicode="&#x419;" horiz-adv-x="1247" d="M41 -4l10 27h15q45 5 61 24.5t16 75.5v950q0 56 -16 76t-61 25h-15l-10 26h16q14 0 53.5 -2t45.5 -2h100q8 0 48 2t52 2h19l-13 -26h-16q-45 -5 -60.5 -25t-15.5 -76v-749l693 737v12q0 56 -16.5 76t-61.5 25h-15l-12 26h19q14 0 53 -2t45 -2h102q7 0 46 2t53 2h18 l-12 -26h-15q-45 -5 -61 -25t-16 -76v-950q0 -56 16 -75.5t61 -24.5h15l12 -27h-18q-14 0 -53 2t-46 2h-102q-6 0 -45 -2t-53 -2h-19l12 27h15q45 5 61.5 24.5t16.5 75.5v749l-693 -733v-16q0 -56 15.5 -75.5t60.5 -24.5h16l13 -27h-19q-12 0 -52 2t-48 2h-100 q-6 0 -45.5 -2t-53.5 -2h-16zM575 1311l183 190h176l-268 -190h-91z" />
<glyph unicode="&#x41a;" horiz-adv-x="1091" d="M41 -4l10 27h15q45 5 61 24.5t16 75.5v950q0 56 -16 76t-61 25h-15l-10 26h16q14 0 53.5 -2t45.5 -2h100q8 0 48 2t52 2h19l-13 -26h-16q-45 -5 -60.5 -25t-15.5 -76v-282l308 276q47 44 47 70q0 21 -27 55l-8 8l12 29l14 -12l64 -78l57 -68q21 -18 70 -67l12 -17l-28 -8 l-11 10q-31 31 -55 31q-23 0 -70 -41l-342 -309l545 -547q63 -63 90 -80q28 -17 62 -20q6 -3 14 0l12 -27h-18q-7 0 -45.5 2t-52.5 2q-26 0 -111 -6l-539 536v-407q0 -56 15.5 -75.5t60.5 -24.5h16l13 -27h-19q-12 0 -52 2t-48 2h-100q-6 0 -45.5 -2t-53.5 -2h-16z" />
<glyph unicode="&#x41b;" horiz-adv-x="1458" d="M41 33l20 20l15 -8q24 -8 43 -8q40 0 67 67l537 1158l532 -1158q30 -67 70 -67q19 0 43 8l12 8l25 -20l-16 -8q-32 -11 -95 -37l-90 -43q-60 -33 -88 -47l-14 -9l-2 33l12 6q45 26 45 58q0 19 -16 65l-418 940l-420 -940q-16 -46 -16 -65q0 -32 45 -58l12 -6l-2 -33 l-14 9q-4 2 -35 19t-53 28l-90 43q-23 7 -95 37z" />
<glyph unicode="&#x41c;" horiz-adv-x="1810" d="M41 0l16 25l15 -7q29 -3 45 0q37 6 55 78l326 1233l399 -575l399 575l326 -1233q18 -72 57 -78q15 -3 43 0l15 7l18 -25l-16 -4q-37 -6 -99 -21l-96 -26l-94 -33l-18 -4l4 33q2 0 14 4q49 15 55 49q3 22 -8 65l-248 1000l-350 -526l-354 526l-248 -1000q-9 -45 -6 -65 q6 -34 53 -49q8 -4 14 -4l4 -33l-16 4l-94 33l-96 26q-14 1 -99 21z" />
<glyph unicode="&#x41d;" horiz-adv-x="1067" d="M41 -4l8 27h17q45 5 60 24.5t15 75.5v950q0 56 -15 76t-60 25h-17l-8 26h14q15 0 54.5 -2t46.5 -2h100q8 0 48.5 2t49.5 2h21l-13 -26h-16q-45 -5 -61.5 -25t-16.5 -76v-397h512v397q0 56 -15 76t-60 25h-17l-8 26h14q15 0 54.5 -2t46.5 -2h100q8 0 48.5 2t49.5 2h21 l-13 -26h-16q-45 -5 -61.5 -25t-16.5 -76v-950q0 -56 16.5 -75.5t61.5 -24.5h16l13 -27h-21q-9 0 -49.5 2t-48.5 2h-100q-7 0 -46.5 -2t-54.5 -2h-14l8 27h17q45 5 60 24.5t15 75.5v440h-512v-440q0 -56 16.5 -75.5t61.5 -24.5h16l13 -27h-21q-9 0 -49.5 2t-48.5 2h-100 q-7 0 -46.5 -2t-54.5 -2h-14z" />
<glyph unicode="&#x41e;" horiz-adv-x="1353" d="M41 598q0 260 184 444q185 185 445 185q262 0 444 -185q184 -181 184 -444q0 -260 -184 -444q-182 -185 -444 -185q-260 0 -445 185q-184 184 -184 444zM170 543q21 -175 145 -299q125 -125 299 -146v445h-444zM170 653h444v445q-174 -21 -299 -146q-124 -121 -145 -299z M725 98q172 21 297 146q126 126 147 299h-444v-445zM725 653h444q-21 178 -145 299q-122 125 -299 146v-445z" />
<glyph unicode="&#x41f;" horiz-adv-x="1067" d="M41 -4l10 27h15q45 5 61 24.5t16 75.5v950q0 56 -16 76t-61 25h-15l-10 26h16q14 0 53.5 -2t45.5 -2h100h539h100q8 0 48 2t52 2h19l-13 -26h-16q-45 -5 -60.5 -25t-15.5 -76v-950q0 -56 15.5 -75.5t60.5 -24.5h16l13 -27h-19q-12 0 -52 2t-48 2h-100q-6 0 -45.5 -2 t-53.5 -2h-16l8 27h17q45 5 61 24.5t16 75.5v960h-512v-960q0 -56 15.5 -75.5t60.5 -24.5h16l13 -27h-19q-12 0 -52 2t-48 2h-100q-6 0 -45.5 -2t-53.5 -2h-16z" />
<glyph unicode="&#x420;" horiz-adv-x="864" d="M41 -4l10 27h15q45 5 61 24.5t16 75.5v950q0 56 -16 76t-61 25h-15l-10 26h16q14 0 53.5 -2t45.5 -2h280q149 0 260 -102q113 -101 113 -252q0 -154 -111 -262q-109 -109 -262 -109h-166v-348q0 -56 15.5 -75.5t60.5 -24.5h16l13 -27h-19q-12 0 -52 2t-48 2h-100 q-6 0 -45.5 -2t-53.5 -2h-16zM270 586h156q109 0 180.5 73.5t71.5 180.5q0 105 -71 174t-181 69h-156v-497z" />
<glyph unicode="&#x421;" horiz-adv-x="1079" d="M41 598q0 260 184 444q185 185 445 185q198 0 350 -107v-96q0 -2 2 -37t2 -53v-16h-31q-12 67 -63 106q-130 74 -260 74q-205 0 -353 -148q-147 -144 -147 -352q0 -205 147 -352q148 -148 353 -148q135 0 274 86q43 49 51 103h25v-17q0 -15 -3 -50t-3 -40l6 -104 q-155 -107 -350 -107q-260 0 -445 185q-184 184 -184 444z" />
<glyph unicode="&#x422;" horiz-adv-x="1298" d="M41 965v18q0 14 2 53t2 45v103q0 7 -2 46.5t-2 51.5v16l29 -10v-14q5 -46 24 -62t74 -16h948q55 0 75 16t26 62v14l26 10v-16q0 -12 -2 -51.5t-2 -46.5v-103q0 -6 2 -45t2 -53v-18l-26 12v14q-6 46 -26 62t-75 16h-409v-946q0 -56 15 -75.5t60 -24.5h17l10 -27h-18 q-12 0 -52 2t-47 2h-100q-6 0 -45.5 -2t-52.5 -2h-19l12 27h15q45 5 60.5 24.5t15.5 75.5v946h-410q-55 0 -74 -16t-24 -62v-14z" />
<glyph unicode="&#x423;" horiz-adv-x="1325" d="M41 1081l14 13q57 35 80 53l88 59q3 2 19.5 15l33 26t23.5 19l14 8l6 -29l-10 -8q-36 -27 -38 -51t30 -72l354 -504l355 504q30 48 28.5 72t-34.5 51l-13 6l6 31l15 -10q13 -12 40 -32t38 -26l88 -61q4 -3 36.5 -24t42.5 -29l13 -11l-25 -14l-10 6q-38 25 -62.5 18 t-56.5 -51l-682 -974q-32 -47 -30.5 -73t36.5 -52l13 -9l-9 -28l-12 10q-10 6 -76 59l-88 62q-5 4 -37.5 23.5t-44.5 27.5l-14 10l27 15l10 -9q37 -23 62 -15t57 52l247 357l-380 544q-32 44 -56 51t-61 -16l-12 -8z" />
<glyph unicode="&#x424;" horiz-adv-x="1226" d="M41 535q0 232 166 401q141 141 332 162v53q0 55 -15.5 74.5t-60.5 25.5h-17l-10 27h17q14 0 53.5 -2t46.5 -2h100q7 0 47 2t52 2h18l-10 -27h-17q-45 -6 -61 -26t-16 -74v-53q198 -18 342 -162q163 -166 163 -401q0 -234 -163 -400q-143 -143 -342 -164v-200l-127 -213 v415q-191 21 -332 162q-166 166 -166 400zM154 535q0 -187 133 -320q108 -108 252 -129v897q-144 -18 -252 -129q-133 -133 -133 -319zM666 86q148 18 262 129q131 131 131 320q0 190 -131 321q-114 111 -262 129v-899z" />
<glyph unicode="&#x425;" horiz-adv-x="1445" d="M41 160l29 10l8 -10q34 -27 55 -27q27 0 70 43l422 422l-422 422q-43 43 -70 43q-21 0 -55 -27l-8 -10l-29 10l12 15l72 65l74 72q21 21 65 72l12 14l13 -29l-10 -10q-27 -35 -27 -55q0 -27 43 -70l422 -420l420 420q43 43 43 72q0 16 -29 53q-4 8 -8 10l12 29l12 -14 q5 -6 28 -30t38 -42l74 -72q48 -42 71 -65l13 -15l-27 -10l-10 10q-34 27 -56 27q-26 0 -69 -43l-422 -422l422 -422q43 -43 69 -43q22 0 56 27q3 7 10 10l27 -10l-13 -15q-6 -5 -29.5 -27.5t-41.5 -37.5l-74 -72q-35 -40 -66 -71l-12 -15l-12 29q7 7 8 10q29 37 29 53 q0 29 -43 72l-420 420l-422 -420q-43 -43 -43 -70q0 -21 27 -55q3 -7 10 -10l-13 -29l-12 15q-38 44 -65 71l-74 72l-72 65z" />
<glyph unicode="&#x426;" horiz-adv-x="1150" d="M41 -4l10 27h17q45 5 60 24.5t15 75.5v950q0 56 -15 76t-60 25h-17l-10 26h16q13 0 53 -2t48 -2h100q6 0 45.5 2t52.5 2h19l-10 -26h-17q-45 -5 -61.5 -25t-16.5 -76v-960h512v960q0 56 -15 76t-60 25h-17l-10 26h16q13 0 53 -2t48 -2h100q6 0 45.5 2t52.5 2h19l-10 -26 h-17q-45 -5 -61.5 -25t-16.5 -76v-960h74q50 0 66.5 13.5t21.5 55.5v13l25 12v-19q0 -10 -2 -45t-2 -41v-90q0 -6 2 -40.5t2 -47.5v-14l-25 8v14q-5 40 -22 54t-66 14h-74h-751q-8 0 -48 -2t-53 -2h-16z" />
<glyph unicode="&#x427;" horiz-adv-x="970" d="M41 1202h14q13 0 53 -2t48 -2h106q7 0 46 2t54 2h19l-12 -26h-17q-44 -5 -58.5 -24.5t-14.5 -76.5v-244q9 -53 38 -92q105 -152 361 -108v444q0 56 -16.5 76t-61.5 25h-14l-11 26h17q12 0 51.5 -2t46.5 -2h109q6 0 45 2t53 2h18l-12 -26h-14q-45 -5 -60.5 -25t-15.5 -76 v-948q0 -56 15.5 -76t60.5 -26h14l12 -25h-18q-14 0 -53 1t-45 1h-109q-7 0 -46.5 -1t-51.5 -1h-17l11 25h14q45 6 61.5 26t16.5 76v375q-152 -30 -278 15t-199 151q-54 82 -60 163v5v30v209q0 56 -15 76t-60 25h-17z" />
<glyph unicode="&#x428;" horiz-adv-x="1488" d="M41 -4l8 27h17q45 5 60 24.5t15 75.5v950q0 56 -15 76t-60 25h-17l-8 26h14q13 0 53 -2t48 -2h100q6 0 45.5 2t52.5 2h21l-13 -26h-16q-45 -5 -61.5 -25t-16.5 -76v-946h404v946q0 56 -16 76t-60 25h-14l-15 26h21q10 0 50 -2t46 -2h100q7 0 46.5 2t54.5 2h16l-8 -26h-16 q-45 -5 -60.5 -25t-15.5 -76v-946h399v946q0 56 -16.5 76t-61.5 25h-12l-12 26h16q13 0 52.5 -2t47.5 -2h103q3 0 43 2t53 2h21l-15 -26h-12q-46 -5 -63 -25t-17 -76v-950q0 -55 17 -75t63 -25h12l15 -27h-21q-13 0 -53 2t-43 2h-516q1 -46 17 -62.5t59 -21.5h16l8 -27h-16 q-15 0 -54.5 2.5t-46.5 2.5h-100q-6 0 -46 -2.5t-50 -2.5h-21l15 27h14q43 5 59 21.5t17 62.5h-516q-8 0 -48 -2t-53 -2h-14z" />
<glyph unicode="&#x429;" horiz-adv-x="1581" d="M41 -4l8 27h17q45 5 60 24.5t15 75.5v950q0 56 -15 76t-60 25h-17l-8 26h14q13 0 53 -2t48 -2h100q6 0 45.5 2t52.5 2h21l-13 -26h-16q-45 -5 -61.5 -25t-16.5 -76v-946h404v946q0 56 -16 76t-60 25h-14l-15 26h21q10 0 50 -2t46 -2h100q7 0 46.5 2t54.5 2h16l-8 -26h-16 q-45 -5 -60.5 -25t-15.5 -76v-946h399v946q0 56 -16.5 76t-61.5 25h-12l-12 26h16q13 0 52.5 -2t47.5 -2h103q3 0 43 2t53 2h21l-15 -26h-12q-46 -5 -63 -25t-17 -76v-946h74q56 0 74.5 15.5t23.5 60.5v14l27 10v-16q0 -12 -2 -51t-2 -47v-101q0 -6 2 -45t2 -53v-16l-27 12 v12q-3 46 -22 62q-16 13 -50 16h-626q1 -46 17 -62.5t59 -21.5h16l8 -27h-16q-15 0 -54.5 2.5t-46.5 2.5h-100q-6 0 -46 -2.5t-50 -2.5h-21l15 27h14q43 5 59 21.5t17 62.5h-516q-8 0 -48 -2t-53 -2h-14z" />
<glyph unicode="&#x42a;" horiz-adv-x="993" d="M41 995v15q0 10 1 42.5t1 39.5v92q0 6 -1 38.5t-1 45.5v14l22 -8v-14q2 -37 18.5 -50.5t65.5 -13.5h250v-475q209 21 344 -33q89 -44 138 -121q59 -89 59 -202q0 -154 -107 -261q-104 -104 -264 -104h-284q-5 0 -44.5 -2t-54.5 -2h-14l8 27h15q45 5 61 24.5t16 75.5v958 h-123q-49 0 -65.5 -13t-18.5 -52v-12zM397 121h164q107 0 176 69q72 72 72 175q0 100 -72 172q-71 71 -176 71h-164v-487z" />
<glyph unicode="&#x42b;" horiz-adv-x="1329" d="M41 -4l10 27h15q45 5 61 24.5t16 75.5v958q0 53 -15 71.5t-58 23.5h-13l-10 24h16q9 0 47 -2t44 -2h102q3 0 40 2t50 2h19l-13 -24h-12q-43 -5 -57.5 -23.5t-14.5 -71.5l2 -360q206 21 344 -33q89 -44 138 -121q59 -89 59 -202q0 -155 -106 -261q-107 -104 -265 -104 h-284q-6 0 -45.5 -2t-53.5 -2h-16zM270 121h162q107 0 176 69q72 72 72 175q0 101 -71.5 172t-176.5 71h-162v-487zM936 -4l10 27h17q44 5 58.5 24t14.5 76v950q0 57 -14.5 76.5t-58.5 24.5h-17l-10 26h16q15 0 54.5 -2t46.5 -2h106q8 0 48 2t53 2h16l-10 -26h-17 q-45 -5 -60 -25t-15 -76v-950q0 -56 15 -75.5t60 -24.5h17l10 -27h-16q-13 0 -53 2t-48 2h-106q-7 0 -46.5 -2t-54.5 -2h-16z" />
<glyph unicode="&#x42c;" horiz-adv-x="864" d="M41 -4l10 27h15q45 5 61 24.5t16 75.5v958q0 53 -15 71.5t-58 23.5h-13l-10 24h16q9 0 47 -2t44 -2h102q3 0 40 2t50 2h19l-13 -24h-12q-43 -5 -57.5 -23.5t-14.5 -71.5l2 -360q206 21 344 -33q89 -44 138 -121q59 -89 59 -202q0 -155 -106 -261q-107 -104 -265 -104 h-284q-6 0 -45.5 -2t-53.5 -2h-16zM270 121h162q107 0 176 69q72 72 72 175q0 101 -71.5 172t-176.5 71h-162v-487z" />
<glyph unicode="&#x42d;" horiz-adv-x="1079" d="M41 918v16q0 18 2 53t2 37v96q152 107 350 107q260 0 445 -185q184 -184 184 -444t-184 -444q-185 -185 -445 -185q-195 0 -350 107l6 104q0 5 -3 40t-3 50v17h25q8 -54 51 -103q139 -86 274 -86q204 0 355 148q123 126 143 284h-309q-56 0 -76 -15t-25 -60v-15l-26 -12 v18q0 14 2 53.5t2 45.5v108q0 7 -2 47t-2 52v16l26 -10v-15q5 -45 25 -61t76 -16h309q-21 161 -143 286q-152 146 -355 146q-130 0 -260 -74q-51 -39 -63 -106h-31z" />
<glyph unicode="&#x42e;" horiz-adv-x="1769" d="M41 -4l10 27h17q44 5 58.5 24t14.5 76v950q0 57 -14.5 76.5t-58.5 24.5h-17l-10 26h16q15 0 54.5 -2t46.5 -2h106q8 0 48 2t53 2h16l-10 -26h-17q-45 -5 -60 -25t-15 -76v-407h182q21 213 180 372q185 185 444 185q263 0 445 -185q184 -181 184 -444q0 -260 -184 -444 q-182 -185 -445 -185q-259 0 -444 185q-162 162 -180 380h-182v-407q0 -56 15 -75.5t60 -24.5h17l10 -27h-16q-13 0 -53 2t-48 2h-106q-7 0 -46.5 -2t-54.5 -2h-16zM584 594q0 -209 147 -356q148 -148 354 -148q212 0 357 148q147 147 147 356q0 212 -147 356 q-145 148 -357 148q-206 0 -354 -148q-147 -147 -147 -356zM938 600l147 148l148 -148l-148 -147z" />
<glyph unicode="&#x42f;" horiz-adv-x="1200" d="M41 -4l8 27q8 -3 17 0q31 3 59 20q25 14 88 80l426 422q-109 36 -174.5 127t-65.5 198q0 146 101 234q103 92 252 92h278q5 0 45 2t55 2h17l-10 -26h-17q-45 -5 -60.5 -25t-15.5 -76v-950q0 -56 15.5 -75.5t60.5 -24.5h17l10 -27h-17q-15 0 -55 2t-45 2h-100q-7 0 -47 -2 t-52 -2h-20l12 27h17q45 5 61.5 24.5t16.5 75.5v405h-115l-537 -534q-86 6 -110 6q-14 0 -52 -2t-49 -2h-14zM526 868q0 -98 65.5 -161.5t168.5 -63.5h158v440h-158q-107 0 -170.5 -60.5t-63.5 -154.5z" />
<glyph unicode="&#x430;" horiz-adv-x="1134" d="M41 -2l14 14l13 -6q18 -6 30 -6q31 0 54 51l401 869l399 -869q23 -51 54 -51q9 0 30 6l11 6l18 -14l-12 -6q-10 -3 -72 -29l-68 -33q-40 -23 -63 -34l-12 -7l-2 25q1 1 10 4q35 21 35 43q0 15 -17 49l-84 193h-454l-86 -193q-17 -34 -17 -49q0 -22 35 -43q1 -1 4.5 -2 t5.5 -2l-2 -25l-12 7q-7 4 -17 9.5t-24.5 12.5t-24.5 12l-65 33q-46 17 -72 29zM362 285h383l-192 432z" />
<glyph unicode="&#x431;" horiz-adv-x="688" d="M41 -4l6 20h12q33 2 45.5 17t12.5 57v715q0 42 -12.5 57t-45.5 17h-12l-6 20h12q9 0 39.5 -2t34.5 -2h391q36 0 48.5 10.5t17.5 40.5v8l16 7v-11q0 -8 -1 -33t-1 -28v-70q0 -3 1 -28t1 -33v-13l-16 9v8q-5 30 -17.5 39.5t-48.5 9.5h-305v-272q158 15 256 -25 q62 -26 104 -90q45 -65 45 -152q0 -115 -79 -194q-78 -78 -199 -78h-213q-4 0 -34.5 -2t-39.5 -2h-12zM213 90h123q78 0 131 53t53 129t-53.5 129.5t-130.5 53.5h-123v-365z" />
<glyph unicode="&#x432;" horiz-adv-x="688" d="M41 -4l6 20h10q35 2 47.5 16.5t12.5 57.5v715q0 43 -12.5 57.5t-47.5 16.5h-10l-6 20h10q10 0 41 -2t35 -2h86q27 0 47 2h45q116 0 186 -56.5t70 -152.5q0 -118 -92 -174q62 -26 104 -90q45 -65 45 -152q0 -115 -79 -194q-81 -78 -199 -78h-213q-4 0 -35 -2t-41 -2h-10z M213 90h123q77 0 129.5 53t52.5 129t-52.5 129.5t-129.5 53.5h-123v-365zM213 541h117q59 0 97 39t38 96q0 58 -38 97.5t-97 39.5h-117v-272z" />
<glyph unicode="&#x433;" horiz-adv-x="626" d="M76 -432v1331h383q42 0 56.5 12.5t19.5 46.5v11l20 8v-12q0 -9 -2 -39.5t-2 -34.5v-78q0 -3 2 -33t2 -39v-14l-20 8v13q-5 34 -19 45.5t-57 11.5h-289v-1143z" />
<glyph unicode="&#x434;" horiz-adv-x="1157" d="M41 -88q0 10 1 40t1 34v82q0 6 -1 35t-1 38v13l18 -9v-12q5 -33 19.5 -44t56.5 -11h39l389 844l391 -844h68q17 0 30.5 13t14.5 42v12l20 9v-13q0 -9 -1 -38t-1 -35v-82q0 -4 1 -34t1 -40v-14l-20 10v10q-1 35 -16 46t-58 11h-858q-43 0 -57 -11t-19 -46v-10l-18 -10v14z M283 78h569l-285 641z" />
<glyph unicode="&#x435;" horiz-adv-x="743" d="M86 354v15q0 9 1 39t1 34v74q0 7 -1 36.5t-1 37.5v14l18 -8v-12q6 -33 17.5 -44.5t42.5 -11.5v371h385q43 0 57 11.5t19 47.5v11l18 8v-12q0 -9 -1 -39.5t-1 -34.5v-78q0 -4 1 -34t1 -40v-14l-18 10v10q-5 36 -19 48t-57 12h-291v-277h285q41 0 53.5 11t17.5 45v12l23 8 v-14q0 -8 -1 -37.5t-1 -36.5v-74q0 -4 1 -34t1 -39v-15l-23 8v13q-5 34 -17.5 44.5t-53.5 10.5h-285v-332h291q43 0 57 12t19 46v10l18 10v-14q0 -8 -1 -37.5t-1 -36.5v-76q0 -4 1 -34t1 -39v-13l-18 6v13q-5 34 -19 45.5t-57 11.5h-299l-86 -86v514q-31 0 -42.5 -11.5 t-17.5 -43.5v-13z" />
<glyph unicode="&#x436;" horiz-adv-x="1251" d="M41 88l18 8l9 -8q25 -25 43.5 -24.5t50.5 26.5l368 311l-368 310q-31 29 -50.5 29.5t-43.5 -23.5l-7 -8l-20 4l8 12q10 14 49 53l54 64q4 4 22 28t23 29l8 10l8 -18l-6 -8q-19 -29 -15.5 -47.5t35.5 -47.5l336 -282v297q0 42 -11 56.5t-44 19.5h-12l-9 18h13 q10 0 39.5 -1t33.5 -1h78q4 0 34.5 1t39.5 1h12l-8 -18h-10q-36 -5 -48 -19.5t-12 -56.5v-293l334 278q32 29 36 47.5t-15 47.5l-6 8l10 18l6 -10q5 -5 24 -29t23 -28l51 -64l52 -53l8 -12l-21 -4l-8 8q-24 24 -43.5 23.5t-50.5 -29.5l-369 -310l369 -311q32 -26 51.5 -26.5 t42.5 24.5l8 8l21 -8l-8 -8q-6 -8 -26.5 -29.5t-23.5 -25.5l-53 -64q-15 -15 -45 -57l-8 -10l-10 20l8 8q19 29 14 46.5t-37 43.5l-334 281v-569l-96 -160v733l-336 -285q-32 -26 -36 -43.5t16 -46.5l6 -8l-8 -20l-10 10q-36 50 -45 57l-52 64q-3 4 -24 25.5t-27 29.5z" />
<glyph unicode="&#x437;" horiz-adv-x="663" d="M41 733l31 45q28 36 63 60q71 53 168 53q122 0 205 -86q86 -83 86 -205q0 -93 -57 -168v-4q57 -75 57 -170q0 -119 -86 -205q-84 -84 -205 -84q-145 0 -227 111l-4 4q-2 2 -17 22l-12 19l61 47q3 2 15 12.5t24 20.5t19 14l8 8l6 -20l-6 -8q-35 -30 -25 -56l9 -8l12 -12 q57 -60 137 -60q79 0 136 58t57 137q-6 95 -68 154q-172 12 -172 24.5t172 24.5q71 53 68 139q0 82 -56.5 139.5t-136.5 57.5q-49 0 -94 -25l-10 -6q-18 -12 -33 -27l-23 -26q-13 -25 23 -56l8 -6l-6 -22l-10 8q-6 5 -29.5 24.5t-28.5 22.5z" />
<glyph unicode="&#x438;" horiz-adv-x="974" d="M41 -4l6 20h12q33 2 45.5 17t12.5 57v715q0 42 -12.5 57t-45.5 17h-12l-6 20h12q9 0 39.5 -2t34.5 -2h76q7 0 36 2t37 2h15l-10 -20h-11q-33 -2 -45 -17t-12 -57v-563l518 553v10q0 42 -12 57t-45 17h-12l-7 20h13q10 0 39.5 -2t33.5 -2h76q7 0 36.5 2t37.5 2h14l-10 -20 h-10q-33 -2 -45.5 -17t-12.5 -57v-715q0 -42 12.5 -57t45.5 -17h10l10 -20h-14q-8 0 -37.5 2t-36.5 2h-76q-4 0 -33.5 -2t-39.5 -2h-13l7 20h12q33 2 45 17t12 57v563l-518 -551v-12q0 -42 12 -57t45 -17h11l10 -20h-15q-8 0 -37 2t-36 2h-76q-4 0 -34.5 -2t-39.5 -2h-12z " />
<glyph unicode="&#x439;" horiz-adv-x="974" d="M41 -4l6 20h12q33 2 45.5 17t12.5 57v715q0 42 -12.5 57t-45.5 17h-12l-6 20h12q9 0 39.5 -2t34.5 -2h76q7 0 36 2t37 2h15l-10 -20h-11q-33 -2 -45 -17t-12 -57v-563l518 553v10q0 42 -12 57t-45 17h-12l-7 20h13q10 0 39.5 -2t33.5 -2h76q7 0 36.5 2t37.5 2h14l-10 -20 h-10q-33 -2 -45.5 -17t-12.5 -57v-715q0 -42 12.5 -57t45.5 -17h10l10 -20h-14q-8 0 -37.5 2t-36.5 2h-76q-4 0 -33.5 -2t-39.5 -2h-13l7 20h12q33 2 45 17t12 57v563l-518 -551v-12q0 -42 12 -57t45 -17h11l10 -20h-15q-8 0 -37 2t-36 2h-76q-4 0 -34.5 -2t-39.5 -2h-12z M442 981l138 143h129l-199 -143h-68z" />
<glyph unicode="&#x43a;" horiz-adv-x="858" d="M41 -4l6 20h10q36 2 49 17t13 57v713q0 42 -13.5 58t-48.5 18h-10l-6 20h10q13 0 43 -2t33 -2h78q4 0 34 2t40 2h12l-8 -20h-13q-33 -2 -45 -18t-12 -58v-211l229 207q35 35 35 53q0 12 -16 41l-8 6l10 21l8 -9l47 -59l43 -49q24 -20 55 -51l9 -13l-23 -6l-6 8 q-26 23 -41 23q-17 0 -53 -31l-256 -231l407 -412q53 -50 69.5 -61.5t45.5 -12.5q3 -3 8 0l12 -20h-16q-3 0 -32 1t-42 1q-4 0 -14.5 -0.5t-30.5 -1.5t-37 -2l-403 403v-307q0 -42 12 -57t45 -17h13l8 -20h-12q-10 0 -40 1t-34 1h-78q-3 0 -33 -1t-43 -1h-10z" />
<glyph unicode="&#x43b;" horiz-adv-x="1132" d="M41 -2l16 14l9 -6q21 -6 32 -6q31 0 54 51l399 869l401 -869q20 -51 54 -51q9 0 30 6l11 6l16 -14l-12 -6q-8 -3 -18.5 -7t-26 -11t-25.5 -11l-68 -33q-39 -22 -65 -34l-12 -7l-2 25q1 1 2.5 1.5t4.5 1t5 1.5q33 20 33 43q0 15 -15 49l-311 705l-315 -705 q-15 -34 -15 -49q0 -22 35 -43q1 -1 4.5 -2t5.5 -2l-2 -25l-10 7l-68 34l-67 33q-2 1 -27 11t-43 18z" />
<glyph unicode="&#x43c;" horiz-adv-x="1298" d="M41 20l12 17l8 -4q22 -3 31 0q27 6 39 53l227 856l277 -399l276 399l226 -856q15 -47 39 -53q9 -3 30 0l11 4l12 -17l-10 -4l-70 -14l-66 -18q-25 -11 -65 -21l-12 -6l2 25q6 0 10 2q33 11 39 34q3 15 -6 45l-172 693l-244 -363l-246 363l-172 -693q-7 -33 -4 -45 q3 -22 39 -34q2 -2 8 -2l4 -25l-10 6l-68 21l-67 18l-68 14z" />
<glyph unicode="&#x43d;" horiz-adv-x="839" d="M41 -4l6 20h10q35 2 47.5 16.5t12.5 57.5v715q0 43 -12.5 57.5t-47.5 16.5h-10l-6 20h10q10 0 41 -2t35 -2h76q7 0 36 2t37 2h15l-10 -20h-11q-33 -2 -45 -17t-12 -57v-299h383v299q0 42 -12 57t-45 17h-13l-8 20h14q9 0 39 -2t33 -2h78q4 0 34.5 2t39.5 2h14l-10 -20 h-10q-33 -2 -46.5 -17t-13.5 -57v-715q0 -42 13.5 -57t46.5 -17h10l10 -20h-14q-9 0 -39.5 2t-34.5 2h-78q-3 0 -33 -2t-39 -2h-14l8 20h13q33 2 45 17t12 57v332h-383v-332q0 -42 12 -57t45 -17h11l10 -20h-15q-8 0 -37 2t-36 2h-76q-4 0 -35 -2t-41 -2h-10z" />
<glyph unicode="&#x43e;" horiz-adv-x="1054" d="M41 440q0 197 137 334q139 139 332 139q197 0 336 -139q137 -137 137 -334t-137 -334t-336 -137q-195 0 -332 137t-137 334zM135 399q18 -128 111 -225q96 -93 223 -108v333h-334zM135 483h334v332q-128 -13 -221.5 -107t-112.5 -225zM553 66q127 15 223 108 q96 96 111 225h-334v-333zM553 483h334q-13 130 -108 224t-226 108v-332z" />
<glyph unicode="&#x43f;" horiz-adv-x="839" d="M41 -4l6 20h12q33 2 45.5 17t12.5 57v715q0 42 -12.5 57t-45.5 17h-12l-6 20h12q9 0 39.5 -2t34.5 -2h76h403h76q7 0 36.5 2t37.5 2h14l-8 -20h-12q-33 -2 -45.5 -17t-12.5 -57v-715q0 -42 12.5 -57t45.5 -17h12l8 -20h-14q-8 0 -37.5 2t-36.5 2h-76q-4 0 -34 -2t-40 -2 h-12l6 20h13q33 2 45 17t12 57v721h-383v-721q0 -42 12 -57t45 -17h11l10 -20h-15q-8 0 -37 2t-36 2h-76q-4 0 -34.5 -2t-39.5 -2h-12z" />
<glyph unicode="&#x440;" horiz-adv-x="688" d="M41 -4l6 20h10q35 2 48.5 18t13.5 58v713q0 42 -13 57t-49 17h-10l-6 20h10q13 0 42.5 -1t31.5 -1h213q113 0 197 -78q83 -77 83 -188q0 -114 -83 -197q-82 -82 -197 -82h-127v-260q0 -42 13 -58t46 -18h13l8 -20h-12q-10 0 -40.5 2t-33.5 2h-80q-2 0 -31.5 -2t-42.5 -2 h-10zM211 438h121q81 0 132.5 55t51.5 136q0 79 -51.5 130.5t-132.5 51.5h-121v-373z" />
<glyph unicode="&#x441;" horiz-adv-x="849" d="M41 440q0 197 137 334q139 139 332 139q151 0 264 -79v-74q0 -2 2 -27.5t2 -40.5v-12h-22q-9 52 -47 80q-101 55 -199 55q-154 0 -264 -110q-111 -108 -111 -265q0 -153 111 -264q110 -110 264 -110q100 0 209 65q31 35 39 76h16v-12q0 -10 -3 -37t-3 -31l6 -78 q-115 -80 -264 -80q-195 0 -332 137t-137 334z" />
<glyph unicode="&#x442;" horiz-adv-x="1011" d="M41 635v14q0 10 1 40t1 34v76q0 7 -1 36t-1 37v15l22 -8v-13q2 -33 16 -45t56 -12h307v-4q0 43 -11 58t-46 16h-8l-10 20h14q9 0 39.5 -1t34.5 -1h73q7 0 37 1t37 1h14l-8 -20h-10q-36 -1 -46.5 -15.5t-10.5 -58.5v4h307q41 0 55.5 11.5t20.5 45.5v13l16 8v-15 q0 -8 -1 -37t-1 -36v-76q0 -4 1 -34t1 -40v-14l-16 10v10q-6 34 -20.5 46t-55.5 12h-307v-621q0 -44 10.5 -59.5t46.5 -16.5h10l8 -20h-14q-7 0 -37 2t-37 2h-73q-4 0 -34.5 -2t-39.5 -2h-14l10 20h8q35 1 46 16.5t11 59.5v621h-307q-42 0 -56 -12.5t-16 -45.5v-10z" />
<glyph unicode="&#x443;" horiz-adv-x="1052" d="M41 807l10 8l62 41l67 47q49 37 60 43l10 8l6 -22l-10 -6q-27 -21 -28.5 -40t22.5 -55l272 -387l270 387q26 36 24.5 55t-28.5 40l-8 6l2 22l12 -8q7 -4 19.5 -13.5t26 -20t14.5 -11.5l67 -47l62 -41l10 -6l-18 -12l-9 6q-30 19 -48 14t-44 -41l-522 -745 q-24 -37 -23.5 -56.5t27.5 -42.5l10 -4l-6 -22l-8 8q-6 4 -18.5 13.5t-25.5 20t-15 11.5l-68 47l-61 39l-13 8l21 10l8 -6q29 -18 47 -11.5t43 42.5l191 270l-293 418q-24 36 -43 41.5t-45 -12.5l-11 -6z" />
<glyph unicode="&#x444;" horiz-adv-x="958" d="M41 377q0 174 125 299q103 106 248 121v4q0 41 -12.5 56t-45.5 20h-12l-6 18h12q10 0 40 -1t34 -1h76q7 0 36 1t37 1h15l-8 -18h-13q-33 -5 -45 -19.5t-12 -56.5v-2q150 -15 256 -121q123 -126 123 -301t-123 -301q-108 -108 -256 -123v-229l-96 -160v391 q-145 15 -248 121q-125 125 -125 301zM125 377q0 -142 100 -242q78 -81 189 -96v674q-107 -15 -189 -97q-100 -100 -100 -239zM510 39q114 15 195 96q100 100 100 242q0 139 -100 239q-82 82 -195 97v-674z" />
<glyph unicode="&#x445;" horiz-adv-x="1122" d="M41 100l22 9q0 -2 7 -9q20 -20 41 -20q18 0 51 33l315 317l-315 315q-33 33 -51 33q-21 0 -41 -20l-7 -8l-22 8l8 10l57 49l54 55l49 54l6 10l10 -21l-8 -8q-18 -24 -18 -41q0 -18 30 -53l320 -315l311 315q33 33 33 53q0 16 -19 41l-8 8l11 21l10 -10q13 -18 49 -54 l53 -55q21 -15 55 -49l9 -10l-21 -8l-8 8q-26 20 -41 20q-18 0 -51 -33l-316 -315l316 -317q33 -33 51 -33q15 0 41 20l3 4q3 4 5 5l21 -9l-9 -10l-55 -49l-53 -53l-49 -56l-10 -10l-11 23q2 0 8 6q19 25 19 41q0 20 -33 53l-311 315l-320 -315q-30 -35 -30 -51 q0 -19 18 -43l8 -6l-10 -23l-6 10l-49 56l-54 53q-17 12 -57 49z" />
<glyph unicode="&#x446;" horiz-adv-x="901" d="M41 -4l8 18h10q36 5 48 19.5t12 56.5v713q0 43 -12.5 59t-47.5 17h-10l-8 20h12q9 0 39.5 -2t34.5 -2h78q4 0 34 2t40 2h12l-8 -20h-11q-35 -1 -47 -17t-12 -59v-719h385v719q0 43 -12 59t-47 17h-11l-10 20h14q9 0 39.5 -2t34.5 -2h78q3 0 33.5 2t40.5 2h12l-8 -20h-10 q-35 -1 -47.5 -17t-12.5 -59v-719h56q37 0 50.5 10t14.5 41v10l18 9v-13q0 -9 -1 -35t-1 -30v-70q0 -3 1 -28.5t1 -34.5v-13l-18 9v8q-2 31 -15 42t-50 11h-621q-4 0 -34.5 -2t-39.5 -2h-12z" />
<glyph unicode="&#x447;" horiz-adv-x="765" d="M41 901h10q9 0 39 -1t37 -1h80q3 0 33 1t43 1h12l-8 -20h-13q-32 -2 -43.5 -16.5t-11.5 -57.5v-184h-2q9 -36 31 -68q43 -59 102 -78q61 -20 168 -4v334q0 42 -12 57t-45 17h-12l-9 20h13q9 0 39 -1t36 -1h80q4 0 34.5 1t39.5 1h14l-10 -20h-10q-35 -1 -45 -15.5 t-10 -58.5v-713q0 -43 10 -57.5t45 -18.5h10l10 -18h-14q-9 0 -39.5 1t-34.5 1h-80q-6 0 -36 -1t-39 -1h-13l9 18h12q33 5 45 19.5t12 56.5v283q-113 -24 -207 9.5t-151 113.5q-49 76 -43 155v152q0 42 -12.5 57t-45.5 17h-12z" />
<glyph unicode="&#x448;" horiz-adv-x="1153" d="M41 -6l6 20h10q35 2 47.5 16.5t12.5 57.5v715q0 43 -12.5 57.5t-47.5 16.5h-10l-6 20h10q9 0 39 -1t37 -1h76q4 0 33.5 1t39.5 1h15l-10 -20h-11q-33 -2 -45 -17t-12 -57v-711h299v711q0 43 -11.5 57.5t-43.5 16.5h-11l-10 20h15q8 0 37 -1t36 -1h74q4 0 35 1t41 1h12 l-6 -20h-12q-35 -1 -46.5 -16t-11.5 -58v-711h301v711q0 42 -12 57t-45 17h-12l-8 20h12q9 0 39.5 -1t34.5 -1h77q4 0 34 1t40 1h12l-8 -20h-10q-35 -2 -47 -16.5t-12 -57.5v-715q0 -43 12 -57.5t47 -16.5h10l8 -20h-12q-10 0 -40 2t-34 2h-387q0 -36 13 -49t45 -15h12 l6 -20h-12q-10 0 -41 1t-35 1h-74q-7 0 -36 -1t-37 -1h-15l10 20h11q31 2 43 15t12 49h-385q-7 0 -37 -2t-39 -2h-10z" />
<glyph unicode="&#x449;" horiz-adv-x="1224" d="M41 -2l6 18h10q36 5 48 19.5t12 56.5v713q0 42 -12 56.5t-48 19.5h-10l-6 18h10q9 0 39 -1t37 -1h76q4 0 33.5 1t39.5 1h15l-10 -18h-11q-33 -5 -45 -19.5t-12 -56.5v-711h299v711q0 42 -11 56.5t-44 19.5h-11l-10 18h15q8 0 37 -1t36 -1h74q4 0 35 1t41 1h12l-6 -18h-12 q-36 -5 -47 -19.5t-11 -56.5v-711h301v711q0 42 -12 56.5t-45 19.5h-12l-8 18h12q9 0 39.5 -1t34.5 -1h77q4 0 34 1t40 1h12l-8 -18h-10q-36 -5 -47.5 -19.5t-11.5 -56.5v-711h55q42 0 57 12.5t17 45.5v12l20 6v-12q0 -9 -2 -38.5t-2 -33.5v-78q0 -3 2 -32t2 -39v-15l-20 10 v11q-2 33 -17 45t-57 12h-451q0 -34 12.5 -46t45.5 -17h12l6 -21h-12q-10 0 -41 2t-35 2h-74q-7 0 -36 -2t-37 -2h-15l10 21h11q32 5 43.5 17t11.5 46h-385q-7 0 -37 -1t-39 -1h-10z" />
<glyph unicode="&#x44a;" horiz-adv-x="784" d="M41 745v11q0 8 1 33t1 28v70q0 5 -1 29t-1 32v13l16 -7v-10q2 -29 14.5 -39t49.5 -10h188v-354q153 15 258 -27q60 -25 103 -90q45 -65 45 -152q0 -114 -80 -194q-81 -78 -199 -78h-215q-3 0 -32 -2t-39 -2h-13l6 20h13q32 2 44.5 17.5t12.5 56.5v721h-92 q-37 0 -49.5 -10t-14.5 -39v-10zM309 90h121q79 0 132.5 53t53.5 129t-53.5 129.5t-132.5 53.5h-121v-365z" />
<glyph unicode="&#x44b;" horiz-adv-x="1036" d="M41 -4l6 20h12q33 2 45.5 17t12.5 57v721q0 37 -11.5 51t-42.5 19h-10l-8 18h12q8 0 35.5 -2t34.5 -2h74q4 0 32 2t37 2h13l-9 -18h-10q-31 -5 -41 -18.5t-10 -51.5v-270q153 15 258 -27q59 -25 102 -90q45 -65 45 -152q0 -115 -79 -194q-81 -78 -199 -78h-213 q-4 0 -34.5 -2t-39.5 -2h-12zM213 90h123q77 0 129.5 53t52.5 129t-52.5 129.5t-129.5 53.5h-123v-365zM711 -4l10 20h10q35 1 46 16t11 58v715q0 43 -11 58t-46 16h-10l-10 20h14q10 0 40 -2t34 -2h82q4 0 34 2t39 2h13l-9 -20h-10q-35 -2 -47 -16.5t-12 -57.5v-715 q0 -43 12 -57.5t47 -16.5h10l9 -20h-13q-9 0 -39 2t-34 2h-82q-4 0 -34 -2t-40 -2h-14z" />
<glyph unicode="&#x44c;" horiz-adv-x="688" d="M41 -4l6 20h12q33 2 45.5 17.5t12.5 56.5v721q0 37 -11.5 51t-42.5 19h-10l-8 18h12q8 0 35.5 -2t34.5 -2h74q4 0 32 2t37 2h13l-9 -18h-10q-31 -5 -41 -18.5t-10 -51.5v-270q153 15 258 -27q59 -25 102 -90q45 -65 45 -152q0 -115 -79 -194q-81 -78 -199 -78h-213 q-4 0 -34.5 -2t-39.5 -2h-12zM213 90h123q77 0 129.5 53t52.5 129t-52.5 129.5t-129.5 53.5h-123v-365z" />
<glyph unicode="&#x44d;" horiz-adv-x="849" d="M41 682v10q0 13 2 39.5t2 28.5v71q113 82 262 82q193 0 332 -139t139 -334t-139 -334q-137 -137 -332 -137q-144 0 -262 80l4 78q0 4 -2 31t-2 37v14h18q6 -44 37 -80q105 -63 207 -63q154 0 264 110q94 94 109 213h-231q-42 0 -56.5 -11t-19.5 -44v-12l-21 -9v15 q0 10 2 39.5t2 33.5v80q0 7 -2 37t-2 37v12l21 -6v-10q5 -36 19.5 -47.5t56.5 -11.5h231q-15 121 -109 215q-111 108 -264 108q-100 0 -194 -55q-41 -30 -50 -78h-22z" />
<glyph unicode="&#x44e;" horiz-adv-x="1366" d="M41 -4l8 20h10q36 5 47 19.5t11 56.5v713q0 42 -11 56.5t-47 19.5h-10l-8 18h12q10 0 40.5 -2t33.5 -2h82q7 0 36.5 2t37.5 2h12l-6 -18h-13q-33 -5 -45 -19.5t-12 -56.5v-305h137q15 157 136 278q140 140 333 140q194 0 334 -140q137 -137 137 -334q0 -196 -137 -333 q-138 -138 -334 -138q-195 0 -333 138q-123 123 -138 286h-135v-305q0 -42 12 -56.5t45 -19.5h13l6 -20h-12q-8 0 -37.5 2t-36.5 2h-82q-3 0 -33.5 -2t-40.5 -2h-12zM446 444q0 -155 111 -266q113 -110 268 -110q157 0 267 110t110 266q0 160 -110 267q-110 110 -267 110 q-155 0 -268 -110q-111 -111 -111 -267zM715 449l110 110l111 -110l-111 -111z" />
<glyph unicode="&#x44f;" horiz-adv-x="937" d="M41 -4l6 20q7 -3 10 0q29 1 47 13.5t66 60.5l319 318q-81 26 -130.5 94t-49.5 149q0 107 75.5 175.5t186.5 68.5h211q7 0 36.5 2t37.5 2h12l-8 -20h-8q-36 -1 -47.5 -16.5t-11.5 -59.5v-713q0 -43 11.5 -58t47.5 -16h8l8 -20h-12q-8 0 -37.5 1t-36.5 1h-75q-7 0 -37 -1 t-37 -1h-12l8 20h10q35 1 46 16t11 58v305h-86l-399 -401q-16 1 -36 2t-31 1.5t-17 0.5q-9 0 -38.5 -1t-37.5 -1h-10zM406 649q0 -72 49.5 -120t124.5 -48h116v330h-116q-78 0 -126 -46t-48 -116z" />
<glyph unicode="&#x450;" horiz-adv-x="669" d="M41 356v15q0 9 1 39t1 34v74q0 7 -1 36.5t-1 37.5v14l18 -8v-12q6 -33 17.5 -44.5t42.5 -11.5v371h385q43 0 57 12t19 48v10l18 8v-12q0 -9 -1 -39.5t-1 -34.5v-78q0 -4 1 -34t1 -40v-14l-18 10v11q-5 36 -19 47.5t-57 11.5h-291v-277h285q41 0 53.5 11t17.5 45v12l23 8 v-14q0 -8 -1 -37.5t-1 -36.5v-74q0 -4 1 -34t1 -39v-15l-23 9v12q-5 34 -17.5 44.5t-53.5 10.5h-285v-332h291q43 0 57 12t19 46v10l18 10v-14q0 -8 -1 -37.5t-1 -36.5v-76q0 -4 1 -34t1 -39v-13l-18 6v13q-5 34 -19 45.5t-57 11.5h-299l-86 -86v514q-31 0 -42.5 -11.5 t-17.5 -43.5v-12zM244 1178h174l182 -191h-92z" />
<glyph unicode="&#x451;" horiz-adv-x="669" d="M41 356v15q0 9 1 39t1 34v74q0 7 -1 36.5t-1 37.5v14l18 -8v-12q6 -33 17.5 -44.5t42.5 -11.5v371h385q43 0 57 12t19 48v10l18 8v-12q0 -9 -1 -39.5t-1 -34.5v-78q0 -4 1 -34t1 -40v-14l-18 10v11q-5 36 -19 47.5t-57 11.5h-291v-277h285q41 0 53.5 11t17.5 45v12l23 8 v-14q0 -8 -1 -37.5t-1 -36.5v-74q0 -4 1 -34t1 -39v-15l-23 9v12q-5 34 -17.5 44.5t-53.5 10.5h-285v-332h291q43 0 57 12t19 46v10l18 10v-14q0 -8 -1 -37.5t-1 -36.5v-76q0 -4 1 -34t1 -39v-13l-18 6v13q-5 34 -19 45.5t-57 11.5h-299l-86 -86v514q-31 0 -42.5 -11.5 t-17.5 -43.5v-12zM111 1061l88 90l92 -90l-92 -90zM410 1061l88 90l92 -90l-92 -90z" />
<glyph unicode="&#x452;" horiz-adv-x="989" d="M16 1104v57h152q0 73 -19 100t-55 27q-21 0 -67 -16l-11 35l285 114h33v-260h409v-57h-409v-354q102 138 155 165t107 27q135 0 205.5 -135.5t70.5 -398.5q0 -792 -491 -850v36q168 40 235 205q68 165 68 545q0 274 -37 375q-35 102 -121 102q-82 0 -192 -137v-432 q0 -132 24 -166q26 -34 117 -49v-37h-448v37q92 9 116 49q25 42 25 166v852h-152z" />
<glyph unicode="&#x453;" horiz-adv-x="839" d="M33 -432v1331h383q42 0 56.5 12.5t19.5 46.5v11l20 8v-12q0 -9 -2 -39.5t-2 -34.5v-78q0 -3 2 -33t2 -39v-14l-20 8v13q-5 34 -19 45.5t-57 11.5h-289v-1143zM57 987l183 191h174l-267 -191h-90z" />
<glyph unicode="&#x454;" horiz-adv-x="1069" d="M43 440q0 197 137 334q139 139 334 139q149 0 262 -82v-71q0 -2 2 -28.5t2 -39.5v-10h-22q-9 49 -49 78q-94 55 -195 55q-153 0 -264 -108q-94 -94 -109 -215h232q42 0 56.5 11.5t19.5 47.5v10l20 6v-12q0 -7 -2 -37t-2 -37v-80q0 -4 2 -33.5t2 -39.5v-15l-20 9v12 q-5 33 -19.5 44t-56.5 11h-232q15 -119 109 -213q110 -110 264 -110q102 0 207 63q31 36 37 80h18v-14q0 -10 -2 -37t-2 -31l4 -78q-118 -80 -262 -80q-197 0 -334 137t-137 334z" />
<glyph unicode="&#x455;" horiz-adv-x="796" d="M100 176l127 55l6 -14q-32 -19 -32 -43q0 -31 43 -68q54 -45 127 -45q85 0 139.5 49t54.5 119q0 85 -133 156l-143 78q-89 49 -123 102q-29 50 -29 113q0 97 71 160t173 63q173 0 246 -149l-103 -93l-12 19q23 26 23 43q0 35 -45.5 64.5t-100.5 29.5q-79 0 -119 -43 q-41 -38 -41 -94q0 -74 117 -135l166 -88q145 -80 145 -226q0 -113 -86 -184q-87 -72 -204 -72q-123 0 -201 84q-57 61 -66 119z" />
<glyph unicode="&#x456;" horiz-adv-x="569" d="M61 -4l9 20h10q33 2 46 18t13 58v713q0 42 -13 57t-46 17h-10l-9 20h13q13 0 42 -1t31 -1h84q3 0 33.5 1t40.5 1h12l-8 -20h-10q-36 -2 -48.5 -17t-12.5 -57v-713q0 -43 13 -58.5t48 -17.5h10l8 -20h-12q-10 0 -40.5 2t-33.5 2h-84q-2 0 -31 -2t-42 -2h-13z" />
<glyph unicode="&#x457;" horiz-adv-x="569" d="M2 1165l88 90l92 -90l-92 -90zM59 831l277 111h43v-735q0 -88 12 -115q14 -31 40 -43t87 -12v-37h-444v37q69 0 90 12q26 13 37.5 46t11.5 112v352q0 154 -8 195q-11 57 -64 57q-24 0 -67 -16zM301 1165l88 90l92 -90l-92 -90z" />
<glyph unicode="&#x458;" horiz-adv-x="569" d="M-156 899h11q13 0 42 -1t31 -1h80q3 0 33.5 1t40.5 1h12l-8 -20h-12q-33 -2 -46.5 -17t-13.5 -57v-1088l-92 -159v1247q0 42 -12.5 57t-48.5 17h-11z" />
<glyph unicode="&#x459;" horiz-adv-x="1488" d="M12 98q0 35 26 57.5t60 22.5q32 0 82 -41q45 -39 74 -39q56 0 80 70t24 248v225q0 149 -24 193q-23 42 -113 45v36h860v-36q-100 0 -123 -13q-25 -14 -38 -30q-15 -18 -15 -136v-192l115 2q407 0 407 -252q0 -119 -100.5 -188.5t-286.5 -69.5h-440v37q83 0 111 31t28 147 v637h-307v-395q0 -194 -22 -287q-23 -88 -85.5 -137t-152.5 -49q-67 0 -113.5 32t-46.5 82zM905 80q52 -14 107 -14q100 0 162.5 52t62.5 134q0 192 -266 192q-39 0 -66 -2v-362z" />
<glyph unicode="&#x45a;" horiz-adv-x="1480" d="M45 0v37q90 0 113 33q26 33 26 145v485q0 109 -12 127q-9 17 -18 26.5t-36.5 17.5t-72.5 8v36h461v-36q-90 0 -111 -15q-25 -18 -35 -35q-12 -21 -12 -129v-192h381v192q0 93 -10 123q-8 30 -39 43t-107 13v36h486v-36q-70 0 -107 -11q-28 -9 -43 -37q-14 -25 -14 -131 v-192h98q424 0 424 -246q0 -112 -97 -187t-257 -75h-490v37q18 2 40 4t32.5 2.5t24.5 3.5t19.5 6.5t13.5 12.5t11 19.5t6.5 30.5t5 42t3.5 57v227h-381v-227q0 -106 12 -127q12 -20 35 -37q20 -14 111 -14v-37h-461zM895 80q55 -14 117 -14q95 0 155 53.5t60 130.5 q0 74 -56 133t-198 59h-78v-362z" />
<glyph unicode="&#x45b;" horiz-adv-x="1024" d="M12 1311l295 110h27v-272h422v-59h-422v-338q106 118 172 153q67 37 133 37q83 0 139 -47q55 -46 76 -123q20 -73 20 -242v-323q0 -112 29 -141t88 -29h21v-37h-451v37h21q62 0 86 18q26 19 33.5 46t7.5 106v323q0 178 -33 234q-29 57 -113 57q-110 0 -229 -131v-483 q0 -91 8 -115q23 -55 139 -55v-37h-454v37q89 0 115 32.5t26 137.5v883h-145v59h143q-1 63 -11 95t-22.5 39t-36.5 7q-26 0 -69 -14z" />
<glyph unicode="&#x45c;" horiz-adv-x="995" d="M47 -4l6 20h10q36 2 49 17t13 57v713q0 42 -13.5 58t-48.5 18h-10l-6 20h10q13 0 43 -2t33 -2h78q4 0 34 2t40 2h12l-8 -20h-13q-33 -2 -45 -18t-12 -58v-211l230 207q34 34 34 53q0 12 -16 41l-8 6l10 21l8 -9l47 -59l43 -49q30 -25 56 -51l8 -13l-23 -6l-6 8 q-26 23 -41 23q-17 0 -53 -31l-256 -231l407 -412q53 -50 69.5 -61.5t45.5 -12.5q3 -3 8 0l13 -20h-17q-3 0 -31.5 1t-41.5 1q-4 0 -14.5 -0.5t-30.5 -1.5t-37 -2l-404 403v-307q0 -42 12 -57t45 -17h13l8 -20h-12q-10 0 -40 1t-34 1h-78q-3 0 -33 -1t-43 -1h-10zM465 987 l182 191h174l-266 -191h-90z" />
<glyph unicode="&#x45d;" horiz-adv-x="1095" d="M47 -4l6 20h13q33 2 45 17t12 57v715q0 42 -12 57t-45 17h-13l-6 20h12q9 0 39.5 -2t34.5 -2h76q7 0 36.5 2t37.5 2h14l-10 -20h-11q-33 -2 -45 -17t-12 -57v-563l518 553v10q0 42 -12 57t-45 17h-12l-6 20h12q10 0 40 -2t34 -2h75q7 0 36.5 2t37.5 2h14l-10 -20h-10 q-33 -2 -45 -17t-12 -57v-715q0 -42 12 -57t45 -17h10l10 -20h-14q-8 0 -37.5 2t-36.5 2h-75q-4 0 -34 -2t-40 -2h-12l6 20h12q33 2 45 17t12 57v563l-518 -551v-12q0 -42 12 -57t45 -17h11l10 -20h-14q-8 0 -37.5 2t-36.5 2h-76q-4 0 -34.5 -2t-39.5 -2h-12zM123 1178h174 l182 -191h-92z" />
<glyph unicode="&#x45e;" horiz-adv-x="1024" d="M12 879v36h426v-36h-20q-88 0 -88 -70q0 -39 30 -107l224 -460l202 497q21 49 21 84q0 56 -92 56v36h297v-36q-51 -6 -77.5 -33t-57.5 -105l-373 -913q-52 -128 -137 -199t-168 -71q-58 0 -99 31.5t-41 80.5q0 92 107 92q32 0 82 -18q44 -18 55 -18q76 0 135 151l66 160 l-330 690q-66 137 -162 152zM207 1282q0 36 19 58t50 22q66 0 115 -125q28 -63 62 -83.5t79 -20.5q62 0 94.5 26t59.5 96q44 105 105 105q31 0 51 -22t20 -54q0 -76 -102 -143q-104 -66 -225 -66q-159 0 -243.5 58t-84.5 149z" />
<glyph unicode="&#x45f;" horiz-adv-x="1095" d="M45 0v37q92 0 115 33q24 34 24 145v485q0 107 -10 127q-9 17 -18.5 26.5t-37.5 17.5t-73 8v36h444v-36q-69 0 -90 -15q-23 -13 -37 -33q-12 -21 -12 -131v-514q0 -89 15 -104q16 -16 86 -16h176q90 0 104 14t14 108v512q0 104 -10 127q-9 17 -18.5 26.5t-37.5 17.5t-73 8 v36h445v-36q-69 0 -90 -15q-23 -13 -37 -33q-13 -23 -13 -131v-485q0 -101 11 -127q10 -16 20.5 -25.5t38 -17.5t70.5 -8v-37h-205q-146 0 -209.5 -64.5t-69.5 -189.5h-39q-15 146 -79 200t-203 54h-201z" />
<glyph unicode="&#x460;" horiz-adv-x="2400" d="M72 657q0 306 207 519q207 210 512 210q123 0 206 -30q115 -47 115 -144q0 -114 -106 -114q-95 0 -95 92q0 10 8.5 38t8.5 34q0 26 -41 41q-32 14 -78 14q-247 0 -385 -191q-123 -170 -123 -426q0 -258 111 -448q138 -215 360 -215q200 9 332 135v332q0 78 -6 102 q-12 59 -58 80q-37 16 -114 16v37h551v-37q-133 0 -162 -63q-17 -39 -17 -135v-332q132 -126 320 -135q229 0 373 217q108 188 108 446q0 256 -123 426q-138 191 -385 191q-46 0 -78 -14q-38 -14 -38 -41q0 -6 8 -34t8 -38q0 -92 -96 -92q-107 0 -107 114q0 98 117 144 q83 30 207 30q303 0 512 -215q205 -211 205 -514q0 -315 -199 -505q-210 -183 -510 -183q-243 9 -420 133q-174 -124 -428 -133q-301 0 -502 183q-198 189 -198 505z" />
<glyph unicode="&#x461;" horiz-adv-x="1296" d="M35 915h174q0 -89 31 -174l196 -526l197 428l-37 98q-37 87 -37 174h174q0 -101 33 -174l201 -505l104 276q29 79 29 135q0 28 -17 101q-14 60 -14 96q0 98 109 98q84 0 84 -88q0 -57 -111 -342l-213 -541h-41l-229 586l-267 -586h-36l-295 770q-35 93 -35 174z" />
<glyph unicode="&#x462;" horiz-adv-x="1374" d="M20 858l17 318h391q-3 89 -45 114q-37 26 -150 29v37h584v-37q-112 -3 -149 -29q-39 -23 -45 -114h391l14 -318h-39q-9 81 -28 121q-61 113 -220 113h-118v-347h53q207 0 301 -16q171 -30 256 -135q74 -89 74 -215q0 -202 -156 -297q-128 -82 -342 -82h-576v37 q127 3 162 41q35 41 35 170v844h-104q-96 0 -136 -15q-118 -43 -133 -219h-37zM623 82q83 -14 137 -14q135 0 227 86q94 88 94 223q0 152 -112 227q-95 68 -256 68q-49 0 -90 -8v-582z" />
<glyph unicode="&#x463;" horiz-adv-x="1112" d="M31 666l37 249h294v160q0 179 -30 203q-15 12 -39 12q-31 0 -72 -14l-12 35l274 110h45v-506h310l36 -249h-43q-38 126 -75 153q-39 33 -164 33h-64v-344l113 2q410 6 410 -252q0 -140 -131 -207q-99 -51 -256 -51h-441v37q94 0 121 43q18 30 18 135v637h-49 q-124 0 -163 -33q-38 -33 -76 -153h-43zM528 80q49 -14 107 -14q91 0 153 45q70 52 70 141q0 192 -266 192q-37 0 -64 -2v-362z" />
<glyph unicode="&#x464;" horiz-adv-x="1982" d="M39 0v37h41q116 0 141 72q12 30 12 131v876q0 81 -6 105q-9 58 -55 79q-40 19 -102 19h-31v37h582v-37h-31q-115 0 -150 -66q-14 -25 -14 -137v-385h281q12 177 103.5 326t244.5 241q143 88 331 88q136 0 291 -57q38 -14 58 -14q35 0 75 69h33l25 -452h-37 q-27 158 -156 272q-125 113 -289 113q-214 0 -335 -195q-100 -158 -115 -391h528v-74h-528q0 -166 55 -303q64 -155 189 -239q101 -70 245 -70q281 0 471 258l27 -20q-194 -314 -537 -314q-294 0 -487 199q-188 197 -194 489h-279v-417q0 -112 25 -154q34 -49 139 -49h31 v-37h-582z" />
<glyph unicode="&#x465;" horiz-adv-x="1386" d="M45 0v37q59 3 74 6q36 9 51 43q14 28 14 129v485q0 109 -16 138q-25 38 -123 41v36h442v-36q-103 0 -127 -52q-12 -21 -12 -127v-180h232q15 178 125 291q125 131 284 131q55 0 156 -29q59 -16 72 -16q22 0 43 18h36v-284h-36q-12 103 -70 170q-66 78 -162 78 q-115 0 -186 -127q-56 -100 -70 -232h297v-65h-303v-49q0 -371 276 -371q168 0 283 160l35 -21q-138 -203 -338 -203q-195 0 -322 148q-119 137 -122 336h-230v-240q0 -82 2 -88q9 -53 43 -74q26 -16 94 -16v-37h-442z" />
<glyph unicode="&#x466;" d="M0 0v37q53 12 88 47q55 49 94 149l512 1153h37l563 -1169q49 -88 66 -108q48 -63 119 -72v-37h-455v37q50 6 68 18q22 19 22 72q0 51 -55 158l-146 305h-157v-375q0 -118 10 -141q15 -37 96 -37v-37h-379v37q84 0 99 37q8 19 8 141v375h-156l-133 -295q-47 -118 -47 -162 q0 -81 84 -96v-37h-338zM465 659h416l-219 451z" />
<glyph unicode="&#x467;" horiz-adv-x="1208" d="M0 0v37q43 8 74 39q14 14 61 82l434 786h41l439 -774q43 -75 65 -92q29 -26 94 -41v-37h-381v37q70 0 70 69q0 28 -33 84l-149 265h-84v-250q0 -121 8 -137q15 -31 98 -31v-37h-381v37q84 0 99 31q10 20 10 137v250h-94l-154 -285q-24 -46 -24 -74q0 -59 65 -59v-37h-258 zM399 510h285l-141 260z" />
<glyph unicode="&#x468;" horiz-adv-x="2115" d="M35 0v37h41q116 0 141 72q12 30 12 131v876q0 81 -6 105q-9 58 -55 79q-40 19 -102 19h-31v37h581v-37h-30q-115 0 -150 -66q-14 -25 -14 -137v-434h618l289 704h37l528 -1169q48 -91 62 -108q48 -63 153 -72v-37h-493v37q49 6 67 18q23 20 23 72q0 53 -45 158l-152 321 h-127v-391q0 -115 11 -141q15 -37 98 -37v-37h-381v37q83 0 98 37q9 21 9 141v391h-115l-127 -311q-47 -118 -47 -162q0 -81 84 -96v-37h-359v37q73 12 111 47q52 46 92 149l154 373h-588v-366q0 -114 24 -154q34 -49 140 -49h30v-37h-581zM1130 682h349l-185 397z" />
<glyph unicode="&#x469;" horiz-adv-x="1708" d="M45 0v37q59 3 74 6q36 9 51 43q14 28 14 129v485q0 109 -16 138q-25 38 -123 41v36h442v-36q-103 0 -127 -52q-12 -21 -12 -127v-180h498l223 424h41l418 -774q43 -75 65 -92q25 -25 95 -41v-37h-402v37q88 0 88 69q0 24 -31 84l-139 265h-74v-250q0 -119 9 -137 q15 -31 98 -31v-37h-381v37q82 0 98 31q11 22 11 137v250h-82l-146 -285q-24 -46 -24 -74q0 -59 86 -59v-37h-279v37q49 8 80 39q23 21 55 82l156 297h-463v-240q0 -82 2 -88q9 -53 43 -74q26 -16 94 -16v-37h-442zM913 520h258l-131 244z" />
<glyph unicode="&#x46a;" horiz-adv-x="1835" d="M18 0v37q142 21 195 125l158 323q126 246 387 246l-484 625h1280l-487 -625q273 0 399 -246q36 -78 156 -323q57 -104 197 -125v-37h-346l-140 377q-40 106 -119 188q-97 97 -200 97v-414q0 -127 35 -168q34 -40 159 -43v-37h-583v37q126 3 161 41q35 41 35 170v414 q-103 0 -200 -97q-81 -88 -119 -188l-140 -377h-344zM551 1282l422 -547l422 547h-844z" />
<glyph unicode="&#x46b;" horiz-adv-x="1415" d="M23 0v37q71 6 104 39q37 34 111 231q64 180 360 180l-324 428h854l-317 -428q302 0 369 -180q70 -195 106 -231q36 -33 107 -39v-37h-271l-110 283q-58 147 -221 147v-199q0 -119 30 -153q32 -32 113 -41v-37h-453v37q95 9 119 49q25 42 25 145v199q-161 0 -219 -147 l-113 -283h-270zM500 844l254 -340l252 340h-506z" />
<glyph unicode="&#x46c;" horiz-adv-x="2473" d="M35 0v37h41q116 0 141 72q12 30 12 131v876q0 81 -6 105q-9 58 -55 79q-40 19 -102 19h-31v37h581v-37h-30q-115 0 -150 -66q-14 -25 -14 -137v-385h977l-484 625h1278l-487 -625q273 0 399 -246l156 -323q57 -104 197 -125v-37h-344l-140 377q-38 100 -119 188 q-97 97 -200 97v-414q0 -132 35 -170t159 -41v-37h-583v37q125 3 161 39q35 38 35 172v414q-103 0 -200 -97q-79 -82 -119 -188l-139 -377h-347v37q140 21 197 125q19 42 156 323q59 112 145 172h-733v-417q0 -114 24 -154q34 -49 140 -49h30v-37h-581zM1190 1282l424 -547 l422 547h-846z" />
<glyph unicode="&#x46d;" horiz-adv-x="1914" d="M45 0v37q59 3 74 6q36 9 51 43q14 28 14 129v485q0 109 -16 138q-25 38 -123 41v36h442v-36q-103 0 -127 -52q-12 -21 -12 -127v-213h750l-324 428h854l-317 -428q301 0 368 -180q71 -194 109 -229q39 -36 104 -39v-39h-270l-111 283q-59 147 -221 147v-197 q0 -122 31 -153q32 -32 113 -41v-39h-453v39q95 9 119 49t24 145v197q-160 0 -219 -147l-112 -283h-271v39q69 3 105 39q35 33 110 229q27 74 88 117h-477v-209q0 -82 2 -88q9 -53 43 -74q26 -16 94 -16v-37h-442zM999 844l254 -340l252 340h-506z" />
<glyph unicode="&#x46e;" horiz-adv-x="1026" d="M8 -180q0 99 66 180q73 94 196 94q38 0 111 -18q87 -17 113 -17q221 0 221 306q0 165 -123 245q-104 70 -279 70v65q129 0 199 21q93 29 148 106t55 177q0 113 -68 181t-180 68q-275 0 -330 -307h-35v393h35q15 -65 74 -65q21 0 94 27q59 21 117 30l-123 180 q-43 64 -78 64v18h201v-18q-53 0 -53 -31q0 -15 24 -53l99 -152l120 185q49 76 95 76q47 0 47 -52q0 -45 -43 -45q-5 0 -17 4t-16 4q-18 0 -53 -53l-78 -117q149 0 256 -90q110 -94 110 -245q0 -126 -82 -217q-74 -83 -198 -123q138 -25 222.5 -124t84.5 -239 q0 -180 -97 -279.5t-276 -99.5q-27 0 -110 17q-69 14 -113 14q-76 0 -117 -68q-28 -51 -28 -116q0 -187 159 -187q37 0 160 66q124 65 211 65q262 0 262 -129q0 -30 -25 -51.5t-57 -21.5q-43 0 -102 65q-60 66 -125 66q-26 0 -158 -66q-127 -65 -225 -65q-291 0 -291 262z " />
<glyph unicode="&#x46f;" horiz-adv-x="808" d="M0 -180q0 101 57 176q66 78 164 78q22 0 92 -17q57 -14 88 -14q152 0 152 207q0 199 -256 211v57q99 0 162 51q67 55 67 152q0 73 -48.5 118.5t-121.5 45.5q-176 0 -235 -256h-37v286h43q16 -16 39 -16q12 0 74 16q50 15 84 21l-121 178q-43 64 -78 64v18h201v-18 q-56 0 -56 -31q0 -13 27 -53l98 -152l119 184q52 76 94 76q47 0 47 -51q0 -45 -43 -45q-5 0 -16 3t-16 3q-20 0 -54 -51l-80 -121q92 -10 154 -47q105 -61 105 -172q0 -155 -236 -225q274 -59 274 -258q0 -127 -98 -203q-82 -64 -186 -64q-35 0 -97 15q-57 14 -88 14 q-60 0 -90 -68q-24 -53 -24 -116q0 -70 26 -121q35 -66 99 -66q17 0 114 66q100 65 170 65q222 0 222 -129q0 -30 -25 -51.5t-57 -21.5q-53 0 -88 65q-35 66 -101 66q-15 0 -112 -66q-95 -65 -170 -65q-114 0 -177 75q-61 70 -61 187z" />
<glyph unicode="&#x470;" horiz-adv-x="1511" d="M18 1319v37h265l157 -432q64 -178 123 -234q35 -35 96 -35v437q0 116 -12 151q-26 76 -192 76v37h602v-37q-164 -3 -191 -76q-14 -32 -14 -151v-437q245 0 301 158q22 71 31 221q6 170 69 248q75 90 236 90v-39q-72 -3 -90 -80q-8 -27 -8 -135q0 -177 -31 -268 q-43 -129 -172 -199q-120 -63 -336 -69v-318q0 -89 4 -117q15 -63 68 -90q41 -20 133 -20v-37h-602v37q163 3 190 74q14 32 14 153v318q-220 0 -303 176q-97 230 -198 446q-63 106 -140 115z" />
<glyph unicode="&#x471;" horiz-adv-x="1282" d="M29 879v36q55 15 100 15q163 0 197 -156l139 -620q12 -60 27 -78q27 -43 94 -43v897h108v-897q130 37 180 188q24 76 44 275l22 206q27 138 82 187q47 41 129 41q47 0 102 -15v-36h-18q-70 0 -100 -131q-11 -50 -25 -181q-16 -134 -35 -219q-25 -104 -94 -198 q-99 -132 -287 -170v-418h-108v418q-153 0 -217.5 38t-87.5 142l-123 561q-22 93 -23 94q-24 64 -88 64h-18z" />
<glyph unicode="&#x472;" d="M72 682q0 322 221 528q191 176 457 176q285 0 471 -210q180 -201 180 -490q0 -299 -184 -504q-192 -213 -484 -213q-296 0 -483 211q-178 202 -178 502zM301 664q6 -318 141 -488q108 -135 289 -135q234 0 348 199q90 159 90 413q-74 -47 -102 -59q-77 -39 -158 -39 q-77 0 -204 74q-125 73 -177 73q-95 0 -227 -38zM301 727q77 49 105 61q75 37 157 37q80 0 205 -73q127 -74 176 -74q92 0 225 39q-9 261 -98 409q-115 189 -342 189q-218 0 -332 -193q-90 -159 -96 -395z" />
<glyph unicode="&#x473;" horiz-adv-x="1024" d="M70 449q0 124 59 245q61 125 161 186.5t222 61.5q206 0 334 -158q106 -132 106 -309q0 -131 -57 -248q-60 -126 -162.5 -191t-230.5 -65q-207 0 -330 166q-102 138 -102 312zM256 520q92 68 160 68q48 0 127 -49q83 -50 114 -50q43 0 103 31q-18 139 -78 236 q-79 123 -201 123q-124 0 -182 -119q-43 -87 -43 -228v-12zM258 457q12 -149 78 -269q77 -145 209 -145q223 0 223 354q0 33 -2 58q-94 -66 -162 -66q-46 0 -129 47q-79 49 -113 49q-43 0 -104 -28z" />
<glyph unicode="&#x474;" horiz-adv-x="1665" d="M57 1319v37h555v-37q-149 -15 -149 -90q0 -53 45 -158l346 -795l352 865q102 245 256 245q142 0 142 -126q0 -46 -28.5 -77.5t-74.5 -31.5q-25 0 -65 18q-40 21 -56 21q-40 0 -63 -33q-26 -34 -45 -82l-455 -1106h-37l-508 1170q-43 93 -55 108q-48 63 -160 72z" />
<glyph unicode="&#x475;" horiz-adv-x="1206" d="M57 879v36h430v-36h-26q-80 0 -80 -70q0 -34 20 -84l213 -506l213 529q26 63 33 75q17 39 43 68q45 51 109 51q51 0 82.5 -27t31.5 -75q0 -63 -55 -84q-13 -8 -31 -8q-8 0 -39 8t-43 8q-30 0 -51 -27q-21 -29 -39 -80l-282 -686h-41l-328 774q-39 91 -92 117 q-15 7 -68 17z" />
<glyph unicode="&#x476;" horiz-adv-x="1665" d="M57 1319v37h555v-37q-149 -15 -149 -90q0 -53 45 -158l346 -795l352 865q102 245 256 245q142 0 142 -126q0 -46 -28.5 -77.5t-74.5 -31.5q-25 0 -65 18q-40 21 -56 21q-40 0 -63 -33q-26 -34 -45 -82l-455 -1106h-37l-508 1170q-43 93 -55 108q-48 63 -160 72zM582 1794 h102l111 -344h-103zM793 1794h102l111 -344h-105z" />
<glyph unicode="&#x477;" horiz-adv-x="1206" d="M57 879v36h430v-36h-26q-80 0 -80 -70q0 -34 20 -84l213 -506l213 529q26 63 33 75q17 39 43 68q45 51 109 51q51 0 82.5 -27t31.5 -75q0 -63 -55 -84q-13 -8 -31 -8q-8 0 -39 8t-43 8q-30 0 -51 -27q-21 -29 -39 -80l-282 -686h-41l-328 774q-39 91 -92 117 q-15 7 -68 17zM322 1391h104l109 -347h-103zM532 1391h103l110 -347h-104z" />
<glyph unicode="&#x478;" horiz-adv-x="2242" d="M72 678q0 298 159 500q163 208 408 208q249 0 412 -208q159 -202 159 -500q0 -296 -159 -502q-165 -207 -412 -207q-243 0 -408 207q-159 206 -159 502zM301 678q0 -635 338 -635q190 0 276 213q66 163 66 422q0 255 -66 422q-86 215 -276 215q-338 0 -338 -637z M1278 -330q0 92 102 92q34 0 90 -20q43 -16 52 -16q72 0 137 151l63 160l-278 690q-11 29 -41 78q-19 25 -47 47q-20 14 -76 27v36h428v-36h-20q-91 0 -91 -68q0 -24 33 -109l172 -460l205 506q18 40 18 79q0 34 -32 45q-17 7 -60 7v36h297v-36q-59 -6 -100 -62 q-12 -17 -35 -76l-373 -913q-45 -111 -116 -182q-88 -88 -193 -88q-48 0 -90 28q-45 33 -45 84z" />
<glyph unicode="&#x479;" horiz-adv-x="1802" d="M70 457q0 189 94 329q108 156 282 156q175 0 283 -156q96 -143 96 -329q0 -188 -96 -328q-109 -158 -283 -158q-173 0 -282 158q-94 137 -94 328zM244 457q0 -146 37 -256q52 -162 165 -162t168 162q37 110 37 256t-37 258q-55 162 -168 162t-165 -162q-37 -112 -37 -258 zM838 -330q0 92 102 92q34 0 90 -20q43 -16 49 -16q76 0 138 151l65 160l-278 690q-11 30 -43 78q-26 33 -48.5 48t-72.5 26v36h428v-36h-23q-90 0 -90 -68q0 -19 35 -109l172 -460l205 506q16 43 16 79q0 33 -31 45q-17 7 -59 7v36h297v-36q-62 -6 -100 -62 q-12 -17 -35 -76l-373 -913q-48 -111 -119 -182q-88 -88 -190 -88q-50 0 -92 28q-43 34 -43 84z" />
<glyph unicode="&#x47a;" horiz-adv-x="1562" d="M43 680q0 310 190 506q178 178 443 196q28 72 104 72q79 0 107 -72q266 -18 440 -198q193 -196 193 -506q0 -313 -193 -506q-176 -179 -440 -197q-27 -73 -107 -73q-77 0 -104 73q-264 18 -443 197q-190 196 -190 508zM270 680q0 -271 119 -442q111 -163 287 -187 q27 74 104 74q80 0 107 -74q175 24 287 185q116 171 116 442q0 269 -116 440q-111 163 -287 187q-28 -72 -107 -72q-76 0 -104 72q-175 -24 -287 -185q-119 -168 -119 -440z" />
<glyph unicode="&#x47b;" horiz-adv-x="1159" d="M70 461q0 191 114 311q107 110 289 137q11 25 29 43q36 31 78 31q43 0 79 -31q17 -20 27 -43q182 -27 289 -137q115 -121 115 -311q0 -193 -115 -314q-106 -112 -289 -139q-24 -76 -106 -76q-81 0 -105 74q-182 27 -291 139q-114 120 -114 316zM256 461q0 -317 219 -379 q8 19 27 41q36 31 78 31q43 0 79 -31q19 -19 25 -41q217 61 217 379q0 309 -217 373q-28 -72 -104 -72q-45 0 -78 33q-21 21 -27 41q-219 -65 -219 -375z" />
<glyph unicode="&#x47c;" horiz-adv-x="2484" d="M72 657q0 195 86 365q92 176 254 270q155 94 350 94q120 0 203 -30q118 -43 118 -144q0 -114 -106 -114q-94 0 -94 92q0 8 7 36.5t7 35.5q0 27 -39 41q-32 14 -80 14q-296 0 -416 -289q-63 -147 -63 -373q0 -381 238 -526q123 -72 270 -72q115 0 240 70q120 64 194 160 q78 -96 197 -160q125 -70 239 -70q326 0 449 279q57 132 57 319q0 224 -61 373q-121 287 -416 287q-50 0 -80 -12q-39 -14 -39 -41q0 -7 8.5 -35.5t8.5 -36.5q0 -92 -97 -92q-106 0 -106 114q0 101 119 144q82 30 202 30q141 4 270 -53t222 -155t147 -235t52 -286 q0 -248 -140 -438q-185 -250 -522 -250q-347 0 -510 144q-185 -144 -510 -144q-335 0 -520 250q-139 189 -139 438zM844 1694q82 264 370 264q103 0 345 -82q248 -80 413 -80l-74 -102q-128 0 -372 96q-235 98 -312 98q-182 0 -235 -194h-135zM1116 1688q0 94 105 94 q59 0 99 -47.5t40 -110.5q0 -161 -209 -238v37l90 56q43 34 43 90q0 49 -29 49q-7 0 -29.5 -7t-29.5 -7q-32 0 -56 25.5t-24 58.5z" />
<glyph unicode="&#x47d;" horiz-adv-x="1622" d="M70 457q0 191 112 327q122 146 312 158l10 -51q-273 -41 -273 -348q0 -170 64 -283q77 -141 235 -141q160 0 281 133q124 -133 281 -133q161 0 237 137q62 112 62 287q0 307 -273 348l10 51q190 -12 312 -158q112 -136 112 -327q0 -190 -96 -330q-108 -156 -293 -156 q-214 0 -352 156q-141 -156 -352 -156q-185 0 -293 156q-96 140 -96 330zM414 1298q83 263 370 263q99 0 344 -80q248 -80 414 -80l-74 -103q-126 0 -372 97q-235 98 -312 98q-182 0 -235 -195h-135zM686 1305q0 92 105 92q60 0 99.5 -46.5t39.5 -111.5q0 -158 -207 -235v36 l88 56q43 34 43 88q0 49 -29 49q-7 0 -30 -6t-27 -6q-35 0 -58.5 24.5t-23.5 59.5z" />
<glyph unicode="&#x47e;" horiz-adv-x="2400" d="M72 657q0 306 207 519q207 210 512 210q123 0 206 -30q115 -47 115 -144q0 -114 -106 -114q-95 0 -95 92q0 10 8.5 38t8.5 34q0 26 -41 41q-32 14 -78 14q-247 0 -385 -191q-123 -170 -123 -426q0 -258 111 -448q138 -215 360 -215q200 9 332 135v332q0 78 -6 102 q-12 59 -58 80q-37 16 -114 16v37h551v-37q-133 0 -162 -63q-17 -39 -17 -135v-332q132 -126 320 -135q229 0 373 217q108 188 108 446q0 256 -123 426q-138 191 -385 191q-46 0 -78 -14q-38 -14 -38 -41q0 -6 8 -34t8 -38q0 -92 -96 -92q-107 0 -107 114q0 98 117 144 q83 30 207 30q303 0 512 -215q205 -211 205 -514q0 -315 -199 -505q-210 -183 -510 -183q-243 9 -420 133q-174 -124 -428 -133q-301 0 -502 183q-198 189 -198 505zM743 1675h914l-90 -194h-33l-47 100h-223l-47 -100h-33l-47 100h-224l-47 -100h-32z" />
<glyph unicode="&#x47f;" horiz-adv-x="1296" d="M35 915h174q0 -89 31 -174l196 -526l197 428l-37 98q-37 87 -37 174h174q0 -101 33 -174l201 -505l104 276q29 79 29 135q0 28 -17 101q-14 60 -14 96q0 98 109 98q84 0 84 -88q0 -57 -111 -342l-213 -541h-41l-229 586l-267 -586h-36l-295 770q-35 93 -35 174zM193 1294 h913l-90 -194h-33l-47 100h-223l-47 -100h-33l-47 100h-224l-47 -100h-32z" />
<glyph unicode="&#x480;" horiz-adv-x="1366" d="M74 657q0 196 88 365q89 177 254 272q160 92 348 92q146 0 291 -71q48 -23 59 -23q63 0 84 94h35l31 -460h-31q-117 389 -453 389q-294 0 -415 -287q-64 -149 -64 -373q0 -381 238 -526q123 -72 270 -72q66 0 119 15v-252q0 -100 12 -135q27 -68 133 -68h49v-37h-581v37 h49q84 0 121 49q24 30 24 154v155q-340 0 -522 244q-139 189 -139 438z" />
<glyph unicode="&#x481;" horiz-adv-x="909" d="M70 457q0 200 116 340q127 145 322 145q104 0 199 -53q108 -65 108 -166q0 -84 -92 -84q-61 0 -88 37q-13 13 -23 82q-15 119 -139 119q-98 0 -160 -74q-82 -98 -82 -260q0 -156 70 -275q83 -141 229 -141q59 0 95 8v-358q0 -82 2 -90q9 -55 45 -72q32 -16 90 -16v-37 h-461v37q68 3 80 6q43 9 61 43q17 34 17 129v200q-160 0 -273 125q-116 131 -116 355z" />
<glyph unicode="&#x482;" horiz-adv-x="684" d="M31 598l26 78l209 -74l78 232l-209 71l29 78l207 -72l172 510h80l-181 -534l211 -74l-26 -76l-211 72l-78 -231l209 -72l-27 -78l-209 72l-180 -529h-80l189 553z" />
<glyph unicode="&#x483;" horiz-adv-x="0" d="M-346 1174q0 45 33 77.5t80 32.5h358v19q0 47 33 79.5t78 32.5q47 0 79.5 -32.5t32.5 -79.5q0 -45 -32.5 -78t-79.5 -33h-359v-18q0 -47 -32.5 -80t-77.5 -33q-47 0 -80 33t-33 80z" />
<glyph unicode="&#x484;" horiz-adv-x="0" d="M-324 1225v129h113q63 0 166 47q98 49 160 49q213 0 213 -225h-66q0 58 -34.5 98.5t-88.5 40.5q-41 0 -151 -70q-112 -69 -199 -69h-113z" />
<glyph unicode="&#x485;" horiz-adv-x="0" d="M-123 1282q0 63 40 110.5t99 47.5q45 0 75 -26t30 -68q0 -33 -24 -58.5t-56 -25.5q-9 0 -32 7t-27 7q-29 0 -29 -49q0 -53 43 -90q5 -5 90 -56v-37q-209 77 -209 238z" />
<glyph unicode="&#x486;" horiz-adv-x="0" d="M-123 1346q0 42 30.5 68t74.5 26q62 0 102 -49q37 -46 37 -109q0 -161 -207 -238v37l90 56q41 38 41 90q0 49 -29 49q-4 0 -26 -7t-31 -7q-34 0 -58 25.5t-24 58.5z" />
<glyph unicode="&#x487;" horiz-adv-x="0" d="M-563 1298q83 263 370 263q109 0 363 -80q257 -80 393 -80l-71 -103q-120 0 -363 97q-235 98 -322 98q-184 0 -237 -195h-133z" />
<glyph unicode="&#x488;" horiz-adv-x="0" d="M-981 465q0 106 49 170q57 72 162 72q211 0 211 -242h-90q0 147 -121 147t-121 -147h-90zM-860 -92q0 108 49 172q57 72 162 72q211 0 211 -244h-92q0 149 -119 149q-121 0 -121 -149h-90zM-860 971q0 106 49 170q56 71 162 71q211 0 211 -241h-92q0 147 -119 147 q-121 0 -121 -147h-90zM-221 -336q0 106 49 170q56 74 162 74q211 0 211 -244h-90q0 150 -121 150q-119 0 -119 -150h-92zM-221 1214q0 106 49 170q57 72 162 72q211 0 211 -242h-90q0 150 -121 150q-119 0 -119 -150h-92zM438 -92q0 244 211 244q105 0 162 -72 q49 -64 49 -172h-90q0 149 -121 149q-119 0 -119 -149h-92zM438 971q0 241 211 241q106 0 162 -71q49 -64 49 -170h-90q0 147 -121 147q-119 0 -119 -147h-92zM559 465q0 242 211 242q105 0 162 -72q49 -64 49 -170h-90q0 147 -121 147t-121 -147h-90z" />
<glyph unicode="&#x489;" horiz-adv-x="0" d="M-948 604h90q9 -74 115 -74v76h147v-153h-139q-74 0 -133 41q-65 44 -80 110zM-799 -88l64 63q21 -18 47 -18q41 0 88 47l-55 53l104 105l109 -109l-99 -98q-51 -51 -121 -66q-75 -15 -137 23zM-715 1090q-15 75 23 137l63 -64q-16 -22 -16 -47q0 -43 45 -88l53 55 l105 -104l-109 -109l-98 99q-51 51 -66 121zM-92 -59h151v-140q0 -77 -39 -133q-44 -66 -112 -80v88q76 9 76 117h-76v148zM-92 1188v139q0 75 41.5 135.5t109.5 77.5v-90q-75 -9 -75 -115h75v-147h-151zM442 137l109 109l96 -99q54 -54 68 -120q15 -76 -23 -138l-63 64 q16 22 16 47q0 43 -45 88l-53 -53zM442 1063l99 98q51 51 121 66q75 15 137 -23l-64 -61q-22 16 -49 16q-39 0 -86 -47l53 -53l-102 -105zM596 510v154h139q74 0 133 -41q65 -44 80 -111h-90q-9 74 -115 74v-76h-147z" />
<glyph unicode="&#x48a;" d="M37 0v37q127 3 162 41q34 40 34 170v862q0 129 -34 166q-34 40 -162 43v37h586v-37q-130 -3 -164 -43q-33 -36 -33 -166v-782l629 805q0 118 -41 153q-36 33 -160 33v37h588v-37q-128 -3 -162 -43q-35 -38 -35 -166v-862q0 -129 35 -170q35 -38 162 -41l-150 -426h-32 q18 89 18 151q0 127 -78 187q-71 51 -239 51h-107v37q129 3 164 41q37 40 37 170v776l-629 -805q0 -66 4 -94q12 -49 55 -70q41 -15 138 -18v-37h-586zM356 1716q0 36 22 62t54 26q44 0 78 -51q16 -26 45 -86q61 -125 184 -125q127 0 185 125q40 81 45 88q34 49 80 49 q32 0 53.5 -26t21.5 -62q0 -122 -141 -178q-98 -39 -244 -39q-143 0 -241 39q-142 56 -142 178z" />
<glyph unicode="&#x48b;" horiz-adv-x="1095" d="M45 0v37q94 0 121 43q18 30 18 135v485v91q-9 51 -45 71q-24 17 -94 17v36h444v-36q-96 0 -127 -48q-12 -21 -12 -131v-417l395 456q-3 73 -24 103q-27 34 -96 37v36h426v-36q-96 0 -127 -48q-13 -23 -13 -131v-485q0 -84 2 -90q6 -48 43 -72q26 -16 95 -16l-121 -291 h-37q12 67 12 109q0 76 -49 110q-53 35 -184 35h-66v37q93 0 119 45q20 29 20 133v430l-395 -459q3 -81 21 -108q20 -38 98 -41v-37h-424zM219 1282q0 80 70 80q65 0 117 -125q43 -104 141 -104q63 0 98 30q28 28 55 92q44 105 105 105q72 0 72 -76q0 -92 -123 -156 q-106 -53 -205 -53q-123 0 -213 41q-117 56 -117 166z" />
<glyph unicode="&#x48c;" horiz-adv-x="1175" d="M37 0v37q125 3 160 41q34 40 34 170v870h-194v74h194v164h193v-164h203v-74h-203v-373h53q207 0 301 -16q171 -30 256 -135q74 -89 74 -215q0 -202 -156 -297q-128 -82 -342 -82h-573zM424 82q83 -14 137 -14q135 0 227 86q95 89 95 223q0 151 -113 227q-95 68 -256 68 q-49 0 -90 -8v-582z" />
<glyph unicode="&#x48d;" horiz-adv-x="962" d="M45 1118v74h168v229h166v-229h170v-74h-170v-610l115 2q407 6 407 -252q0 -140 -131 -207q-99 -51 -256 -51h-438v37q95 0 119 43q18 30 18 135v903h-168zM379 80q49 -14 106 -14q94 0 154 45q72 54 72 141q0 192 -269 192q-36 0 -63 -2v-362z" />
<glyph unicode="&#x48e;" horiz-adv-x="1138" d="M35 0v37h51q83 0 123 55q18 34 18 148v876q0 127 -26 160q-40 43 -115 43h-51v37h495q160 0 254 -27q131 -38 211 -137q72 -90 72 -211q0 -211 -166 -313l117 -117l-53 -51l-136 135q-82 -29 -182 -29q-85 0 -227 29v-395q0 -126 29 -158q39 -45 114 -45h51v-37h-579z M420 692q103 -20 164 -20q87 0 151 55l-127 127l54 53l124 -127q54 76 54 181q0 198 -140 276q-62 39 -149 39q-52 0 -131 -21v-563z" />
<glyph unicode="&#x48f;" horiz-adv-x="1024" d="M-6 -401h24q56 0 95 22q39 20 39 160v864q0 88 -11 121q-15 41 -69 41q-27 0 -62 -14l-12 32l283 113h36v-213q129 217 293 217q142 0 232 -106q112 -130 112 -344q0 -242 -137 -394l-6 -6l143 -141l-53 -53l-143 145q-97 -72 -221 -72q-68 0 -129 23q-47 17 -91 59v-278 q0 -55 5 -90q9 -52 49 -70q29 -16 102 -16v-37h-479v37zM317 324q0 -104 11 -146q15 -66 75 -108q58 -37 129 -37q99 0 160 73l-145 148l51 51l135 -135q43 90 43 227q0 209 -92 324q-66 78 -152 78q-48 0 -96 -25q-36 -19 -119 -108v-342z" />
<glyph unicode="&#x490;" horiz-adv-x="921" d="M37 0v37q126 3 162 39q34 37 34 172v862q0 134 -34 168q-35 38 -162 41v37h534q92 0 148 16q57 18 93 76.5t40 153.5h33v-320h-459v-1034q0 -136 33 -172q36 -36 159 -39v-37h-581z" />
<glyph unicode="&#x491;" horiz-adv-x="718" d="M31 0v37q72 3 94 8q28 9 43 37q16 32 16 133v485q0 95 -10 125q-11 30 -39 41.5t-104 12.5v36h420q109 0 147 27q36 26 64 143h45v-233h-357v-637q0 -102 10 -125q9 -17 18.5 -26.5t37.5 -18t73 -8.5v-37h-458z" />
<glyph unicode="&#x492;" horiz-adv-x="1183" d="M35 678v74h198v358q0 129 -34 166q-34 40 -162 43v37h1087l6 -318h-38q-9 193 -131 230q-49 14 -156 14h-379v-530h389v-74h-389v-430q0 -130 33 -166q36 -42 159 -45v-37h-581v37q127 3 162 41q34 40 34 170v430h-198z" />
<glyph unicode="&#x493;" horiz-adv-x="839" d="M31 0v37q105 3 131 39q22 31 22 139v225h-147v82h147v178q0 81 -2 93q-9 56 -47 71q-27 12 -104 15v36h760l36 -249h-45q-38 126 -75 153q-39 33 -162 33h-195v-330h209v-82h-209v-225q0 -84 2 -90q6 -48 43 -72q26 -16 94 -16v-37h-458z" />
<glyph unicode="&#x494;" horiz-adv-x="1292" d="M37 0v37q126 3 162 39q34 37 34 172v862q0 134 -34 168q-35 38 -162 41v37h1087l6 -318h-38q-9 193 -131 230q-49 14 -156 14h-379v-537q168 109 362 109q186 0 308 -168q129 -175 129 -448q0 -680 -502 -680q-89 0 -184 30q-98 31 -99 31q-56 0 -71 -61h-35l-27 331h31 q41 -127 156 -196q107 -64 247 -64q291 3 291 590q0 255 -83.5 388.5t-239.5 133.5q-171 0 -283 -75v-418q0 -132 35 -170t157 -41v-37h-581z" />
<glyph unicode="&#x495;" horiz-adv-x="1054" d="M31 0v37q105 3 131 39q22 31 22 139v485q0 81 -2 93q-9 56 -47 71q-27 12 -104 15v36h760l36 -249h-45q-38 126 -75 153q-39 33 -162 33h-195v-399q125 49 250 49q169 0 277 -129t108 -328q0 -487 -485 -487q-209 0 -209 100q0 86 71 86q38 0 95 -63q61 -64 104 -64 q234 0 234 412q0 136 -64 237q-76 123 -211 123q-84 0 -170 -22v-152q0 -84 2 -90q6 -48 43 -72q26 -16 94 -16v-37h-458z" />
<glyph unicode="&#x496;" horiz-adv-x="1835" d="M18 0v37q113 18 205 104q75 75 142 195q30 54 112 209q63 109 121 149q-71 53 -113 152q-16 41 -59 182q-36 118 -37 119q-34 82 -80 82q-29 0 -86 -31q-60 -29 -88 -29q-39 0 -67.5 24.5t-28.5 61.5q0 59 55 93q46 24 111 24q73 0 138 -37.5t95 -99.5q32 -66 76 -213 l47 -145q40 -93 88 -121q47 -27 113 -27q22 0 59 6v375q0 128 -35 166q-34 40 -161 43v37h583v-37q-125 -3 -159 -43q-35 -41 -35 -166v-375q27 -6 53 -6q135 0 184 100q20 44 68 193l55 172q40 88 111 135q64 43 143 43q66 0 111 -26q55 -30 55 -91q0 -38 -27 -62t-69 -24 q-28 0 -88 29q-57 31 -86 31q-44 0 -78 -82l-39 -119q-40 -139 -59 -182q-42 -99 -113 -152q63 -46 131 -157q9 -16 44.5 -81.5t55.5 -99.5q90 -157 136 -209q80 -86 213 -110v-426h-33q0 160 -82 270q-85 119 -230 119q-15 33 -153 289l-156 289q-47 86 -121 86 q-16 0 -26 -2v-414q0 -130 33 -166q39 -42 161 -45v-37h-583v37q126 3 161 41q35 41 35 170v414l-26 2q-65 3 -101 -52q-29 -49 -133 -241l-199 -371h-344z" />
<glyph unicode="&#x497;" horiz-adv-x="1415" d="M23 0v37q79 6 129 65q21 27 73 131q74 145 88 166q64 99 142 105q-63 28 -115 164q-40 106 -82 106q-21 0 -51 -12q-49 -19 -70 -19q-86 0 -86 93q0 92 117 92q94 0 149 -70q35 -41 76 -153q38 -104 82 -142q52 -49 150 -49v150q0 110 -17 149q-28 57 -127 66v36h453v-36 q-97 -12 -125 -66q-18 -35 -18 -149v-150q97 0 149 49q44 41 82 142q37 106 76 151q60 72 147 72q121 0 121 -92q0 -93 -86 -93q-23 0 -72 19q-27 12 -47 12q-35 0 -55 -39q-9 -14 -31 -67q-52 -137 -114 -164q77 -6 141 -105q16 -24 86 -161q50 -102 76 -136 q50 -59 129 -65v-291h-37q0 136 -60 199q-55 55 -172 55l-174 332q-48 91 -57 98q-28 31 -102 31v-209q0 -118 18 -152q23 -51 125 -63v-37h-453v37q99 9 125 65q19 36 19 150v209q-72 0 -103 -31q-8 -8 -57 -98l-172 -332h-270z" />
<glyph unicode="&#x498;" horiz-adv-x="1026" d="M43 242l35 20q56 -91 154 -147t202 -56q128 0 207 91q74 83 74 215q0 165 -123 245q-104 70 -279 70v65q129 0 199 21q95 29 156 115q47 71 47 168q0 113 -68 181t-180 68q-275 0 -330 -307h-35v393h35q15 -65 74 -65q21 0 94 27q113 40 238 40q150 0 260 -90 q110 -94 110 -245q0 -126 -82 -217q-74 -83 -198 -123q137 -25 222 -124.5t85 -238.5q0 -167 -129 -272q-101 -84 -270 -105q77 -47 77 -149q0 -88 -71 -141q-64 -43 -158 -43q-96 0 -231 75l20 31q71 -23 121 -23q213 0 213 146q0 80 -152 115q-189 45 -317 260z" />
<glyph unicode="&#x499;" horiz-adv-x="808" d="M25 145l24 25q165 -127 311 -127q89 0 142 59q51 57 51 148q0 199 -256 211v57q99 0 162 51q67 55 67 152q0 71 -48.5 117.5t-121.5 46.5q-176 0 -235 -256h-37v286h43q16 -16 39 -16q12 0 74 16q94 27 155 27q120 0 205 -49q105 -61 105 -172q0 -155 -236 -225 q274 -59 274 -258q0 -106 -88 -185q-74 -68 -194 -80q78 -47 78 -151q0 -87 -72 -141q-64 -43 -158 -43q-99 0 -231 75l20 31q71 -23 119 -23q215 0 215 146q0 84 -151 125q-137 40 -256 153z" />
<glyph unicode="&#x49a;" horiz-adv-x="1366" d="M37 0v37q127 3 164 43q32 38 32 168v862q0 129 -34 166q-34 40 -162 43v37h584v-37q-128 -3 -162 -43q-33 -36 -33 -166v-379q89 0 131 10q58 15 115 66q53 47 82 104q27 52 77 183q35 92 60 141q39 68 106 104q59 33 150 33q153 0 153 -108q0 -38 -30.5 -66.5 t-69.5 -28.5q-30 0 -92 33q-63 29 -82 29q-43 0 -84 -84q-14 -41 -45 -121q-94 -253 -244 -324q89 -15 252 -249q161 -233 187 -263q132 -150 266 -153v-426h-35q0 160 -82 270q-88 119 -229 119q-42 67 -244 344l-139 201q-90 106 -203 106v-403q0 -131 33 -170 q35 -38 162 -41v-37h-584z" />
<glyph unicode="&#x49b;" horiz-adv-x="995" d="M45 0v37q94 0 121 43q18 30 18 135v485v91q-9 51 -45 71q-24 17 -94 17v36h459v-36q-99 0 -137 -41q-17 -20 -17 -138v-180q14 -2 31 -2q143 0 211 182q27 77 47 117q34 58 88 86q48 25 94 25q119 0 119 -94q0 -84 -86 -84q-20 0 -55 12q-41 14 -66 14q-46 0 -76 -80 q-27 -80 -43 -102q-18 -35 -67 -84q54 -15 119 -115q10 -14 84 -143q63 -112 90 -143q57 -69 143 -72v-291h-37q0 137 -59 199q-55 55 -172 55q-124 181 -230 375q-46 88 -98 88q-19 0 -37 -2v-246q0 -80 2 -94q9 -57 51 -72q27 -12 101 -12v-37h-459z" />
<glyph unicode="&#x49c;" horiz-adv-x="1366" d="M37 0v37q127 3 164 43q32 38 32 168v862q0 129 -34 166q-34 40 -162 43v37h584v-37q-128 -3 -162 -43q-33 -36 -33 -166v-379q79 0 131 10v357h84v-316l31 25q53 47 82 104q27 52 77 183q35 92 60 141q39 68 106 104q59 33 150 33q153 0 153 -108q0 -38 -30.5 -66.5 t-69.5 -28.5q-30 0 -92 33q-63 29 -82 29q-43 0 -84 -84q-14 -41 -45 -121q-94 -253 -244 -324q89 -15 252 -249q150 -217 187 -265q133 -148 268 -151v-37h-350q-49 80 -242 344q-124 166 -127 170v-274h-84v372l-10 13q-39 26 -121 26v-403q0 -131 33 -170q35 -38 162 -41 v-37h-584z" />
<glyph unicode="&#x49d;" horiz-adv-x="995" d="M45 0v37q94 0 121 43q18 30 18 135v485v91q-9 51 -45 71q-24 17 -94 17v36h459v-36q-99 0 -137 -41q-17 -20 -17 -138v-180q14 -2 31 -2q33 0 68 12v234h83v-176q35 48 60 112q27 77 47 117q34 58 88 86q48 25 94 25q119 0 119 -94q0 -84 -86 -84q-20 0 -55 12 q-41 14 -66 14q-46 0 -76 -80q-27 -80 -43 -102q-18 -35 -67 -84q54 -15 119 -115q10 -14 84 -143q63 -112 90 -143q57 -69 143 -72v-37h-270q-94 133 -181 289v-137h-83v280q-22 31 -62 31q-19 0 -37 -2v-246q0 -80 2 -94q9 -57 51 -72q27 -12 101 -12v-37h-459z" />
<glyph unicode="&#x49e;" horiz-adv-x="1366" d="M37 0v37q127 3 164 43q32 38 32 168v739h-196v76h196v47q0 129 -34 166q-34 40 -162 43v37h584v-37q-128 -3 -162 -43q-33 -36 -33 -166v-47h195v-76h-195v-256q89 0 131 10q58 15 115 66q53 47 82 104q27 52 77 183q35 92 60 141q39 68 106 104q59 33 150 33 q153 0 153 -108q0 -38 -30.5 -66.5t-69.5 -28.5q-30 0 -92 33q-63 29 -82 29q-43 0 -84 -84q-14 -41 -45 -121q-94 -253 -244 -324q89 -15 252 -249q150 -217 187 -265q133 -148 268 -151v-37h-350q-50 82 -232 334q-188 261 -231 291q-39 26 -121 26v-403q0 -131 33 -170 q35 -38 162 -41v-37h-584z" />
<glyph unicode="&#x49f;" horiz-adv-x="995" d="M31 1311l272 110h47v-270h228v-84h-228v-547q14 -2 31 -2q143 0 211 182q27 77 47 117q34 58 88 86q48 25 94 25q119 0 119 -94q0 -84 -86 -84q-20 0 -55 12q-41 14 -66 14q-46 0 -76 -80q-27 -80 -43 -102q-18 -35 -67 -84q54 -15 119 -115q10 -14 84 -143 q63 -112 90 -143q57 -69 143 -72v-37h-270q-123 182 -228 375q-46 88 -98 88q-19 0 -37 -2v-246q0 -80 2 -94q9 -57 51 -72q27 -12 101 -12v-37h-459v37q94 0 121 43q18 30 18 135v852h-139v84h139l-6 78q-12 61 -65 61q-25 0 -68 -14z" />
<glyph unicode="&#x4a0;" horiz-adv-x="1609" d="M53 1059l10 297h801v-37q-128 -3 -162 -43q-34 -37 -34 -166v-379q91 0 133 10q58 15 112 66q56 50 84 104q31 60 78 183q35 92 60 141q40 70 104 104q62 33 152 33q153 0 153 -108q0 -38 -30.5 -66.5t-69.5 -28.5q-32 0 -94 33q-63 29 -80 29q-43 0 -84 -84 q-14 -41 -45 -121q-94 -252 -246 -324q90 -15 254 -249q158 -229 186 -265q130 -148 267 -151v-37h-351q-68 110 -229 334q-190 261 -234 291q-39 26 -120 26v-403q0 -130 34 -170q35 -38 162 -41v-37h-583v37q127 3 161 43q33 39 33 168v1024h-98q-143 0 -199 -39 q-69 -48 -90 -174h-35z" />
<glyph unicode="&#x4a1;" horiz-adv-x="1173" d="M12 668l37 247h633v-36q-80 0 -100 -13q-43 -27 -52 -71q-2 -6 -2 -95v-180q16 -2 31 -2q143 0 211 182q40 98 49 117q35 60 86 86q48 25 96 25q117 0 117 -94q0 -84 -86 -84q-20 0 -55 12q-38 14 -64 14q-47 0 -77 -80q-25 -75 -41 -102q-15 -29 -70 -84 q53 -15 121 -115l84 -143q67 -119 88 -143q57 -69 143 -72v-37h-268q-117 168 -229 375q-46 88 -97 88q-21 0 -39 -2v-246q0 -66 4 -94q9 -57 50 -72q30 -12 100 -12v-37h-457v37q95 0 119 43q21 30 21 135v637h-82q-80 0 -101 -6q-46 -9 -76 -55q-29 -43 -49 -123h-45z" />
<glyph unicode="&#x4a2;" d="M35 0v37h49q84 0 121 49q24 30 24 154v874q0 105 -14 137q-10 29 -41 43q-45 25 -90 25h-49v37h581v-37h-49q-48 0 -96 -25q-35 -20 -45 -82q-4 -28 -4 -98v-387h629v387q0 100 -13 137q-27 68 -133 68h-49v37h582v-37h-49q-124 0 -142 -102q-4 -28 -4 -103v-874 q0 -102 12 -136q9 -27 41 -43q44 -24 93 -24h51v-426h-35q-70 389 -449 389h-100v37h49q81 0 121 49q25 36 25 154v413h-629v-413q0 -102 12 -136q27 -67 133 -67h49v-37h-581z" />
<glyph unicode="&#x4a3;" horiz-adv-x="1095" d="M45 0v37q94 0 121 43q18 30 18 135v485q0 82 -2 88q-6 51 -41 72q-29 19 -96 19v36h444v-36q-108 0 -129 -56q-10 -30 -10 -123v-192h395v192q0 80 -2 88q-6 53 -38 72q-29 19 -99 19v36h445v-36q-111 0 -129 -56q-11 -33 -11 -123v-485q0 -78 2 -88q9 -53 41 -72 q30 -18 97 -18v-291h-37q-3 144 -107 207q-80 47 -237 47h-64v37q93 0 119 45q20 29 20 133v227h-395v-227q0 -78 2 -88q9 -53 41 -72q30 -18 96 -18v-37h-444z" />
<glyph unicode="&#x4a4;" horiz-adv-x="1742" d="M35 0v37h49q84 0 121 49q24 30 24 154v874q0 105 -14 137q-10 29 -41 43q-45 25 -90 25h-49v37h581v-37h-49q-48 0 -96 -25q-36 -20 -45 -80q-4 -28 -4 -100v-387h629v387q0 100 -13 137q-27 68 -133 68h-49v37h819l17 -299h-41q-15 174 -131 209q-56 16 -191 16h-86 v-1038q0 -106 12 -140q9 -27 41 -43q44 -24 93 -24h49v-37h-582v37h49q81 0 121 49q25 36 25 154v413h-629v-413q0 -102 12 -136q27 -67 133 -67h49v-37h-581z" />
<glyph unicode="&#x4a5;" horiz-adv-x="1275" d="M45 0v37q94 0 121 43q18 30 18 135v485q0 82 -2 88q-6 51 -41 72q-29 19 -96 19v36h444v-36q-108 0 -129 -56q-10 -30 -10 -123v-192h395v192q0 80 -2 88q-6 53 -38 72q-29 19 -99 19v36h617l41 -247h-45q-21 143 -105 170q-35 14 -123 14h-80v-637q0 -78 2 -88 q9 -53 41 -72q30 -18 97 -18v-37h-445v37q93 0 119 45q20 29 20 133v227h-395v-227q0 -78 2 -88q9 -53 41 -72q30 -18 96 -18v-37h-444z" />
<glyph unicode="&#x4a6;" horiz-adv-x="2113" d="M37 0v37q127 3 162 41q34 40 34 170v862q0 129 -34 166q-34 40 -162 43v37h1405v-37q-128 -3 -162 -43q-35 -38 -35 -166v-365q171 109 365 109q185 0 307 -168q129 -175 129 -448q0 -680 -502 -680q-92 0 -186 30q-95 31 -96 31q-60 0 -72 -61h-37l-25 331h31 q38 -126 156 -196q107 -64 248 -64q290 3 290 590q0 255 -83.5 388.5t-239.5 133.5q-170 0 -285 -75v-418q0 -129 35 -170q35 -38 162 -41v-37h-584v37q125 3 164 45q33 36 33 166v1034h-629v-1034q0 -131 33 -170q35 -38 162 -41v-37h-584z" />
<glyph unicode="&#x4a7;" horiz-adv-x="1615" d="M45 0v37q94 0 121 43q18 30 18 135v485v91q-9 51 -45 71q-24 17 -94 17v36h1006v-36q-96 0 -127 -48q-13 -23 -13 -131v-247q125 49 250 49q169 0 277 -129t108 -328q0 -487 -485 -487q-209 0 -209 100q0 86 72 86q37 0 94 -63q61 -64 104 -64q234 0 234 412 q0 136 -64 237q-76 123 -211 123q-84 0 -170 -22v-152q0 -84 2 -90q6 -48 43 -72q26 -16 95 -16v-37h-445v37q93 0 119 45q20 29 20 133v637h-395v-637q0 -84 2 -90q6 -48 43 -72q26 -16 94 -16v-37h-444z" />
<glyph unicode="&#x4a8;" horiz-adv-x="1366" d="M76 678q0 271 166 479q180 229 460 229v-71q-164 0 -276 -160q-123 -175 -123 -477q0 -635 350 -635q70 0 123 20q-113 91 -172 265q-49 148 -49 325q0 278 68 449q83 213 262 213t262 -213q65 -171 65 -449q0 -425 -239 -594q41 -18 82 -18q130 0 231 131l35 -20 q-83 -183 -266 -183q-104 0 -185 37q-93 -37 -217 -37q-301 0 -450 230q-127 189 -127 479zM743 653q0 -351 138 -520q143 149 143 520q0 251 -12 346q-27 244 -127 244q-102 0 -129 -246q-13 -111 -13 -344z" />
<glyph unicode="&#x4a9;" horiz-adv-x="909" d="M70 457q0 200 116 340q121 145 299 145v-55q-256 0 -256 -416q0 -158 45 -274q64 -166 201 -166q30 0 51 6q-145 130 -145 395q0 455 229 455q230 0 230 -455q0 -114 -47 -223q-45 -108 -131 -172q18 -6 34 -6q92 0 162 82l35 -23q-39 -53 -68 -76q-52 -43 -129 -43 q-53 0 -104 23q-61 -23 -115 -23q-197 0 -311 156q-96 137 -96 330zM516 432q0 -253 88 -354q101 94 101 354q0 155 -7 227q-18 183 -88 183q-94 0 -94 -410z" />
<glyph unicode="&#x4aa;" horiz-adv-x="1366" d="M74 657q0 196 88 365q89 177 254 272q160 92 348 92q146 0 291 -71q48 -23 59 -23q63 0 84 94h35l31 -460h-31q-117 389 -453 389q-294 0 -415 -287q-64 -149 -64 -373q0 -381 238 -526q123 -72 270 -72q151 0 264 76q90 63 191 205l30 -21q-104 -184 -237 -264 q-79 -48 -226 -82q76 -46 76 -149q0 -88 -71 -141q-64 -43 -156 -43q-99 0 -231 75l20 31q67 -23 119 -23q215 0 215 146q0 87 -150 108q-146 21 -243 68q-115 60 -197 176q-139 189 -139 438z" />
<glyph unicode="&#x4ab;" horiz-adv-x="909" d="M70 457q0 200 116 340q127 145 322 145q104 0 199 -53q108 -65 108 -166q0 -84 -92 -84q-61 0 -88 37q-13 13 -23 82q-15 119 -139 119q-98 0 -160 -74q-82 -98 -82 -260q0 -156 70 -275q83 -141 229 -141q97 0 177 68q52 44 106 167l29 -14q-37 -178 -146 -278 q-54 -48 -131 -84q103 -53 103 -164q0 -87 -72 -141q-64 -43 -158 -43q-97 0 -229 75l20 31q67 -23 119 -23q213 0 213 146q0 79 -149 106q-137 27 -226 129q-116 131 -116 355z" />
<glyph unicode="&#x4ac;" horiz-adv-x="1251" d="M61 1038l17 318h1108l14 -318h-39q-9 83 -28 119q-62 115 -220 115h-190v-1036q0 -129 27 -156q37 -43 116 -43h45v-426h-32q-70 389 -449 389h-90v37h47q87 0 123 51q20 33 20 148v1036h-161q-95 0 -136 -15q-121 -44 -133 -219h-39z" />
<glyph unicode="&#x4ad;" horiz-adv-x="894" d="M12 668l37 247h793l41 -247h-45q-21 143 -105 170q-35 14 -123 14h-80v-637q0 -59 5 -94q9 -60 49 -72q27 -9 127 -12v-291h-37q-9 254 -344 254h-117v37q103 3 129 39q23 33 23 139v637h-82q-80 0 -101 -6q-46 -9 -76 -55q-29 -43 -49 -123h-45z" />
<glyph unicode="&#x4ae;" d="M20 1036l13 15q7 7 37 33.5t34 31.5l74 72q14 14 64 72l12 14l14 -29l-12 -10q-25 -36 -25 -55q0 -27 43 -70l422 -420l420 420q43 43 43 72q0 16 -29 53l-6 10l9 29l14 -14l67 -72l70 -72q56 -49 72 -65l12 -15l-25 -10l-10 10q-34 27 -57 27q-25 0 -68 -43l-450 -451 v-446q0 -56 16.5 -75.5t61.5 -24.5h14l12 -27h-18q-9 0 -50 2t-49 2h-102q-5 0 -44 -2t-54 -2h-17l11 27h14q45 5 61.5 24.5t16.5 75.5v446l-449 451q-43 43 -71 43q-17 0 -52 -27l-10 -10z" />
<glyph unicode="&#x4af;" horiz-adv-x="1024" d="M2 879v36h442v-36q-120 -9 -120 -64q0 -16 14 -57l217 -561l215 544q18 52 18 76q0 21 -20 41q-13 13 -63 16q-3 1 -27 5v36h346v-36q-60 0 -88 -25q-39 -31 -82 -131l-256 -614v-304q0 -110 10 -143q10 -22 33 -37q39 -22 86 -22h41v-41h-514v41h31q119 0 137 84 q4 20 4 118v283l-262 645q-29 74 -58 103q-40 40 -104 43z" />
<glyph unicode="&#x4b0;" d="M18 1319v37h580v-37h-29q-49 0 -84 -21q-43 -21 -43 -67q0 -37 62 -129l282 -438l267 417q59 95 59 142q0 57 -55 84q-27 12 -80 12v37h473v-37h-27q-83 0 -168 -88q-42 -49 -100 -141l-328 -515v-30h381v-74h-381v-235q0 -124 29 -156q40 -43 121 -43h43v-37h-576v37h48 q86 0 122 51q23 38 23 148v235h-381v74h381v10l-373 569q-60 90 -78 111q-33 39 -108 74q-23 10 -60 10z" />
<glyph unicode="&#x4b1;" horiz-adv-x="1024" d="M2 0v74h424v14l-262 645q-29 74 -58 103q-40 40 -104 43v36h442v-36q-120 -9 -120 -64q0 -16 14 -57l217 -559l215 542q18 52 18 76q0 21 -20 41q-13 13 -63 16q-3 1 -27 5v36h346v-36q-60 0 -88 -25q-39 -31 -82 -131l-256 -614v-35h426v-74h-426v-195q0 -110 10 -143 q10 -22 33 -37q39 -22 86 -22h41v-41h-514v41h31q119 0 137 84q4 20 4 118v195h-424z" />
<glyph unicode="&#x4b2;" d="M14 0v37q53 6 88 20q123 51 246 205l322 406l-269 391q-88 128 -147 178q-91 79 -211 82v37h627v-37q-140 -3 -140 -78q0 -33 48 -106l208 -312l240 305q61 76 61 115q0 50 -49 68q-19 8 -96 8v37h481v-37q-55 -3 -92 -19q-97 -41 -225 -204l-270 -344l290 -435 q118 -175 179 -227q62 -47 149 -53v-426h-35q-70 389 -446 389h-101v37l66 6q38 9 55 35q15 15 15 37q0 19 -11 45q-3 12 -55 88l-229 348l-285 -365q-61 -79 -61 -116q0 -72 129 -78v-37h-482z" />
<glyph unicode="&#x4b3;" horiz-adv-x="1024" d="M27 879v36h432v-36q-76 0 -76 -52q0 -21 37 -73l33 -49l63 -105l76 105q72 104 72 124q0 50 -72 50v36h309v-36q-49 -3 -84 -27q-49 -37 -135 -147l-125 -168l229 -328q83 -121 119 -146q38 -23 105 -26v-291h-37q-3 146 -105 207q-80 47 -237 47h-64v37q88 0 88 55 q0 25 -63 117l-133 197l-148 -197q-67 -88 -67 -109q0 -60 90 -63v-37h-299v37q37 3 61 24q39 26 129 148l193 256l-174 252q-70 97 -88 112q-53 50 -129 50z" />
<glyph unicode="&#x4b4;" horiz-adv-x="1632" d="M53 1059l10 297h852l9 -297h-35q-21 158 -129 196q-53 17 -166 17h-16v-1067q0 -101 14 -115q16 -16 119 -16h348q117 0 135 18q12 15 12 131v887q0 128 -35 166q-34 40 -161 43v37h585v-37q-127 -3 -161 -43q-35 -38 -35 -166v-866q0 -132 31 -168q33 -39 161 -39v-426 h-32q-70 389 -449 389h-920v37q125 3 160 41q35 41 35 170v1024h-8q-143 0 -199 -39q-69 -48 -90 -174h-35z" />
<glyph unicode="&#x4b5;" horiz-adv-x="1234" d="M12 668l37 247h613l38 -247h-45q-15 116 -59 151q-39 33 -147 33h-11v-668q0 -82 17 -102q16 -16 100 -16h211q91 0 106 18q13 16 13 109v507q0 108 -13 131q-31 48 -127 48v36h445v-36q-96 0 -127 -48q-12 -21 -12 -131v-471q0 -118 14 -143q24 -46 125 -49v-291h-39 q-3 146 -104 207q-80 47 -238 47h-674v37q94 0 121 43q18 30 18 135v637h-12q-111 0 -147 -39q-32 -36 -58 -145h-45z" />
<glyph unicode="&#x4b6;" horiz-adv-x="1331" d="M-6 1319v37h586v-37q-163 0 -187 -76q-10 -45 -10 -139v-189q0 -93 4 -147q15 -86 72 -125q50 -29 116 -29q150 0 330 82v408q0 87 -4 115q-12 60 -65 81q-46 19 -125 19v37h583v-37q-155 -3 -182 -70q-14 -32 -14 -145v-852q0 -88 6 -115q15 -61 67 -82q41 -15 123 -18 v-426h-34q-70 389 -449 389h-100v37q150 3 180 67q14 28 14 148v364q-248 -112 -409 -112q-95 0 -168 33q-95 41 -119 116q-19 62 -19 221v230q0 94 -6 115q-12 63 -65 84q-46 16 -125 16z" />
<glyph unicode="&#x4b7;" horiz-adv-x="1030" d="M31 879v36h430v-36q-94 0 -125 -48q-14 -20 -14 -131v-112q0 -58 6 -76q9 -36 49 -51q39 -17 96 -17q107 0 207 62v194q0 85 -2 93q-9 57 -45 71q-27 15 -90 15v36h442v-36q-91 0 -127 -48q-12 -21 -12 -131v-485q0 -72 4 -92q6 -55 45 -72q28 -14 90 -14v-291h-37 q-6 254 -342 254h-88v37q73 3 82 6q48 9 66 43q14 28 14 129v223q-146 -73 -309 -73q-167 0 -201 73q-12 30 -12 97v165q0 81 -2 91q-9 50 -43 71q-31 17 -82 17z" />
<glyph unicode="&#x4b8;" horiz-adv-x="1331" d="M-6 1319v37h586v-37q-163 0 -187 -76q-10 -45 -10 -139v-189q0 -93 4 -147q15 -86 72 -125q50 -29 116 -29h33v465l84 -2v-450q107 19 213 69v408q0 87 -4 115q-12 60 -65 81q-46 19 -125 19v37h583v-37q-155 -3 -182 -70q-14 -32 -14 -145v-852q0 -88 6 -115 q15 -61 67 -82q41 -15 123 -18v-37h-583v37q150 3 180 67q14 28 14 148v364q-114 -53 -213 -81v-277h-84v256q-68 -10 -112 -10q-95 0 -168 33q-95 41 -119 116q-19 62 -19 221v230q0 94 -6 115q-12 63 -65 84q-46 16 -125 16z" />
<glyph unicode="&#x4b9;" horiz-adv-x="1030" d="M31 879v36h430v-36q-94 0 -125 -48q-14 -20 -14 -131v-112q0 -58 6 -76q9 -36 49 -51q28 -14 82 -17v254h84v-247q70 15 137 55v194q0 85 -2 93q-9 57 -45 71q-27 15 -90 15v36h442v-36q-91 0 -127 -48q-12 -21 -12 -131v-485q0 -72 4 -92q6 -55 45 -72q28 -14 90 -14 v-37h-465v37q70 3 82 6q46 9 64 43q14 28 14 129v223q-57 -29 -137 -53v-166h-84v152q-46 -6 -88 -6q-167 0 -201 73q-12 30 -12 97v165q0 81 -2 91q-9 50 -43 71q-31 17 -82 17z" />
<glyph unicode="&#x4ba;" horiz-adv-x="1331" d="M37 0v37q156 3 182 69q14 32 14 146v852q0 91 -6 115q-15 64 -65 84q-35 13 -125 16v37h584v-37q-78 -3 -103 -10q-57 -15 -78 -58q-14 -28 -14 -147v-365q254 115 410 115q90 0 168 -35q94 -40 118 -114q19 -59 19 -224v-229q0 -91 6 -115q12 -61 67 -82q46 -15 123 -18 v-37h-585v37q165 0 186 76q10 42 10 139v188q0 110 -6 150q-15 89 -70 123q-48 28 -116 28q-150 0 -330 -82v-407q0 -87 4 -115q12 -60 66 -82q44 -15 125 -18v-37h-584z" />
<glyph unicode="&#x4bb;" horiz-adv-x="1024" d="M14 -4l6 20h11q35 2 48 17.5t13 58.5v713q0 42 -12.5 57t-48.5 17h-11l-6 20h11q13 0 42 -1t31 -1h80q3 0 33.5 1t40.5 1h12l-8 -20h-12q-33 -2 -46.5 -17t-13.5 -57v-299h385v299q0 42 -12 57t-45 17h-12l-8 20h14q10 0 39 -1t33 -1h77q4 0 35.5 1t40.5 1h10l-6 -20h-10 q-36 -2 -48.5 -17t-12.5 -57v-713q0 -43 13 -58.5t48 -17.5h10l6 -20h-10q-9 0 -40.5 2t-35.5 2h-77q-4 0 -33 -2t-39 -2h-14l8 20h12q33 2 45 18t12 58v330h-385v-330q0 -42 13.5 -58t46.5 -18h12l8 -20h-12q-10 0 -40.5 2t-33.5 2h-80q-2 0 -31 -2t-42 -2h-11z" />
<glyph unicode="&#x4bc;" horiz-adv-x="1798" d="M10 860q0 77 45 131q51 60 123 60q117 0 117 -107q0 -94 -92 -94q-10 0 -39 7t-33 7q-45 0 -45 -51q0 -115 209 -115h67q6 296 193 492q193 196 487 196q298 0 490 -204q188 -200 188 -500q0 -32 -2 -57h-1124q15 -234 115 -392q120 -194 335 -194q176 0 308 78 q113 67 225 221l31 -21q-200 -348 -564 -348q-276 0 -471 195q-187 187 -208 461h-78q-277 0 -277 235zM594 698h897q0 222 -111 404q-126 209 -338 209q-214 0 -340 -209q-108 -176 -108 -404z" />
<glyph unicode="&#x4bd;" horiz-adv-x="1118" d="M10 793q0 75 45 129q50 59 123 59q117 0 117 -107q0 -94 -92 -94q-10 0 -39 8.5t-33 8.5q-45 0 -45 -52q0 -116 209 -116h12q30 107 101 184q119 131 301 131q163 0 260 -106q92 -103 92 -267h-633q-3 -168 80 -292q91 -144 254 -144q185 0 268 219l31 -20 q-21 -148 -123 -250q-107 -113 -252 -113q-185 0 -299 150q-100 129 -100 325q0 60 10 125h-10q-277 0 -277 222zM428 629h424q-3 79 -21 125q-52 118 -178 118q-96 0 -159 -75q-57 -70 -66 -168z" />
<glyph unicode="&#x4be;" horiz-adv-x="1798" d="M10 860q0 80 45 131q51 60 123 60q117 0 117 -107q0 -94 -92 -94q-8 0 -36.5 7t-35.5 7q-45 0 -45 -51q0 -115 209 -115h67q6 299 193 492q190 196 487 196q300 0 492 -204q186 -198 186 -500q0 -32 -2 -57h-1124q15 -234 115 -392q120 -194 335 -194q174 0 306 78 q115 66 227 221l31 -21q-186 -325 -514 -346v-262h-103v262q-240 15 -418 193q-187 187 -208 461h-78q-277 0 -277 235zM594 698h897q0 222 -111 404q-126 209 -338 209q-211 0 -340 -209q-108 -178 -108 -404z" />
<glyph unicode="&#x4bf;" horiz-adv-x="1118" d="M10 793q0 77 45 131q48 57 123 57q117 0 117 -107q0 -94 -92 -94q-8 0 -36.5 8.5t-35.5 8.5q-45 0 -45 -52q0 -116 209 -116h12q30 107 101 184q119 131 301 131q167 0 260 -106q92 -103 92 -267h-633q-3 -168 80 -292q91 -144 254 -144q185 0 268 219l31 -20 q-21 -131 -107 -234q-90 -107 -219 -125v-266h-102v266q-165 21 -260 166q-86 133 -86 305q0 60 10 125h-10q-277 0 -277 222zM428 629h424q-3 79 -21 125q-52 118 -178 118q-99 0 -159 -75q-57 -70 -66 -168z" />
<glyph unicode="&#x4c0;" horiz-adv-x="681" d="M51 -4l10 27h17q45 5 59.5 24t14.5 76v950q0 57 -15 76.5t-59 24.5h-17l-10 26h17q15 0 54 -2t46 -2h106q8 0 48 2t53 2h16l-10 -26h-16q-45 -5 -60.5 -25t-15.5 -76v-950q0 -56 15.5 -75.5t60.5 -24.5h16l10 -27h-16q-13 0 -53 2t-48 2h-106q-7 0 -46 -2t-54 -2h-17z " />
<glyph unicode="&#x4c1;" horiz-adv-x="1835" d="M18 121l27 10l10 -10q30 -33 56.5 -32.5t68.5 36.5l492 414l-492 411q-42 36 -67.5 37.5t-57.5 -29.5l-10 -12l-27 8l11 15l67 71l70 84q41 58 59 78l11 12l14 -24l-10 -10q-25 -38 -19.5 -63.5t47.5 -61.5l449 -377v395q0 56 -16.5 76t-61.5 25h-14l-11 26h17 q14 0 53 -2t45 -2h102q7 0 47 2t52 2h18l-12 -26h-14q-45 -5 -61.5 -25t-16.5 -76v-391l444 373q44 36 49 61.5t-20 63.5l-10 10l14 24l10 -12q44 -51 60 -78l69 -84l68 -71l12 -15l-29 -8l-10 12q-30 31 -56.5 29.5t-68.5 -37.5l-491 -411l491 -414q42 -36 68.5 -36.5 t58.5 32.5l8 10l29 -10l-12 -12l-66 -72l-69 -84q-4 -4 -15.5 -19t-25.5 -34t-19 -25l-12 -14l-14 26l10 13q26 37 20.5 60t-49.5 60l-444 375v-624l-127 -213v839l-449 -377q-43 -37 -48.5 -60t20.5 -60l10 -13l-14 -26l-11 14q-7 8 -20 25t-26 33.5t-15 19.5l-70 84 l-67 72zM1028 1706q0 80 70 80q64 0 116 -125q43 -105 142 -105q62 0 98 31q28 28 55 92q43 105 105 105q72 0 72 -76q0 -92 -123 -156q-106 -53 -205 -53q-123 0 -213 41q-117 56 -117 166z" />
<glyph unicode="&#x4c2;" horiz-adv-x="1415" d="M43 88l18 8l9 -8q25 -25 43.5 -24.5t50.5 26.5l368 311l-368 310q-31 29 -50.5 29.5t-43.5 -23.5l-7 -8l-20 4l8 12q10 14 49 53l54 64q4 4 22 28t23 29l8 10l8 -18l-6 -8q-19 -29 -15.5 -47.5t35.5 -47.5l336 -282v297q0 42 -11 56.5t-44 19.5h-12l-9 18h13 q10 0 39.5 -1t33.5 -1h78q4 0 34.5 1t39.5 1h12l-8 -18h-10q-36 -5 -47.5 -19.5t-11.5 -56.5v-293l333 278q32 29 36 47.5t-15 47.5l-6 8l10 18l6 -10q5 -5 24 -29t23 -28l51 -64l52 -53l8 -12l-21 -4l-8 8q-24 24 -43.5 23.5t-50.5 -29.5l-369 -310l369 -311 q32 -26 51.5 -26.5t42.5 24.5l8 8l21 -8l-8 -8q-6 -8 -26.5 -29.5t-23.5 -25.5l-53 -64q-15 -15 -45 -57l-8 -10l-10 20l8 8q19 29 14 46.5t-37 43.5l-333 281v-569l-97 -160v733l-336 -285q-32 -26 -36 -43.5t16 -46.5l6 -8l-8 -20l-10 10q-36 50 -45 57l-52 64 q-3 4 -24 25.5t-27 29.5zM379 1282q0 80 70 80q64 0 116 -125q43 -104 142 -104q63 0 98 30q28 28 55 92q44 105 105 105q71 0 71 -76q0 -92 -123 -156q-106 -53 -204 -53q-123 0 -213 41q-117 56 -117 166z" />
<glyph unicode="&#x4c3;" horiz-adv-x="1366" d="M37 0v37q127 3 164 43q32 38 32 168v862q0 129 -34 166q-34 40 -162 43v37h584v-37q-128 -3 -162 -43q-33 -36 -33 -166v-379q89 0 131 10q58 15 115 66q53 47 82 104q27 52 77 183q35 92 60 141q39 68 106 104q59 33 150 33q153 0 153 -108q0 -38 -30.5 -66.5 t-69.5 -28.5q-30 0 -92 33q-63 29 -82 29q-43 0 -84 -84q-14 -41 -45 -121q-77 -212 -188 -295q203 0 348 -121q168 -140 168 -401q0 -334 -158 -506q-133 -145 -344 -145q-89 0 -184 30q-98 31 -99 31q-56 0 -71 -61h-35l-27 331h31q41 -127 156 -196q107 -64 247 -64 q113 3 189 113q102 144 102 448q0 242 -104 361q-87 100 -240 100h-262v-403q0 -131 33 -170q35 -38 162 -41v-37h-584z" />
<glyph unicode="&#x4c4;" horiz-adv-x="1054" d="M45 0v37q94 0 121 43q18 30 18 135v485v91q-9 51 -45 71q-24 17 -94 17v36h459v-36q-99 0 -137 -41q-17 -20 -17 -138v-180q14 -2 31 -2q143 0 211 182q27 77 47 117q34 58 88 86q48 25 94 25q119 0 119 -94q0 -84 -86 -84q-20 0 -55 12q-41 14 -66 14q-46 0 -76 -80 q-36 -93 -49 -116q-20 -34 -61 -62q195 0 317 -137q121 -136 121 -336q0 -487 -485 -487q-209 0 -209 100q0 86 71 86q38 0 95 -63q61 -64 104 -64q234 0 234 412q0 164 -64 286q-78 146 -211 146h-170v-246q0 -80 2 -94q9 -57 51 -72q27 -12 101 -12v-37h-459z" />
<glyph unicode="&#x4c5;" horiz-adv-x="1388" d="M18 104q0 37 26 65t62 28q30 0 72 -31q44 -33 80 -33q199 0 199 692v285q0 128 -35 166q-34 40 -162 43v37h1092v-37q-128 -3 -162 -43q-35 -38 -35 -166v-862q0 -129 35 -170q35 -38 162 -41l-150 -426h-33q19 93 19 151q0 127 -78 187q-71 51 -240 51h-102v37 q127 3 162 41q35 41 35 170v1034h-420v-381q0 -391 -37 -555q-79 -362 -336 -362q-59 0 -104 28q-50 35 -50 92z" />
<glyph unicode="&#x4c6;" horiz-adv-x="1021" d="M12 90q0 82 74 82q34 0 66 -29q39 -39 59 -39q86 0 86 340v203q0 134 -10 164q-21 59 -129 68v36h819v-36q-94 0 -125 -48q-14 -20 -14 -131v-485q0 -84 2 -90q10 -49 45 -72q22 -16 92 -16l-119 -291h-37q13 73 13 109q0 75 -50 110q-53 35 -186 35h-96v37q84 0 108 8 q64 15 64 170v637h-305v-387q0 -169 -7 -234q-21 -153 -90 -204q-58 -43 -133 -43q-127 0 -127 106z" />
<glyph unicode="&#x4c7;" d="M35 0v37h49q84 0 121 49q24 30 24 154v874q0 105 -14 137q-10 29 -41 43q-45 25 -90 25h-49v37h581v-37h-49q-48 0 -96 -25q-36 -20 -45 -80q-4 -28 -4 -100v-387h629v387q0 100 -13 137q-27 68 -133 68h-49v37h582v-37h-49q-124 0 -142 -102q-4 -28 -4 -103v-903 q0 -336 -156 -508q-133 -145 -346 -145q-89 0 -184 30q-26 8 -51 16.5t-34.5 11.5t-10.5 3q-59 0 -74 -61h-35l-26 331h30q41 -127 156 -196q110 -64 250 -64q110 3 186 113q103 145 103 448v463h-629v-413q0 -102 12 -136q27 -67 133 -67h49v-37h-581z" />
<glyph unicode="&#x4c8;" horiz-adv-x="1095" d="M45 0v37q94 0 121 43q18 30 18 135v485q0 82 -2 88q-6 51 -41 72q-29 19 -96 19v36h444v-36q-108 0 -129 -56q-10 -30 -10 -123v-192h395v192q0 80 -2 88q-6 53 -38 72q-29 19 -99 19v36h445v-36q-111 0 -129 -56q-11 -33 -11 -123v-655q0 -487 -460 -487 q-209 0 -209 100q0 86 71 86q40 0 97 -63q58 -64 104 -64q231 0 231 412v413h-395v-227q0 -78 2 -88q9 -53 41 -72q30 -18 96 -18v-37h-444z" />
<glyph unicode="&#x4c9;" d="M35 0v37h49q84 0 121 49q24 30 24 154v874q0 105 -14 137q-10 29 -41 43q-45 25 -90 25h-49v37h581v-37h-49q-48 0 -96 -25q-35 -20 -45 -82q-4 -28 -4 -98v-387h629v387q0 100 -13 137q-27 68 -133 68h-49v37h582v-37h-49q-124 0 -142 -102q-4 -28 -4 -103v-874 q0 -102 12 -136q9 -27 41 -43q44 -24 93 -24h49l-150 -426h-33q19 93 19 151q0 127 -78 187q-71 51 -238 51h-102v37h49q81 0 121 49q25 36 25 154v413h-629v-413q0 -102 12 -136q27 -67 133 -67h49v-37h-581z" />
<glyph unicode="&#x4ca;" horiz-adv-x="1095" d="M45 0v37q94 0 121 43q18 30 18 135v485q0 82 -2 88q-6 51 -41 72q-29 19 -96 19v36h444v-36q-108 0 -129 -56q-10 -30 -10 -123v-192h395v192q0 80 -2 88q-6 53 -38 72q-29 19 -99 19v36h445v-36q-111 0 -129 -56q-11 -33 -11 -123v-485q0 -78 2 -88q9 -53 41 -72 q30 -18 97 -18l-119 -291h-37q12 67 12 109q0 76 -49 110q-53 35 -186 35h-66v37q93 0 119 45q20 29 20 133v227h-395v-227q0 -78 2 -88q9 -53 41 -72q30 -18 96 -18v-37h-444z" />
<glyph unicode="&#x4cb;" horiz-adv-x="1331" d="M-6 1319v37h586v-37q-163 0 -187 -76q-10 -45 -10 -139v-189q0 -93 4 -147q15 -86 72 -125q50 -29 116 -29q150 0 330 82v408q0 87 -4 115q-12 60 -65 81q-46 19 -125 19v37h583v-37q-155 -3 -182 -70q-14 -32 -14 -145v-852q0 -88 6 -115q15 -61 67 -82q41 -15 123 -18 v-37h-102q-379 0 -449 -389h-32v426q150 3 180 67q14 28 14 148v364q-248 -112 -409 -112q-95 0 -168 33q-95 41 -119 116q-19 62 -19 221v230q0 94 -6 115q-12 63 -65 84q-46 16 -125 16z" />
<glyph unicode="&#x4cc;" horiz-adv-x="1030" d="M31 879v36h430v-36q-94 0 -125 -48q-14 -20 -14 -131v-112q0 -58 6 -76q9 -36 49 -51q39 -17 96 -17q107 0 207 62v194q0 85 -2 93q-9 57 -45 71q-27 15 -90 15v36h442v-36q-91 0 -127 -48q-12 -21 -12 -131v-485q0 -72 4 -92q6 -55 45 -72q28 -14 90 -14v-37h-88 q-336 0 -342 -254h-37v291q73 3 82 6q48 9 66 43q14 28 14 129v223q-146 -73 -309 -73q-167 0 -201 73q-12 30 -12 97v165q0 81 -2 91q-9 50 -43 71q-31 17 -82 17z" />
<glyph unicode="&#x4cd;" horiz-adv-x="1820" d="M35 0v37h47q87 0 123 51q20 33 20 148v884q0 90 -18 131q-35 68 -172 68v37h383l491 -1061l486 1061h383v-37h-47q-87 0 -123 -51q-23 -38 -23 -148v-884q0 -124 29 -156q37 -43 117 -43h47l-150 -426h-33q19 93 19 151q0 127 -78 187q-71 51 -238 51h-98v37h49 q89 0 123 51q23 38 23 148v905l-525 -1141h-32l-525 1141v-905q0 -124 29 -156q37 -43 117 -43h47v-37h-471z" />
<glyph unicode="&#x4ce;" horiz-adv-x="1296" d="M45 0v37q94 0 121 43q18 30 18 135v485v91q-9 51 -45 71q-24 17 -94 17v36h324l286 -675l287 675h309v-36q-96 0 -127 -48q-12 -21 -12 -131v-485q0 -82 2 -92q9 -55 47 -72q28 -14 90 -14l-121 -291h-36q14 63 14 109q0 76 -49 110q-56 35 -187 35h-65v37q93 0 119 45 q20 29 20 133v551l-323 -766h-35l-332 766v-551q0 -72 4 -92q9 -55 45 -72q28 -14 90 -14v-37h-350z" />
<glyph unicode="&#x4cf;" horiz-adv-x="569" d="M61 903h11q13 0 42 -2t31 -2h80q3 0 33.5 2t40.5 2h12l-8 -20h-12q-34 -5 -47 -20t-13 -56v-709h318q42 0 57 12.5t17 45.5v10l22 10v-14q0 -8 -1 -37.5t-1 -36.5v-76q0 -4 1 -34t1 -39v-13l-22 6v13q-2 33 -17 45t-57 12h-324l-86 -86v891q0 42 -12.5 56.5t-48.5 19.5 h-10z" />
<glyph unicode="&#x4d0;" d="M16 33l21 20l14 -8q24 -8 43 -8q41 0 68 67l536 1158l533 -1158q30 -67 69 -67q19 0 43 8l13 8l24 -20l-16 -8q-25 -9 -94 -37l-90 -43q-60 -33 -88 -47l-15 -9l-2 33l12 6q46 27 46 58q0 16 -17 65l-90 203h-657l-90 -203q-17 -49 -17 -65q0 -32 45 -58l12 -6l-2 -33 l-14 9q-4 2 -35 19t-53 28l-90 43q-20 6 -94 37zM350 1706q0 80 70 80q65 0 117 -125q43 -105 141 -105q62 0 98 31q28 28 55 92q43 105 105 105q72 0 72 -76q0 -92 -123 -156q-106 -53 -205 -53q-123 0 -213 41q-117 56 -117 166zM418 365h557l-277 626z" />
<glyph unicode="&#x4d1;" horiz-adv-x="909" d="M74 -2l14 14l12 -6q18 -6 31 -6q30 0 53 51l402 869l399 -869q23 -51 53 -51q10 0 31 6l10 6l19 -14l-13 -6q-5 -2 -71 -29l-68 -33q-40 -23 -63 -34l-13 -7l-2 25l11 4q34 21 34 43q0 17 -16 49l-84 193h-455l-86 -193q-16 -32 -16 -49q0 -22 35 -43q1 -1 4.5 -2t5.5 -2 l-2 -25l-12 7q-7 4 -17 9.5t-24.5 12.5t-24.5 12l-65 33q-46 17 -72 29zM88 1282q0 80 70 80q64 0 116 -125q43 -104 142 -104q64 0 98 30q28 28 55 92q43 105 105 105q71 0 71 -76q0 -92 -122 -156q-106 -53 -205 -53q-123 0 -213 41q-117 56 -117 166zM395 285h383 l-192 432z" />
<glyph unicode="&#x4d2;" d="M16 33l21 20l14 -8q24 -8 43 -8q41 0 68 67l536 1158l533 -1158q30 -67 69 -67q19 0 43 8l13 8l24 -20l-16 -8q-25 -9 -94 -37l-90 -43q-60 -33 -88 -47l-15 -9l-2 33l12 6q46 27 46 58q0 16 -17 65l-90 203h-657l-90 -203q-17 -49 -17 -65q0 -32 45 -58l12 -6l-2 -33 l-14 9q-4 2 -35 19t-53 28l-90 43q-20 6 -94 37zM383 1866l88 90l92 -90l-92 -90zM418 365h557l-277 626zM682 1866l88 90l92 -90l-92 -90z" />
<glyph unicode="&#x4d3;" horiz-adv-x="909" d="M74 -2l14 14l12 -6q18 -6 31 -6q30 0 53 51l402 869l399 -869q23 -51 53 -51q10 0 31 6l10 6l19 -14l-13 -6q-5 -2 -71 -29l-68 -33q-40 -23 -63 -34l-13 -7l-2 25l11 4q34 21 34 43q0 17 -16 49l-84 193h-455l-86 -193q-16 -32 -16 -49q0 -22 35 -43q1 -1 4.5 -2t5.5 -2 l-2 -25l-12 7q-7 4 -17 9.5t-24.5 12.5t-24.5 12l-65 33q-46 17 -72 29zM164 1495l88 90l92 -90l-92 -90zM395 285h383l-192 432zM463 1495l88 90l92 -90l-92 -90z" />
<glyph unicode="&#x4d4;" horiz-adv-x="1820" d="M84 33l20 20l15 -8q24 -8 43 -8q40 0 67 67l504 1092h514q58 0 76.5 16t24.5 62v14l26 10v-16q0 -12 -2 -51.5t-2 -46.5v-103q0 -6 2 -45t2 -53v-18l-26 12v14q-6 46 -24.5 62t-76.5 16h-385v-369h375q56 0 75 15.5t25 60.5v15l29 12v-19q0 -12 -2 -51.5t-2 -46.5v-100 q0 -6 2 -45.5t2 -53.5v-18l-29 10v17q-6 45 -25 60t-75 15h-375v-444h385q58 0 76.5 16t24.5 62v14l26 12v-18q0 -12 -2 -51.5t-2 -46.5v-103q0 -6 2 -45.5t2 -52.5v-16l-26 10v14q-6 46 -24.5 62t-76.5 16h-397l-117 -115v271h-340l-47 -105q-16 -46 -16 -65q0 -32 45 -58 l12 -6l-2 -33l-14 9q-4 2 -35 19t-53 28l-90 43q-23 7 -95 37zM442 266h291v658z" />
<glyph unicode="&#x4d5;" horiz-adv-x="1366" d="M74 201q0 89 43 147q44 63 170 127q156 79 276 123v90q0 199 -147 199q-67 0 -103 -33q-39 -33 -39 -74q0 -87 -8 -108q-15 -51 -71 -51q-38 0 -60 22q-31 36 -31 74q-5 81 90.5 154.5t245.5 72.5q222 0 271 -123q46 58 100 86q70 37 168 37q146 0 236 -99t90 -278h-572 v-73q0 -192 68.5 -281.5t187.5 -89.5q96 0 176 59q48 39 107 160l33 -23q-37 -163 -156 -270q-87 -78 -215 -78q-107 0 -184 47q-37 23 -111 113l-55 -43q-39 -31 -78 -57q-108 -60 -209 -60q-94 0 -158.5 66.5t-64.5 163.5zM242 258q0 -78 46 -128t113 -50q40 0 85 21.5 t124 82.5q-20 44 -33.5 117.5t-13.5 140.5v90q-133 -43 -248 -129q-73 -58 -73 -145zM733 633h379q-1 120 -51 179.5t-133 59.5t-138.5 -63.5t-56.5 -175.5z" />
<glyph unicode="&#x4d6;" horiz-adv-x="1251" d="M41 1706q0 80 70 80q64 0 116 -125q43 -105 142 -105q62 0 98 31q28 28 55 92q44 105 105 105q71 0 71 -76q0 -92 -123 -156q-106 -53 -204 -53q-123 0 -213 41q-117 56 -117 166zM49 469v18q0 14 1 53.5t1 45.5v100q0 7 -1 46.5t-1 51.5v19l27 -12v-15q6 -43 20.5 -59 t55.5 -17v496h512q59 0 78 16t24 62v14l27 10v-16q0 -12 -3.5 -51.5t-3.5 -46.5v-103q0 -6 3.5 -45t3.5 -53v-18l-27 12v14q-5 46 -24 62t-78 16h-385v-369h376q58 0 76.5 15t24.5 61v15l26 12v-19q0 -12 -2 -51.5t-2 -46.5v-100q0 -6 2 -45.5t2 -53.5v-18l-26 10v17 q-6 46 -24.5 60.5t-76.5 14.5h-376v-444h385q59 0 78 16t24 62v14l27 12v-18q0 -12 -3.5 -51.5t-3.5 -46.5v-103q0 -6 3.5 -45.5t3.5 -52.5v-16l-27 10v14q-5 46 -24 62t-78 16h-398l-114 -115v686q-41 -1 -55.5 -16.5t-20.5 -58.5v-17z" />
<glyph unicode="&#x4d7;" horiz-adv-x="909" d="M78 356v15q0 9 1 39t1 34v74q0 7 -1 36.5t-1 37.5v14l18 -8v-12q6 -33 17.5 -44.5t42.5 -11.5v371h385q43 0 56.5 12t18.5 48v10l19 8v-12q0 -9 -1 -39.5t-1 -34.5v-78q0 -4 1 -34t1 -40v-14l-19 10v11q-5 36 -18.5 47.5t-56.5 11.5h-291v-277h285q41 0 53.5 11t17.5 45 v12l23 8v-14q0 -8 -1 -37.5t-1 -36.5v-74q0 -4 1 -34t1 -39v-15l-23 9v12q-5 34 -17.5 44.5t-53.5 10.5h-285v-332h291q42 0 56 12t19 46v10l19 10v-14q0 -8 -1 -37.5t-1 -36.5v-76q0 -4 1 -34t1 -39v-13l-19 6v13q-5 34 -18.5 45.5t-56.5 11.5h-299l-86 -86v514 q-31 0 -42.5 -11.5t-17.5 -43.5v-12zM125 1282q0 80 70 80q64 0 116 -125q43 -104 142 -104q63 0 98 30q28 28 55 92q44 105 105 105q71 0 71 -76q0 -92 -123 -156q-106 -53 -204 -53q-123 0 -213 41q-117 56 -117 166z" />
<glyph unicode="&#x4da;" d="M43 674q0 32 2 57h1124q-15 230 -112 391q-121 195 -336 195q-165 0 -293 -113q-128 -116 -152 -272h-36l22 452h35q40 -69 76 -69q17 0 55 14q159 57 291 57q367 0 579 -335q103 -165 103 -377q0 -298 -189 -502q-194 -203 -491 -203q-295 0 -488 205q-190 205 -190 500 zM272 657q0 -223 111 -401q129 -211 338 -211q214 0 340 211q108 179 108 401h-897zM451 1866l88 90l92 -90l-92 -90zM750 1866l88 90l92 -90l-92 -90z" />
<glyph unicode="&#x4db;" horiz-adv-x="909" d="M76 344h633q3 167 -78 295q-94 141 -256 141q-186 0 -269 -219l-30 21q21 150 123 252q107 110 252 110q188 0 299 -147q102 -132 102 -328q0 -212 -104 -346q-116 -152 -320 -152q-163 0 -258 109q-94 101 -94 264zM174 1495l88 90l92 -90l-92 -90zM285 287 q6 -91 20 -123q53 -121 178 -121q96 0 160 76q57 70 66 168h-424zM473 1495l88 90l92 -90l-92 -90z" />
<glyph unicode="&#x4dc;" horiz-adv-x="1835" d="M18 121l27 10l10 -10q30 -33 56.5 -32.5t68.5 36.5l492 414l-492 411q-42 36 -67.5 37.5t-57.5 -29.5l-10 -12l-27 8l11 15l67 71l70 84q41 58 59 78l11 12l14 -24l-10 -10q-25 -38 -19.5 -63.5t47.5 -61.5l449 -377v395q0 56 -16.5 76t-61.5 25h-14l-11 26h17 q14 0 53 -2t45 -2h102q7 0 47 2t52 2h18l-12 -26h-14q-45 -5 -61.5 -25t-16.5 -76v-391l444 373q44 36 49 61.5t-20 63.5l-10 10l14 24l10 -12q44 -51 60 -78l69 -84l68 -71l12 -15l-29 -8l-10 12q-30 31 -56.5 29.5t-68.5 -37.5l-491 -411l491 -414q42 -36 68.5 -36.5 t58.5 32.5l8 10l29 -10l-12 -12l-66 -72l-69 -84q-4 -4 -15.5 -19t-25.5 -34t-19 -25l-12 -14l-14 26l10 13q26 37 20.5 60t-49.5 60l-444 375v-624l-127 -213v839l-449 -377q-43 -37 -48.5 -60t20.5 -60l10 -13l-14 -26l-11 14q-7 8 -20 25t-26 33.5t-15 19.5l-70 84 l-67 72zM1071 1866l88 90l92 -90l-92 -90zM1370 1866l88 90l92 -90l-92 -90z" />
<glyph unicode="&#x4dd;" horiz-adv-x="1415" d="M43 88l18 8l9 -8q25 -25 43.5 -24.5t50.5 26.5l368 311l-368 310q-31 29 -50.5 29.5t-43.5 -23.5l-7 -8l-20 4l8 12q10 14 49 53l54 64q4 4 22 28t23 29l8 10l8 -18l-6 -8q-19 -29 -15.5 -47.5t35.5 -47.5l336 -282v297q0 42 -11 56.5t-44 19.5h-12l-9 18h13 q10 0 39.5 -1t33.5 -1h78q4 0 34.5 1t39.5 1h12l-8 -18h-10q-36 -5 -47.5 -19.5t-11.5 -56.5v-293l333 278q32 29 36 47.5t-15 47.5l-6 8l10 18l6 -10q5 -5 24 -29t23 -28l51 -64l52 -53l8 -12l-21 -4l-8 8q-24 24 -43.5 23.5t-50.5 -29.5l-369 -310l369 -311 q32 -26 51.5 -26.5t42.5 24.5l8 8l21 -8l-8 -8q-6 -8 -26.5 -29.5t-23.5 -25.5l-53 -64q-15 -15 -45 -57l-8 -10l-10 20l8 8q19 29 14 46.5t-37 43.5l-333 281v-569l-97 -160v733l-336 -285q-32 -26 -36 -43.5t16 -46.5l6 -8l-8 -20l-10 10q-36 50 -45 57l-52 64 q-3 4 -24 25.5t-27 29.5zM424 1495l88 90l92 -90l-92 -90zM723 1495l88 90l92 -90l-92 -90z" />
<glyph unicode="&#x4de;" horiz-adv-x="1026" d="M43 987q28 42 43 60q39 51 82 79q97 72 223 72q160 0 275 -115q112 -112 112 -272q0 -124 -73 -225v-4q73 -101 73 -226q0 -162 -112 -274q-113 -113 -275 -113q-188 0 -303 146q0 4 -4 8l-21 29l-16 24l80 64q8 5 38 31t38 32l14 10l8 -28l-10 -9q-45 -42 -33 -73 q3 -6 11 -10l16 -21q76 -76 182 -76t182 76t76 184q-9 129 -90 201q-153 12 -204.5 24t0 23t204.5 21q93 72 90 186q0 106 -76 182q-78 78 -182 78q-69 0 -125 -33l-12 -8q-27 -17 -45 -35l-31 -34q-13 -31 33 -74l10 -8l-8 -29l-14 10q-8 6 -38.5 32.5t-37.5 31.5z M147 1866l89 90l92 -90l-92 -90zM446 1866l89 90l92 -90l-92 -90z" />
<glyph unicode="&#x4df;" horiz-adv-x="808" d="M25 1495l88 90l92 -90l-92 -90zM35 733l31 45q28 36 63 60q71 53 168 53q122 0 205 -86q86 -83 86 -205q0 -92 -58 -168v-4q58 -76 58 -170q0 -119 -86 -205q-84 -84 -205 -84q-145 0 -227 111l-4 4q-2 2 -17 22l-12 19l61 47q3 2 15 12.5t24 20.5t19 14l8 8l6 -20l-6 -8 q-35 -30 -25 -56l8 -8l13 -12q57 -60 137 -60q79 0 135.5 58t56.5 137q-6 96 -67 154q-172 12 -172 24.5t172 24.5q70 52 67 139q0 82 -56 139.5t-136 57.5q-49 0 -94 -25l-10 -6q-18 -12 -33 -27l-23 -26q-13 -25 23 -56l8 -6l-6 -22l-10 8q-6 5 -29.5 24.5t-28.5 22.5z M324 1495l88 90l92 -90l-92 -90z" />
<glyph unicode="&#x4e0;" horiz-adv-x="1026" d="M43 242l35 20q56 -91 154 -147t202 -56q143 0 217 109q64 88 64 248q0 178 -119 260q-103 74 -272 74v53l362 469h-262q-170 0 -223 -103q-27 -53 -33 -153h-39l27 340h807v-35l-412 -524q171 -23 276 -121q113 -107 113 -277q0 -196 -131 -315q-127 -115 -322 -115 q-288 0 -444 273z" />
<glyph unicode="&#x4e1;" horiz-adv-x="909" d="M33 -66l28 15q102 -236 283 -236q150 0 229 99q70 88 70 231q0 307 -381 307v35l361 461h-312q-70 0 -98 -4q-54 -9 -78 -56q-28 -55 -31 -124h-38l6 253h768v-36l-369 -473q138 -24 229 -125q105 -114 105 -283q0 -185 -96 -307q-109 -133 -291 -133q-151 0 -258 116 q-91 99 -127 260z" />
<glyph unicode="&#x4e2;" d="M39 -4l10 27h14q45 5 61.5 24.5t16.5 75.5v950q0 56 -16.5 76t-61.5 25h-14l-10 26h16q14 0 53.5 -2t45.5 -2h100q8 0 48 2t52 2h19l-13 -26h-16q-45 -5 -60.5 -25t-15.5 -76v-749l693 737v12q0 56 -16.5 76t-61.5 25h-15l-12 26h18q14 0 53.5 -2t45.5 -2h102q7 0 46 2 t53 2h18l-12 -26h-15q-45 -5 -61.5 -25t-16.5 -76v-950q0 -56 16.5 -75.5t61.5 -24.5h15l12 -27h-18q-14 0 -53 2t-46 2h-102q-6 0 -45.5 -2t-53.5 -2h-18l12 27h15q45 5 61.5 24.5t16.5 75.5v749l-693 -733v-16q0 -56 15.5 -75.5t60.5 -24.5h16l13 -27h-19q-12 0 -52 2 t-48 2h-100q-6 0 -45.5 -2t-53.5 -2h-16zM233 1507v129h639v-129h-639z" />
<glyph unicode="&#x4e3;" horiz-adv-x="1095" d="M47 -4l6 20h13q33 2 45 17t12 57v715q0 42 -12 57t-45 17h-13l-6 20h12q9 0 39.5 -2t34.5 -2h76q7 0 36.5 2t37.5 2h14l-10 -20h-11q-33 -2 -45 -17t-12 -57v-563l518 553v10q0 42 -12 57t-45 17h-12l-6 20h12q10 0 40 -2t34 -2h75q7 0 36.5 2t37.5 2h14l-10 -20h-10 q-33 -2 -45 -17t-12 -57v-715q0 -42 12 -57t45 -17h10l10 -20h-14q-8 0 -37.5 2t-36.5 2h-75q-4 0 -34 -2t-40 -2h-12l6 20h12q33 2 45 17t12 57v563l-518 -551v-12q0 -42 12 -57t45 -17h11l10 -20h-14q-8 0 -37.5 2t-36.5 2h-76q-4 0 -34.5 -2t-39.5 -2h-12zM49 1118v129 h639v-129h-639z" />
<glyph unicode="&#x4e4;" d="M39 -4l10 27h14q45 5 61.5 24.5t16.5 75.5v950q0 56 -16.5 76t-61.5 25h-14l-10 26h16q14 0 53.5 -2t45.5 -2h100q8 0 48 2t52 2h19l-13 -26h-16q-45 -5 -60.5 -25t-15.5 -76v-749l693 737v12q0 56 -16.5 76t-61.5 25h-15l-12 26h18q14 0 53.5 -2t45.5 -2h102q7 0 46 2 t53 2h18l-12 -26h-15q-45 -5 -61.5 -25t-16.5 -76v-950q0 -56 16.5 -75.5t61.5 -24.5h15l12 -27h-18q-14 0 -53 2t-46 2h-102q-6 0 -45.5 -2t-53.5 -2h-18l12 27h15q45 5 61.5 24.5t16.5 75.5v749l-693 -733v-16q0 -56 15.5 -75.5t60.5 -24.5h16l13 -27h-19q-12 0 -52 2 t-48 2h-100q-6 0 -45.5 -2t-53.5 -2h-16zM268 1866l88 90l93 -90l-93 -90zM567 1866l88 90l93 -90l-93 -90z" />
<glyph unicode="&#x4e5;" horiz-adv-x="1095" d="M47 -4l6 20h13q33 2 45 17t12 57v715q0 42 -12 57t-45 17h-13l-6 20h12q9 0 39.5 -2t34.5 -2h76q7 0 36.5 2t37.5 2h14l-10 -20h-11q-33 -2 -45 -17t-12 -57v-563l518 553v10q0 42 -12 57t-45 17h-12l-6 20h12q10 0 40 -2t34 -2h75q7 0 36.5 2t37.5 2h14l-10 -20h-10 q-33 -2 -45 -17t-12 -57v-715q0 -42 12 -57t45 -17h10l10 -20h-14q-8 0 -37.5 2t-36.5 2h-75q-4 0 -34 -2t-40 -2h-12l6 20h12q33 2 45 17t12 57v563l-518 -551v-12q0 -42 12 -57t45 -17h11l10 -20h-14q-8 0 -37.5 2t-36.5 2h-76q-4 0 -34.5 -2t-39.5 -2h-12zM86 1495l88 90 l92 -90l-92 -90zM385 1495l88 90l92 -90l-92 -90z" />
<glyph unicode="&#x4e6;" d="M74 598q0 260 184 444q185 185 444 185q263 0 445 -185q184 -181 184 -444q0 -260 -184 -444q-182 -185 -445 -185q-259 0 -444 185q-184 184 -184 444zM201 543q21 -173 147 -299q125 -125 299 -146v445h-446zM201 653h446v445q-174 -21 -299 -146q-126 -123 -147 -299z M293 1866l88 90l92 -90l-92 -90zM592 1866l88 90l92 -90l-92 -90zM756 98q174 21 299 146q126 126 147 299h-446v-445zM756 653h446q-21 178 -145 299q-122 125 -301 146v-445z" />
<glyph unicode="&#x4e7;" horiz-adv-x="1024" d="M70 440q0 197 137 334q139 139 332 139q196 0 335 -139q138 -138 138 -334t-138 -334q-137 -137 -335 -137q-195 0 -332 137t-137 334zM164 399q18 -130 110 -225q96 -93 224 -108v333h-334zM164 483h334v332q-128 -13 -221.5 -107t-112.5 -225zM211 1495l88 90l92 -90 l-92 -90zM510 1495l88 90l92 -90l-92 -90zM582 66q127 15 223 108q95 95 110 225h-333v-333zM582 483h333q-13 130 -107.5 224t-225.5 108v-332z" />
<glyph unicode="&#x4e8;" d="M72 682q0 322 221 528q191 176 457 176q283 0 469 -210q182 -203 182 -490q0 -297 -184 -502q-194 -215 -484 -215q-296 0 -483 211q-178 202 -178 502zM301 653q6 -307 141 -477q108 -135 289 -135q234 0 348 199q92 160 92 413h-870zM301 727h868q-9 248 -98 399 q-115 189 -342 189q-218 0 -332 -193q-87 -150 -96 -395z" />
<glyph unicode="&#x4e9;" horiz-adv-x="1024" d="M70 449q0 124 59 245q61 124 161.5 186t221.5 62q206 0 334 -158q106 -132 106 -309q0 -131 -57 -248q-61 -127 -162 -191.5t-231 -64.5q-207 0 -330 166q-102 138 -102 312zM256 520h504q-18 139 -78 236q-76 123 -201 123q-133 0 -192 -144q-36 -83 -33 -203v-12z M258 455q12 -147 78 -267q77 -145 209 -145q223 0 223 354q0 33 -2 58h-508z" />
<glyph unicode="&#x4ea;" d="M72 682q0 322 221 528q191 176 457 176q283 0 469 -210q182 -203 182 -490q0 -297 -184 -502q-194 -215 -484 -215q-296 0 -483 211q-178 202 -178 502zM301 653q6 -307 141 -477q108 -135 289 -135q234 0 348 199q92 160 92 413h-870zM301 727h868q-9 248 -98 399 q-115 189 -342 189q-218 0 -332 -193q-87 -150 -96 -395zM449 1866l88 90l92 -90l-92 -90zM748 1866l88 90l92 -90l-92 -90z" />
<glyph unicode="&#x4eb;" horiz-adv-x="1024" d="M70 449q0 124 59 245q61 124 161.5 186t221.5 62q206 0 334 -158q106 -132 106 -309q0 -131 -57 -248q-61 -127 -162 -191.5t-231 -64.5q-207 0 -330 166q-102 138 -102 312zM227 1495l88 90l93 -90l-93 -90zM256 520h504q-18 139 -78 236q-76 123 -201 123 q-133 0 -192 -144q-36 -83 -33 -203v-12zM258 455q12 -147 78 -267q77 -145 209 -145q223 0 223 354q0 33 -2 58h-508zM526 1495l88 90l93 -90l-93 -90z" />
<glyph unicode="&#x4ec;" horiz-adv-x="1351" d="M59 918v16q0 18 2 53t2 37v96q152 107 351 107q259 0 444 -185q184 -184 184 -444t-184 -444q-185 -185 -444 -185q-196 0 -351 107l7 104q0 5 -3.5 40t-3.5 50v17h25q8 -54 51 -103q139 -86 275 -86q203 0 354 148q123 126 143 284h-309q-56 0 -75.5 -15t-24.5 -60v-15 l-27 -12v18q0 14 2 53.5t2 45.5v108q0 7 -2 47t-2 52v16l27 -10v-15q5 -45 24.5 -61t75.5 -16h309q-21 161 -143 286q-152 146 -354 146q-130 0 -260 -74q-52 -40 -64 -106h-31zM141 1866l88 90l93 -90l-93 -90zM440 1866l88 90l93 -90l-93 -90z" />
<glyph unicode="&#x4ed;" horiz-adv-x="878" d="M29 682v10q0 13 2 39.5t2 28.5v71q113 82 262 82q193 0 332 -139t139 -334t-139 -334q-137 -137 -332 -137q-144 0 -262 80l4 78q0 4 -2 31t-2 37v14h18q6 -44 37 -80q105 -63 207 -63q154 0 264 110q94 94 109 213h-232q-42 0 -56.5 -11t-19.5 -44v-12l-20 -9v15 q0 10 2 39.5t2 33.5v80q0 7 -2 37t-2 37v12l20 -6v-10q5 -36 19.5 -47.5t56.5 -11.5h232q-15 121 -109 215q-111 108 -264 108q-101 0 -195 -55q-40 -29 -49 -78h-22zM98 1495l88 90l93 -90l-93 -90zM397 1495l88 90l93 -90l-93 -90z" />
<glyph unicode="&#x4ee;" horiz-adv-x="1449" d="M43 1081l14 13q58 35 80 53l88 59q3 2 19.5 15l33 26t23.5 19l14 8l7 -29l-11 -8q-36 -27 -38 -51t30 -72l354 -504l355 504q30 48 28.5 72t-34.5 51l-13 6l6 31l15 -10q13 -12 40 -32t38 -26l88 -61q4 -3 37 -24t43 -29l12 -11l-25 -14l-10 6q-38 25 -62.5 18t-56.5 -51 l-682 -974q-32 -47 -30.5 -73t36.5 -52l13 -9l-9 -28l-12 10q-10 6 -76 59l-88 62q-5 4 -37.5 23.5t-44.5 27.5l-14 10l27 15l10 -9q37 -23 62 -15t57 52l248 357l-381 544q-32 44 -56 51t-61 -16l-12 -8zM401 1507v129h639v-129h-639z" />
<glyph unicode="&#x4ef;" horiz-adv-x="1024" d="M12 807l11 8l61 41l68 47q52 39 59 43l10 8l4 -22l-8 -6q-27 -21 -28.5 -40t22.5 -55l272 -387l271 387q26 36 24.5 55t-28.5 40l-9 6l2 22l13 -8q7 -4 19.5 -14l25 -20t14.5 -11l68 -47l61 -41l10 -6l-18 -12l-8 6q-30 19 -48 14t-44 -41l-523 -745q-24 -37 -23.5 -56.5 t27.5 -42.5l11 -4l-6 -22l-11 8l-57 45l-68 47l-61 39l-12 8l20 10l8 -6q29 -18 47 -11.5t43 42.5l191 270l-293 418q-24 36 -43 41.5t-45 -12.5l-10 -6zM80 1118v129h639v-129h-639z" />
<glyph unicode="&#x4f0;" horiz-adv-x="1449" d="M27 1081l14 13q57 35 80 53l88 59q3 2 19.5 15l33 26t23.5 19l14 8l6 -29l-10 -8q-36 -27 -38 -51t30 -72l354 -504l354 504q30 48 28.5 72t-34.5 51l-12 6l6 31l14 -10q13 -12 40 -32t38 -26l88 -61q4 -3 37 -24t43 -29l12 -11l-24 -14l-10 6q-38 25 -62.5 18t-56.5 -51 l-682 -974q-32 -47 -30.5 -73t36.5 -52l12 -9l-8 -28l-12 10q-10 6 -76 59l-88 62q-5 4 -37.5 23.5t-44.5 27.5l-14 10l26 15l11 -9q37 -23 61.5 -15t56.5 52l248 357l-381 544q-32 44 -56 51t-61 -16l-12 -8zM422 1866l88 90l92 -90l-92 -90zM721 1866l88 90l92 -90 l-92 -90z" />
<glyph unicode="&#x4f1;" horiz-adv-x="1024" d="M12 807l11 8l61 41l68 47q52 39 59 43l10 8l4 -22l-8 -6q-27 -21 -28.5 -40t22.5 -55l272 -387l271 387q26 36 24.5 55t-28.5 40l-9 6l2 22l13 -8q7 -4 19.5 -14l25 -20t14.5 -11l68 -47l61 -41l10 -6l-18 -12l-8 6q-30 19 -48 14t-44 -41l-523 -745q-24 -37 -23.5 -56.5 t27.5 -42.5l11 -4l-6 -22l-11 8l-57 45l-68 47l-61 39l-12 8l20 10l8 -6q29 -18 47 -11.5t43 42.5l191 270l-293 418q-24 36 -43 41.5t-45 -12.5l-10 -6zM154 1495l88 90l92 -90l-92 -90zM453 1495l88 90l92 -90l-92 -90z" />
<glyph unicode="&#x4f2;" horiz-adv-x="1449" d="M43 1081l14 13q58 35 80 53l88 59q3 2 19.5 15l33 26t23.5 19l14 8l7 -29l-11 -8q-36 -27 -38 -51t30 -72l354 -504l355 504q30 48 28.5 72t-34.5 51l-13 6l6 31l15 -10q13 -12 40 -32t38 -26l88 -61q4 -3 37 -24t43 -29l12 -11l-25 -14l-10 6q-38 25 -62.5 18t-56.5 -51 l-682 -974q-32 -47 -30.5 -73t36.5 -52l13 -9l-9 -28l-12 10q-10 6 -76 59l-88 62q-5 4 -37.5 23.5t-44.5 27.5l-14 10l27 15l10 -9q37 -23 62 -15t57 52l248 357l-381 544q-32 44 -56 51t-61 -16l-12 -8zM520 1452l66 346h188l-221 -346h-33zM834 1452l65 346h186 l-217 -346h-34z" />
<glyph unicode="&#x4f3;" horiz-adv-x="1024" d="M12 807l11 8l61 41l68 47q52 39 59 43l10 8l4 -22l-8 -6q-27 -21 -28.5 -40t22.5 -55l272 -387l271 387q26 36 24.5 55t-28.5 40l-9 6l2 22l13 -8q7 -4 19.5 -14l25 -20t14.5 -11l68 -47l61 -41l10 -6l-18 -12l-8 6q-30 19 -48 14t-44 -41l-523 -745q-24 -37 -23.5 -56.5 t27.5 -42.5l11 -4l-6 -22l-11 8l-57 45l-68 47l-61 39l-12 8l20 10l8 -6q29 -18 47 -11.5t43 42.5l191 270l-293 418q-24 36 -43 41.5t-45 -12.5l-10 -6zM211 1044l65 347h189l-221 -347h-33zM524 1044l66 347h186l-217 -347h-35z" />
<glyph unicode="&#x4f4;" horiz-adv-x="1331" d="M-4 1202h14q13 0 53 -2t48 -2h106q7 0 46 2t54 2h19l-12 -26h-17q-44 -5 -59 -24.5t-15 -76.5v-244q9 -51 39 -92q105 -152 361 -108v444q0 56 -16.5 76t-61.5 25h-14l-11 26h17q12 0 51.5 -2t46.5 -2h109q6 0 45 2t53 2h18l-12 -26h-14q-45 -5 -60.5 -25t-15.5 -76v-948 q0 -56 15.5 -76t60.5 -26h14l12 -25h-18q-14 0 -53 1t-45 1h-109q-7 0 -46.5 -1t-51.5 -1h-17l11 25h14q45 6 61.5 26t16.5 76v375q-152 -30 -278 15t-199 151q-54 82 -60 163v5v30v209q0 56 -15.5 76t-60.5 25h-16zM371 1866l88 90l92 -90l-92 -90zM670 1866l88 90l92 -90 l-92 -90z" />
<glyph unicode="&#x4f5;" horiz-adv-x="1030" d="M31 901h10q9 0 39 -1t37 -1h80q3 0 32.5 1t42.5 1h13l-9 -20h-12q-32 -2 -43.5 -16.5t-11.5 -57.5v-184h-2q9 -36 31 -68q43 -59 102 -78q61 -20 168 -4v334q0 42 -12 57t-45 17h-13l-8 20h12q10 0 40 -1t36 -1h80q4 0 34.5 1t39.5 1h14l-10 -20h-10q-35 -1 -45.5 -16 t-10.5 -58v-713q0 -43 10.5 -57.5t45.5 -18.5h10l10 -18h-14q-9 0 -39.5 1t-34.5 1h-80q-6 0 -36 -1t-40 -1h-12l8 18h13q33 5 45 19.5t12 56.5v283q-113 -24 -207 9.5t-151 113.5q-50 77 -44 155v152q0 42 -12 57t-45 17h-12zM268 1495l88 90l93 -90l-93 -90zM567 1495 l88 90l93 -90l-93 -90z" />
<glyph unicode="&#x4f6;" horiz-adv-x="1183" d="M37 0v37q127 3 162 41q34 40 34 170v862q0 129 -34 166q-34 40 -162 43v37h1087l6 -318h-38q-9 193 -131 230q-49 14 -156 14h-379v-1034q0 -130 33 -166q36 -42 159 -45v-426h-32q-70 389 -449 389h-100z" />
<glyph unicode="&#x4f7;" horiz-adv-x="839" d="M31 0v37q105 3 131 39q22 31 22 139v485q0 81 -2 93q-9 56 -47 71q-27 12 -104 15v36h760l36 -249h-45q-38 126 -75 153q-39 33 -162 33h-195v-637q0 -84 2 -90q6 -48 43 -72q26 -16 94 -16v-291h-36q-9 254 -344 254h-78z" />
<glyph unicode="&#x4f8;" horiz-adv-x="1785" d="M39 -4l10 27h14q45 5 61.5 24.5t16.5 75.5v958q0 53 -15 71.5t-58 23.5h-13l-10 24h16q10 0 47.5 -2t43.5 -2h102q3 0 40 2t50 2h18l-12 -24h-12q-43 -5 -57.5 -23.5t-14.5 -71.5l2 -360q206 21 344 -33q89 -44 138 -121q59 -89 59 -202q0 -154 -107 -261 q-107 -104 -264 -104h-284q-6 0 -45.5 -2t-53.5 -2h-16zM268 121h162q107 0 176 69q72 72 72 175q0 101 -71.5 172t-176.5 71h-162v-487zM422 1866l88 90l92 -90l-92 -90zM721 1866l88 90l92 -90l-92 -90zM934 -4l10 27h17q44 5 58.5 24t14.5 76v950q0 57 -14.5 76.5 t-58.5 24.5h-17l-10 26h16q15 0 54.5 -2t46.5 -2h106q8 0 47.5 2t52.5 2h17l-10 -26h-17q-45 -5 -60.5 -25t-15.5 -76v-950q0 -56 15.5 -75.5t60.5 -24.5h17l10 -27h-17q-13 0 -52.5 2t-47.5 2h-106q-7 0 -46.5 -2t-54.5 -2h-16z" />
<glyph unicode="&#x4f9;" horiz-adv-x="1376" d="M45 -4l6 20h12q33 2 45.5 17t12.5 57v721q0 38 -11 51.5t-42 18.5h-11l-8 18h12q8 0 35.5 -2t34.5 -2h74q4 0 32 2t37 2h13l-8 -18h-11q-31 -5 -41 -18.5t-10 -51.5v-270q153 15 258 -27q60 -25 103 -90q45 -65 45 -152q0 -114 -80 -194q-81 -78 -199 -78h-213 q-4 0 -34.5 -2t-39.5 -2h-12zM217 90h123q77 0 129.5 53t52.5 129t-52.5 129.5t-129.5 53.5h-123v-365zM408 1495l88 90l92 -90l-92 -90zM707 1495l88 90l92 -90l-92 -90zM715 -4l10 20h10q35 1 46.5 16t11.5 58v715q0 43 -11.5 58t-46.5 16h-10l-10 20h14q10 0 40 -2t34 -2 h82q4 0 34 2t39 2h13l-8 -20h-11q-35 -2 -47 -16.5t-12 -57.5v-715q0 -43 12 -57.5t47 -16.5h11l8 -20h-13q-9 0 -39 2t-34 2h-82q-4 0 -34 -2t-40 -2h-14z" />
<glyph unicode="&#x4fa;" horiz-adv-x="1183" d="M35 678v74h198v358q0 126 -34 166t-162 43v37h1087l6 -318h-38q-9 193 -131 230q-49 14 -156 14h-379v-530h389v-74h-389v-430q0 -127 33 -166q36 -42 159 -45v-148q0 -331 -225 -331q-75 0 -122.5 43.5t-47.5 115.5q0 49 26.5 82t72.5 33q79 0 79 -90q0 -8 -9 -37 t-9 -37q0 -45 49 -45q125 0 125 271v106h-520v37q128 3 162 43t34 168v430h-198z" />
<glyph unicode="&#x4fb;" horiz-adv-x="839" d="M31 0v37q105 3 131 39q22 28 22 139v225h-147v82h147v178q0 81 -2 93q-9 56 -47 71q-27 12 -104 15v36h760l36 -249h-45q-39 123 -73 151q-41 35 -164 35h-195v-330h209v-82h-209v-225q0 -82 2 -90q6 -48 43 -72q26 -16 94 -16v-148q0 -331 -225 -331q-76 0 -123 43 t-47 116q0 49 26.5 82t69.5 33q80 0 80 -90q0 -8 -8 -37t-8 -37q0 -45 49 -45q123 0 123 271v106h-395z" />
<glyph unicode="&#x4fc;" d="M14 0v37q53 6 88 20q123 51 246 205l322 406l-269 391q-88 128 -147 178q-91 79 -211 82v37h627v-37q-140 -3 -140 -78q0 -33 48 -106l208 -312l240 305q61 76 61 115q0 50 -49 68q-19 8 -96 8v37h481v-37q-55 -3 -92 -19q-97 -41 -225 -204l-270 -344l368 -543 q96 -143 96 -283q0 -150 -102 -258q-101 -110 -252 -110q-59 0 -98 20q-55 27 -55 78q0 82 79 82q28 0 95 -23q61 -24 98 -24q51 0 89 34.5t38 84.5q0 70 -141 282l-338 504l-285 -365q-61 -79 -61 -116q0 -72 129 -78v-37h-482z" />
<glyph unicode="&#x4fd;" horiz-adv-x="1024" d="M27 879v36h432v-36q-76 0 -76 -52q0 -21 37 -73l96 -154l76 105q72 104 72 124q0 50 -72 50v36h309v-36q-49 -3 -84 -27q-49 -37 -135 -147l-125 -168l242 -349q106 -153 106 -274q0 -149 -92 -252q-94 -104 -248 -104q-57 0 -98 20q-55 27 -55 78q0 82 80 82 q27 0 94 -23q62 -24 98 -24q52 0 89.5 34.5t37.5 84.5q0 74 -141 282l-211 314l-148 -197q-67 -88 -67 -109q0 -60 90 -63v-37h-299v37q37 3 61 24q39 26 129 148l193 256l-174 252q-70 97 -88 112q-53 50 -129 50z" />
<glyph unicode="&#x4fe;" d="M14 0v37q53 6 88 20q123 51 246 205l322 406l-4 6h-473v74h421l-213 311q-88 128 -147 178q-91 79 -211 82v37h627v-37q-140 -3 -140 -78q0 -33 48 -106l208 -312l240 305q61 76 61 115q0 50 -49 68q-19 8 -96 8v37h481v-37q-55 -3 -92 -19q-97 -41 -225 -204l-270 -344 l4 -4h434v-74h-385l237 -357q95 -138 134 -184q90 -90 194 -96v-37h-582v37q96 3 121 41q15 15 15 37q0 19 -11 45q-3 12 -55 88l-229 348l-285 -365q-61 -79 -61 -116q0 -72 129 -78v-37h-482z" />
<glyph unicode="&#x4ff;" horiz-adv-x="1024" d="M27 879v36h432v-36q-76 0 -76 -52q0 -21 37 -73l96 -154l76 105q72 104 72 124q0 50 -72 50v36h309v-36q-49 -3 -84 -27q-49 -37 -135 -147l-121 -164h291v-82h-240l174 -250q67 -98 86 -117q55 -52 127 -55v-37h-432v37q88 0 88 55q0 25 -63 117l-133 197l-148 -197 q-67 -88 -67 -109q0 -60 90 -63v-37h-299v37q37 3 61 24q39 26 129 148l189 250h-287v82h238l-121 176q-70 97 -88 112q-53 50 -129 50z" />
<glyph unicode="&#x2000;" horiz-adv-x="979" />
<glyph unicode="&#x2001;" horiz-adv-x="1958" />
<glyph unicode="&#x2002;" horiz-adv-x="979" />
<glyph unicode="&#x2003;" horiz-adv-x="1958" />
<glyph unicode="&#x2004;" horiz-adv-x="652" />
<glyph unicode="&#x2005;" horiz-adv-x="489" />
<glyph unicode="&#x2006;" horiz-adv-x="326" />
<glyph unicode="&#x2007;" horiz-adv-x="326" />
<glyph unicode="&#x2008;" horiz-adv-x="244" />
<glyph unicode="&#x2009;" horiz-adv-x="391" />
<glyph unicode="&#x200a;" horiz-adv-x="108" />
<glyph unicode="&#x2010;" horiz-adv-x="657" d="M55 281v18q0 14 2 52t2 44v103q0 7 -2 46.5t-2 51.5v18l29 -12v-14q5 -45 23.5 -60.5t74.5 -15.5h291q58 0 76.5 15t23.5 61v14l29 12v-18q0 -12 -3 -51.5t-3 -46.5v-103q0 -6 3 -44t3 -52v-18l-29 12v12q-5 46 -23.5 62t-76.5 16h-291q-55 0 -74 -16t-24 -62v-12z" />
<glyph unicode="&#x2011;" horiz-adv-x="657" d="M55 281v18q0 14 2 52t2 44v103q0 7 -2 46.5t-2 51.5v18l29 -12v-14q5 -45 23.5 -60.5t74.5 -15.5h291q58 0 76.5 15t23.5 61v14l29 12v-18q0 -12 -3 -51.5t-3 -46.5v-103q0 -6 3 -44t3 -52v-18l-29 12v12q-5 46 -23.5 62t-76.5 16h-291q-55 0 -74 -16t-24 -62v-12z" />
<glyph unicode="&#x2012;" horiz-adv-x="657" d="M55 281v18q0 14 2 52t2 44v103q0 7 -2 46.5t-2 51.5v18l29 -12v-14q5 -45 23.5 -60.5t74.5 -15.5h291q58 0 76.5 15t23.5 61v14l29 12v-18q0 -12 -3 -51.5t-3 -46.5v-103q0 -6 3 -44t3 -52v-18l-29 12v12q-5 46 -23.5 62t-76.5 16h-291q-55 0 -74 -16t-24 -62v-12z" />
<glyph unicode="&#x2013;" horiz-adv-x="854" d="M49 459v18q0 14 2 53t2 45v101q0 7 -2 46.5t-2 51.5v19l29 -11v-16q6 -46 24.5 -61t73.5 -15h500q56 0 74.5 15.5t23.5 60.5v16l29 11v-19q0 -12 -2 -51.5t-2 -46.5v-101q0 -6 2 -45t2 -53v-18l-29 12v14q-5 45 -23.5 60.5t-74.5 15.5h-500q-55 0 -73.5 -15t-24.5 -61 v-14z" />
<glyph unicode="&#x2014;" horiz-adv-x="1673" d="M49 459v18q0 14 2 53t2 45v101q0 7 -2 46.5t-2 51.5v19l29 -11v-16q6 -46 24.5 -61t73.5 -15h1319q56 0 74.5 15.5t23.5 60.5v16l29 11v-19q0 -12 -1 -51.5t-1 -46.5v-101q0 -6 1 -45t1 -53v-18l-29 12v14q-5 45 -23.5 60.5t-74.5 15.5h-1319q-55 0 -73.5 -15t-24.5 -61 v-14z" />
<glyph unicode="&#x2018;" horiz-adv-x="655" d="M176 1114l148 148l147 -148l-90 -90l111 -111l-58 -57z" />
<glyph unicode="&#x2019;" horiz-adv-x="655" d="M176 913l111 111l-90 90l147 148l148 -148l-259 -258z" />
<glyph unicode="&#x201a;" horiz-adv-x="681" d="M254 -109l108 111l-90 90l150 148l145 -148l-258 -258z" />
<glyph unicode="&#x201c;" horiz-adv-x="1093" d="M160 1114l145 148l150 -148l-90 -90l108 -111l-55 -57zM598 1114l150 148l147 -148l-90 -90l106 -111l-57 -57z" />
<glyph unicode="&#x201d;" horiz-adv-x="1093" d="M160 913l108 111l-90 90l150 148l145 -148l-258 -258zM598 913l111 111l-93 90l150 148l145 -148l-256 -258z" />
<glyph unicode="&#x201e;" horiz-adv-x="909" d="M68 80q0 48 38 84.5t93 36.5q68 0 121 -58.5t53 -142.5q0 -108 -68.5 -194t-189.5 -121v41q96 55 130 101t34 110q0 25 -11 43q-8 14 -22 14t-33 -8q-21 -9 -43 -9q-43 0 -72.5 30t-29.5 73zM547 82q0 48 37 83.5t92 35.5q69 0 122.5 -59.5t53.5 -143.5q0 -103 -68 -188 t-192 -125v41q86 43 125 93t39 111q0 32 -11 50q-8 14 -20 14q-18 0 -37 -8q-21 -9 -39 -9q-41 0 -71.5 31t-30.5 74z" />
<glyph unicode="&#x2026;" horiz-adv-x="1966" d="M180 92l148 148l147 -148l-147 -147zM836 92l147 148l147 -148l-147 -147zM1491 92l147 148l148 -148l-148 -147z" />
<glyph unicode="&#x202f;" horiz-adv-x="391" />
<glyph unicode="&#x2039;" horiz-adv-x="901" d="M246 598l225 229q43 43 43 72q0 19 -27 53l-10 11l15 26l12 -10q4 -5 30.5 -36.5t32.5 -37.5l56 -53q47 -47 69 -66l17 -12l-29 -12l-10 12q-36 25 -58 25q-26 0 -67 -41l-160 -160l160 -158q43 -43 67 -43t58 27q2 4 10 12l29 -14l-17 -10l-69 -68l-56 -51 q-26 -34 -63 -74l-12 -12l-15 26l10 13q27 34 27 53q0 29 -43 72z" />
<glyph unicode="&#x203a;" horiz-adv-x="901" d="M180 422l29 14q6 -6 8 -12q35 -27 57 -27q27 0 70 43l158 158l-158 160q-41 41 -70 41q-18 0 -57 -25q-4 -8 -8 -12l-29 12l13 12l73 66l51 53l68 74l12 10l11 -26l-11 -11q-26 -33 -26 -55q0 -27 43 -70l229 -229l-229 -227q-43 -43 -43 -70q0 -22 26 -55q8 -4 11 -13 l-11 -26l-12 12l-68 74l-51 51q-48 48 -73 68z" />
<glyph unicode="&#x205f;" horiz-adv-x="489" />
<glyph unicode="&#x20ac;" horiz-adv-x="1024" d="M-23 575l23 78h74v17q0 42 2 67h-99l23 78h84q34 236 162 391q147 178 377 178q171 0 340 -88v-299h-39q-27 322 -301 322q-159 0 -250 -168q-73 -134 -94 -336h591l-22 -78h-576q-2 -29 -2 -84h551l-22 -78h-527q9 -214 84 -352q89 -164 240 -164q135 0 223 70 q51 37 137 156l31 -21q-83 -132 -156 -192q-117 -97 -276 -97q-228 0 -354 193q-105 156 -123 407h-101z" />
<glyph unicode="&#x2122;" horiz-adv-x="2043" d="M164 741v31q0 17 2 29v24v56v26q-2 12 -2 29v29l22 -19v-14q3 -31 43 -31h230v229q0 41 -33 44h-14l-17 24h31h29q10 -2 22 -2h60q12 0 22 2h31h26l-16 -24h-14q-31 -3 -31 -44v-229h227q38 0 41 31v14l29 17v-27q0 -8 -2 -30t-2 -25v-56q0 -3 2 -24t2 -29v-29l-29 17v14 q-3 33 -41 33h-227v-229q0 -40 31 -43h14l16 -25h-26q-17 0 -31 2h-22h-60h-22q-14 -2 -29 -2h-31l17 25h14q33 3 33 43v229h-230q-40 0 -43 -31v-16zM1014 510l16 25h17q28 3 28 43v552q0 41 -28 44h-17l-16 24h28h29q14 -2 27 -2h268q-9 34 -29 37h-14l-16 24h26 q9 0 30.5 -2t25.5 -2h57q2 0 24 2t27 2h31l-19 -24h-16q-21 -3 -27 -37h271q12 0 22 2h31h31l-21 -24h-12q-33 -3 -33 -44v-552q0 -40 31 -43h14l21 -25h-31q-17 0 -31 2h-22h-58h-24q-14 -2 -31 -2h-29l21 25h10q33 3 33 43v518h-195v-518q0 -40 29 -43h16l19 -25h-31 q-15 0 -29 2h-22h-57h-25q-12 -2 -31 -2h-26l16 25h14q31 3 31 43v518h-192v-518q0 -40 26 -43h19l16 -25h-31q-14 0 -26 2h-27h-55h-27q-12 -2 -29 -2h-28z" />
<glyph unicode="&#xe000;" horiz-adv-x="931" d="M0 0v932h932v-932h-932z" />
</font>
</defs>
</svg>
